<svg xmlns="http://www.w3.org/2000/svg" width="26.571" height="28.982" viewBox="0 0 26.571 28.982"><defs><style>.a,.b{fill:#696f7b;}.c,.d{stroke:none;}.d{fill:#fff;}</style></defs><g transform="translate(1 1)"><g class="a" transform="translate(0 -23.631)"><path class="c" d="M 13.09739303588867 51.11345291137695 C 12.80733299255371 51.11345291137695 12.51584243774414 51.04436492919922 12.25443267822266 50.91366577148438 L 7.830963134765625 48.70172500610352 L 7.554378032684326 48.70172500610352 C 7.389752388000488 48.95641708374023 7.103268623352051 49.1253547668457 6.778092861175537 49.1253547668457 L 5.083572864532471 49.1253547668457 L 0.4236328601837158 49.1253547668457 C -0.08565713465213776 49.1253547668457 -0.4999971389770508 48.71101379394531 -0.4999971389770508 48.20172500610352 L -0.4999971389770508 41.42363357543945 C -0.4999971389770508 40.91434478759766 -0.08565713465213776 40.50000381469727 0.4236328601837158 40.50000381469727 L 5.083572864532471 40.50000381469727 L 6.778092861175537 40.50000381469727 C 7.103268623352051 40.50000381469727 7.389752388000488 40.66894149780273 7.554378032684326 40.92363357543945 L 11.01440238952637 40.92363357543945 C 11.26200294494629 40.92363357543945 11.49427318572998 41.02006530761719 11.66842269897461 41.19515609741211 L 13.87024593353271 43.39698791503906 L 22.01599311828613 41.98035430908203 C 22.12247276306152 41.96186447143555 22.23108291625977 41.95249557495117 22.33893203735352 41.95249557495117 C 22.78200340270996 41.95249557495117 23.21273231506348 42.10965347290039 23.55177307128906 42.39502334594727 C 23.97856330871582 42.75433349609375 24.22332191467285 43.28007507324219 24.22332191467285 43.83747482299805 C 24.22332191467285 44.50512313842773 23.86510276794434 45.12872314453125 23.2884521484375 45.46491622924805 L 14.04664325714111 50.85639572143555 C 13.75845241546631 51.02455520629883 13.4301929473877 51.11345291137695 13.09739303588867 51.11345291137695 Z M 7.701723098754883 46.85446548461914 L 8.048982620239258 46.85446548461914 C 8.192502975463867 46.85446548461914 8.335883140563965 46.88846588134766 8.463623046875 46.95277404785156 L 13.08080291748047 49.2613639831543 C 13.08629322052002 49.26410293579102 13.09231281280518 49.26560592651367 13.09823322296143 49.26560592651367 C 13.10443305969238 49.26560592651367 13.11041259765625 49.26394271850586 13.11601257324219 49.26067352294922 L 22.35764312744141 43.86905288696289 C 22.36843299865723 43.86277389526367 22.37606239318848 43.84938430786133 22.37606239318848 43.83705520629883 C 22.37606239318848 43.82583618164062 22.37137222290039 43.81595611572266 22.36249351501465 43.80849456787109 C 22.35492324829102 43.80211639404297 22.34786224365234 43.79939270019531 22.33963203430176 43.79939270019531 C 22.33720207214355 43.79939270019531 22.33461380004883 43.79962539672852 22.33194351196289 43.80009460449219 L 15.41128349304199 45.00381851196289 C 15.63223552703857 45.34402465820312 15.75071239471436 45.74111175537109 15.75071239471436 46.15643310546875 C 15.75071239471436 47.32632446289062 14.79894256591797 48.27809524536133 13.62905311584473 48.27809524536133 C 13.06223297119141 48.27809524536133 12.52940273284912 48.05743408203125 12.12873268127441 47.65675354003906 L 9.937712669372559 45.46573638916016 L 9.584162712097168 45.11218643188477 L 9.937703132629395 44.75863265991211 L 10.53671264648438 44.15961456298828 L 10.89027309417725 43.80605316162109 L 11.24382305145264 44.15961456298828 L 13.43484306335449 46.35063552856445 C 13.48506259918213 46.40085601806641 13.55766296386719 46.43083572387695 13.62905311584473 46.43083572387695 C 13.78035259246826 46.43083572387695 13.90344333648682 46.30773544311523 13.90344333648682 46.15643310546875 C 13.90344333648682 46.08504486083984 13.87347316741943 46.01245498657227 13.82326316833496 45.96225357055664 L 10.63192176818848 42.7708854675293 L 7.701723098754883 42.7708854675293 L 7.701723098754883 46.85446548461914 Z M 1.347262859344482 47.27809524536133 L 4.159942626953125 47.27809524536133 L 4.159942626953125 42.34726333618164 L 1.347262859344482 42.34726333618164 L 1.347262859344482 47.27809524536133 Z"/><path class="d" d="M 13.09739303588867 50.61345291137695 C 13.3384428024292 50.61345291137695 13.57906246185303 50.55033493041992 13.79469299316406 50.42451477050781 L 23.03662300109863 45.03296279907227 C 23.46025276184082 44.78598403930664 23.72332191467285 44.32804489135742 23.72332191467285 43.83747482299805 C 23.72332191467285 43.42782592773438 23.54328346252441 43.04147338867188 23.22979354858398 42.77755355834961 C 22.91673278808594 42.51405334472656 22.50410842895508 42.40306091308594 22.10166358947754 42.47296524047852 L 13.70022296905518 43.93406295776367 L 11.3139123916626 41.54775619506836 C 11.23469257354736 41.46810531616211 11.12708282470703 41.42363357543945 11.01440238952637 41.42363357543945 L 7.201723098754883 41.42363357543945 C 7.201723098754883 41.18936538696289 7.012362957000732 41.00000381469727 6.778092861175537 41.00000381469727 L 0.4236328601837158 41.00000381469727 C 0.1893628686666489 41.00000381469727 2.864685029635439e-06 41.18936538696289 2.864685029635439e-06 41.42363357543945 L 2.864685029635439e-06 48.20172500610352 C 2.864685029635439e-06 48.43598556518555 0.1893628686666489 48.6253547668457 0.4236328601837158 48.6253547668457 L 6.778092861175537 48.6253547668457 C 7.012362957000732 48.6253547668457 7.201723098754883 48.43598556518555 7.201723098754883 48.20172500610352 L 7.949012756347656 48.20172500610352 L 12.47804260253906 50.46645355224609 C 12.67376327514648 50.56431579589844 12.88600254058838 50.61345291137695 13.09739303588867 50.61345291137695 M 7.201723098754883 42.2708854675293 L 10.83902263641357 42.2708854675293 L 14.17680263519287 45.60868453979492 C 14.32084274291992 45.75271606445312 14.40344333648682 45.95224380493164 14.40344333648682 46.15643310546875 C 14.40344333648682 46.58345413208008 14.05607318878174 46.93083572387695 13.62905311584473 46.93083572387695 C 13.42528247833252 46.93083572387695 13.22533321380615 46.84822463989258 13.0812931060791 46.70418548583984 L 10.89027309417725 44.51316452026367 L 10.29126262664795 45.11218643188477 L 12.4822826385498 47.30320358276367 C 12.7885627746582 47.6094856262207 13.1956729888916 47.77809524536133 13.62905311584473 47.77809524536133 C 14.52291297912598 47.77809524536133 15.25071239471436 47.05029296875 15.25071239471436 46.15643310546875 C 15.25071239471436 45.72348403930664 15.08210277557373 45.31594467163086 14.77582263946533 45.00966644287109 L 14.43268299102783 44.66652297973633 L 22.24612236022949 43.30751419067383 C 22.40413856506348 43.27999114990234 22.56258201599121 43.32318496704102 22.68416213989258 43.42570495605469 C 22.8061637878418 43.52822494506836 22.87606239318848 43.67819595336914 22.87606239318848 43.83705520629883 C 22.87606239318848 44.02726364135742 22.77397346496582 44.20518493652344 22.6096019744873 44.30093383789062 L 13.36809253692627 49.69248580932617 C 13.21135330200195 49.78398895263672 13.02029418945312 49.78991317749023 12.85719299316406 49.70857620239258 L 8.238772392272949 47.39936447143555 C 8.179883003234863 47.36971282958984 8.114652633666992 47.35446548461914 8.048982620239258 47.35446548461914 L 7.201723098754883 47.35446548461914 L 7.201723098754883 42.2708854675293 M 5.507203102111816 41.84726333618164 L 6.35446310043335 41.84726333618164 L 6.35446310043335 47.77809524536133 L 5.507203102111816 47.77809524536133 L 5.507203102111816 41.84726333618164 M 0.8472628593444824 41.84726333618164 L 4.659942626953125 41.84726333618164 L 4.659942626953125 47.77809524536133 L 0.8472628593444824 47.77809524536133 L 0.8472628593444824 41.84726333618164 M 13.09739303588867 51.61345291137695 C 12.73011302947998 51.61345291137695 12.36130332946777 51.52611541748047 12.03083324432373 51.36088562011719 L 7.764360904693604 49.22744750976562 C 7.508313655853271 49.47373580932617 7.160574436187744 49.6253547668457 6.778092861175537 49.6253547668457 L 0.4236328601837158 49.6253547668457 C -0.3613571226596832 49.6253547668457 -0.9999971389770508 48.98671340942383 -0.9999971389770508 48.20172500610352 L -0.9999971389770508 41.42363357543945 C -0.9999971389770508 40.63864517211914 -0.3613571226596832 40.00000381469727 0.4236328601837158 40.00000381469727 L 6.778092861175537 40.00000381469727 C 7.173702239990234 40.00000381469727 7.532172203063965 40.16223907470703 7.790427684783936 40.42363357543945 L 11.01440238952637 40.42363357543945 C 11.39607334136963 40.42363357543945 11.75424289703369 40.57241439819336 12.02293300628662 40.84256362915039 L 14.04029178619385 42.85991668701172 L 21.93032264709473 41.48775482177734 C 22.06511306762695 41.4643440246582 22.20251274108887 41.45249557495117 22.33893203735352 41.45249557495117 C 22.89963340759277 41.45249557495117 23.4447135925293 41.65137481689453 23.87374305725098 42.01249313354492 C 24.41369247436523 42.46705627441406 24.72332191467285 43.1322135925293 24.72332191467285 43.83747482299805 C 24.72332191467285 44.68231582641602 24.2700138092041 45.471435546875 23.540283203125 45.89686584472656 L 14.29859256744385 51.28827285766602 C 13.93404293060303 51.50099563598633 13.51864242553711 51.61345291137695 13.09739303588867 51.61345291137695 Z M 8.201723098754883 46.36276626586914 C 8.370922088623047 46.38114929199219 8.536791801452637 46.42981338500977 8.688472747802734 46.50618362426758 L 11.86104011535645 48.09246444702148 C 11.83190631866455 48.06580352783203 11.80327701568604 48.03841781616211 11.77517318725586 48.01031494140625 L 8.877053260803223 45.1121940612793 L 10.57157135009766 43.41764450073242 L 10.42481136322021 43.2708854675293 L 8.201723098754883 43.2708854675293 L 8.201723098754883 46.36276626586914 Z M 16.13608741760254 45.38526153564453 C 16.21160125732422 45.63191223144531 16.25071334838867 45.89113998413086 16.25071334838867 46.15643310546875 C 16.25071334838867 46.42156982421875 16.21117210388184 46.67756652832031 16.13764190673828 46.91897583007812 L 19.88388442993164 44.73339462280273 L 16.13608741760254 45.38526153564453 Z M 1.847262859344482 46.77809524536133 L 3.659942865371704 46.77809524536133 L 3.659942865371704 42.84726333618164 L 1.847262859344482 42.84726333618164 L 1.847262859344482 46.77809524536133 Z"/></g><g class="a" transform="translate(-9.222)"><path class="c" d="M 24.89624786376953 18.2924976348877 C 19.71513748168945 18.2924976348877 15.49999809265137 14.07735729217529 15.49999809265137 8.896246910095215 C 15.49999809265137 3.715137004852295 19.71513748168945 -0.5000030994415283 24.89624786376953 -0.5000030994415283 C 30.07735824584961 -0.5000030994415283 34.29249954223633 3.715137004852295 34.29249954223633 8.896246910095215 C 34.29249954223633 14.07735729217529 30.07735824584961 18.2924976348877 24.89624786376953 18.2924976348877 Z M 24.89624786376953 1.347256898880005 C 20.73371696472168 1.347256898880005 17.34725761413574 4.73371696472168 17.34725761413574 8.896246910095215 C 17.34725761413574 13.05877685546875 20.73371696472168 16.44523620605469 24.89624786376953 16.44523620605469 C 29.05876731872559 16.44523620605469 32.44522857666016 13.05877685546875 32.44522857666016 8.896246910095215 C 32.44522857666016 4.73371696472168 29.05876731872559 1.347256898880005 24.89624786376953 1.347256898880005 Z"/><path class="d" d="M 24.89624786376953 17.7924976348877 C 29.80146789550781 17.7924976348877 33.79249954223633 13.8014669418335 33.79249954223633 8.896246910095215 C 33.79249954223633 3.991026878356934 29.80146789550781 -3.089904794251197e-06 24.89624786376953 -3.089904794251197e-06 C 19.99102783203125 -3.089904794251197e-06 15.99999809265137 3.991026878356934 15.99999809265137 8.896246910095215 C 15.99999809265137 13.8014669418335 19.99102783203125 17.7924976348877 24.89624786376953 17.7924976348877 M 24.89624786376953 0.8472568988800049 C 29.33462715148926 0.8472568988800049 32.94522857666016 4.45786714553833 32.94522857666016 8.896246910095215 C 32.94522857666016 13.33462715148926 29.33462715148926 16.94523620605469 24.89624786376953 16.94523620605469 C 20.4578685760498 16.94523620605469 16.84725761413574 13.33462715148926 16.84725761413574 8.896246910095215 C 16.84725761413574 4.45786714553833 20.4578685760498 0.8472568988800049 24.89624786376953 0.8472568988800049 M 24.89624786376953 18.7924976348877 C 19.43943786621094 18.7924976348877 14.99999809265137 14.35305690765381 14.99999809265137 8.896246910095215 C 14.99999809265137 3.439436912536621 19.43943786621094 -1.000003099441528 24.89624786376953 -1.000003099441528 C 30.35305786132812 -1.000003099441528 34.79249954223633 3.439436912536621 34.79249954223633 8.896246910095215 C 34.79249954223633 14.35305690765381 30.35305786132812 18.7924976348877 24.89624786376953 18.7924976348877 Z M 24.89624786376953 1.847256898880005 C 21.00941848754883 1.847256898880005 17.84725761413574 5.009417057037354 17.84725761413574 8.896246910095215 C 17.84725761413574 12.78307723999023 21.00941848754883 15.945237159729 24.89624786376953 15.945237159729 C 28.78306770324707 15.945237159729 31.94522857666016 12.78307723999023 31.94522857666016 8.896246910095215 C 31.94522857666016 5.009417057037354 28.78306770324707 1.847256898880005 24.89624786376953 1.847256898880005 Z"/></g><g class="a" transform="translate(-11.527 -2.305)"><path class="c" d="M 27.20172500610352 18.90344429016113 C 22.95498466491699 18.90344429016113 19.5000057220459 15.44846439361572 19.5000057220459 11.2017240524292 C 19.5000057220459 6.954984188079834 22.95498466491699 3.500004053115845 27.20172500610352 3.500004053115845 C 31.4484748840332 3.500004053115845 34.9034538269043 6.954984188079834 34.9034538269043 11.2017240524292 C 34.9034538269043 15.44846439361572 31.4484748840332 18.90344429016113 27.20172500610352 18.90344429016113 Z M 27.20172500610352 5.347264289855957 C 23.97356414794922 5.347264289855957 21.34726524353027 7.973564147949219 21.34726524353027 11.2017240524292 C 21.34726524353027 14.42988395690918 23.97356414794922 17.05618476867676 27.20172500610352 17.05618476867676 C 30.42988586425781 17.05618476867676 33.05618667602539 14.42988395690918 33.05618667602539 11.2017240524292 C 33.05618667602539 7.973564147949219 30.42988586425781 5.347264289855957 27.20172500610352 5.347264289855957 Z"/><path class="d" d="M 27.20172500610352 18.40344429016113 C 31.1728343963623 18.40344429016113 34.4034538269043 15.1728343963623 34.4034538269043 11.2017240524292 C 34.4034538269043 7.23060417175293 31.1728343963623 4.000003814697266 27.20172500610352 4.000003814697266 C 23.23060417175293 4.000003814697266 20.0000057220459 7.23060417175293 20.0000057220459 11.2017240524292 C 20.0000057220459 15.1728343963623 23.23060417175293 18.40344429016113 27.20172500610352 18.40344429016113 M 27.20172500610352 4.847264289855957 C 30.70557594299316 4.847264289855957 33.55618667602539 7.697874069213867 33.55618667602539 11.2017240524292 C 33.55618667602539 14.70557403564453 30.70557594299316 17.55618476867676 27.20172500610352 17.55618476867676 C 23.69787406921387 17.55618476867676 20.84726524353027 14.70557403564453 20.84726524353027 11.2017240524292 C 20.84726524353027 7.697874069213867 23.69787406921387 4.847264289855957 27.20172500610352 4.847264289855957 M 27.20172500610352 19.40344429016113 C 22.67928504943848 19.40344429016113 19.0000057220459 15.72416400909424 19.0000057220459 11.2017240524292 C 19.0000057220459 6.67928409576416 22.67928504943848 3.000004053115845 27.20172500610352 3.000004053115845 C 31.72417449951172 3.000004053115845 35.4034538269043 6.67928409576416 35.4034538269043 11.2017240524292 C 35.4034538269043 15.72416400909424 31.72417449951172 19.40344429016113 27.20172500610352 19.40344429016113 Z M 27.20172500610352 5.847264289855957 C 24.24926567077637 5.847264289855957 21.84726524353027 8.249263763427734 21.84726524353027 11.2017240524292 C 21.84726524353027 14.15418434143066 24.24926567077637 16.55618476867676 27.20172500610352 16.55618476867676 C 30.15418434143066 16.55618476867676 32.55618667602539 14.15418434143066 32.55618667602539 11.2017240524292 C 32.55618667602539 8.249263763427734 30.15418434143066 5.847264289855957 27.20172500610352 5.847264289855957 Z"/></g><g transform="translate(-148.884 -32.675)"><g transform="translate(162.256 38.166)"><g transform="translate(0)"><path class="b" d="M164.777,38.439v2.268a1.69,1.69,0,0,1,0,.2l.01-.072a.639.639,0,0,1-.041.152l.027-.065a.7.7,0,0,1-.09.154l.042-.055a.78.78,0,0,1-.127.127l.055-.042a.814.814,0,0,1-.175.1l.065-.027a.785.785,0,0,1-.187.052l.072-.01a3.079,3.079,0,0,1-.4.007h-1.495a.273.273,0,0,0-.271.271.348.348,0,0,0,.051.217l.065.086.258.342.834,1.1.877,1.16.465.615.006.009a.3.3,0,0,0,.162.125.271.271,0,0,0,.333-.189.26.26,0,0,0-.027-.209l-.385-.509-.852-1.127-.863-1.142-.419-.554v0l.037.137V41.5l-.271.271h1.809a1.051,1.051,0,0,0,.656-.255.928.928,0,0,0,.206-.247.918.918,0,0,0,.115-.364,1.1,1.1,0,0,0,0-.133V38.439a.271.271,0,0,0-.542,0Z" transform="translate(-162.257 -38.168)"/></g></g><g transform="translate(162.256 39.658)"><g transform="translate(0 0)"><path class="b" d="M166.59,230.947h-4.063a.271.271,0,1,0,0,.542h4.063a.271.271,0,1,0,0-.542Z" transform="translate(-162.256 -230.947)"/></g></g><g transform="translate(162.256 38.166)"><g transform="translate(0 0)"><path class="b" d="M162.527,38.708h4.063a.271.271,0,0,0,0-.542h-4.063a.271.271,0,0,0,0,.542Z" transform="translate(-162.256 -38.166)"/></g></g></g></g></svg>