<svg xmlns="http://www.w3.org/2000/svg" width="221.873" height="197.989" viewBox="0 0 221.873 197.989"><defs><style>.a{fill:#f2f2f2;}.b{fill:#fff;}.c{fill:#ccc;}.d{fill:#696f7b;}.e{fill:#3f3d56;}.f{fill:#a0616a;}.g{fill:#2f2e41;}.h{opacity:0.2;}</style></defs><g transform="translate(0 0)"><path class="a" d="M319.624,660.161a101.916,101.916,0,0,1-.961,13.1c-.021.152-.044.3-.065.457l-41.032-.229c-.12-.151-.239-.3-.354-.46-.383-.513-.742-1.041-1.072-1.586-1.584-2.63-2.309-5.708-1.583-7.832l.013-.033a3.727,3.727,0,0,1,.727-1.264c1.657-1.865,5.007-1.554,8.048-.049-2.727-2.985-4.9-6.752-5.063-10.114-.162-3.279,1.553-5.622,3.413-7.613.061-.066.122-.13.183-.194.03-.033.061-.064.091-.1,1.451-1.517,3.143-3.013,5.592-2.832,2.686.2,5.663,2.448,7.751,5.07a43.832,43.832,0,0,1,4.881,8.5,34.3,34.3,0,0,0,5.191,8.359c-3.06-3.871-5.528-8.275-6.439-12.558s-.109-8.4,2.618-10.415a6.379,6.379,0,0,1,2.794-1.127c.118-.02.237-.035.359-.049a11.2,11.2,0,0,1,8.1,2.673,18.657,18.657,0,0,1,5.757,8.94A30.49,30.49,0,0,1,319.624,660.161Z" transform="translate(-274.275 -475.726)"/><path class="b" d="M293.757,720.9l-.785,0q-.374-.234-.751-.462c-.156-.1-.313-.193-.471-.289q-3.9-2.384-7.856-4.574t-7.938-4.181a.329.329,0,0,1-.189-.376.094.094,0,0,1,.013-.028c.037-.07.12-.1.241-.039.326.164.654.327.98.494q4,2.024,7.965,4.249t7.88,4.646l.165.1Z" transform="translate(-275.253 -523.06)"/><path class="b" d="M317.247,683.7l-.485,0-.326-.459-7.711-10.816q-6.313-8.854-12.622-17.707a.312.312,0,0,1-.055-.107c-.036-.131.06-.207.183-.194a.369.369,0,0,1,.256.163l7.077,9.927,12.558,17.617.8,1.12C317.031,683.392,317.14,683.545,317.247,683.7Z" transform="translate(-288.627 -485.798)"/><path class="b" d="M371.944,670.748c-.025.818-.079,1.622-.15,2.419l-.041.457-.509,0c.016-.152.031-.3.045-.457.108-1.152.184-2.316.194-3.513a49,49,0,0,0-.965-9.878,61.5,61.5,0,0,0-2.988-10.262,70.472,70.472,0,0,0-4.889-10.153.271.271,0,0,1-.045-.18c.021-.145.214-.188.359-.049a.419.419,0,0,1,.073.092q.352.606.692,1.215a70.432,70.432,0,0,1,4.679,10.189,61.212,61.212,0,0,1,2.786,10.278A48.348,48.348,0,0,1,371.944,670.748Z" transform="translate(-332.515 -475.665)"/><path class="c" d="M713.725,165.81a6.471,6.471,0,1,1,6.471,6.471A6.471,6.471,0,0,1,713.725,165.81Zm12.261,0a5.79,5.79,0,1,0-5.79,5.79,5.79,5.79,0,0,0,5.79-5.79Z" transform="translate(-564.056 -159.339)"/><circle class="d" cx="3.746" cy="3.746" r="3.746" transform="translate(152.394 2.725)"/><circle class="c" cx="6.13" cy="6.13" r="6.13" transform="translate(128.213 0.341)"/><circle class="c" cx="6.13" cy="6.13" r="6.13" transform="translate(106.415 0.341)"/><path class="e" d="M594.843,324H438.515a5.8,5.8,0,0,1-5.79-5.79V236.129a5.8,5.8,0,0,1,5.79-5.79H594.843a5.8,5.8,0,0,1,5.79,5.79v82.081A5.8,5.8,0,0,1,594.843,324ZM438.515,231.02a5.115,5.115,0,0,0-5.109,5.109v82.081a5.115,5.115,0,0,0,5.109,5.109H594.843a5.115,5.115,0,0,0,5.109-5.109V236.129a5.115,5.115,0,0,0-5.109-5.109Z" transform="translate(-378.76 -206.158)"/><path class="c" d="M516.7,341.108H476.515a5.8,5.8,0,0,1-5.79-5.79V295.129a5.8,5.8,0,0,1,5.79-5.79H516.7a5.8,5.8,0,0,1,5.79,5.79v40.189A5.8,5.8,0,0,1,516.7,341.108ZM476.515,290.02a5.115,5.115,0,0,0-5.109,5.109v40.189a5.115,5.115,0,0,0,5.109,5.109H516.7a5.115,5.115,0,0,0,5.109-5.109V295.129a5.115,5.115,0,0,0-5.109-5.109Z" transform="translate(-403.817 -245.063)"/><path class="c" d="M741.751,342.788H664.438a2.725,2.725,0,0,1,0-5.449h77.312a2.725,2.725,0,1,1,0,5.449Z" transform="translate(-529.758 -276.715)"/><path class="c" d="M702.584,308.788H664.438a2.725,2.725,0,0,1,0-5.449h38.145a2.725,2.725,0,0,1,0,5.449Z" transform="translate(-529.758 -254.295)"/><path class="c" d="M741.751,409.788H664.438a2.725,2.725,0,0,1,0-5.449h77.312a2.725,2.725,0,1,1,0,5.449Z" transform="translate(-529.758 -320.896)"/><path class="c" d="M702.584,375.788H664.438a2.725,2.725,0,0,1,0-5.449h38.145a2.725,2.725,0,0,1,0,5.449Z" transform="translate(-529.758 -298.476)"/><path class="c" d="M524.564,341.765a.339.339,0,0,1-.242-.1l-47.551-48.192a.341.341,0,1,1,.485-.478l47.551,48.192a.341.341,0,0,1-.242.58Z" transform="translate(-407.739 -247.406)"/><path class="c" d="M475.5,341.765a.341.341,0,0,1-.242-.58l47.55-48.192a.341.341,0,1,1,.485.478l-47.55,48.192a.339.339,0,0,1-.242.1Z" transform="translate(-406.742 -247.406)"/><path class="d" d="M837.3,455.4H815.5a5.279,5.279,0,1,1,0-10.558h21.8a5.279,5.279,0,1,1,0,10.558Z" transform="translate(-627.689 -347.602)"/><path class="e" d="M281.971,739.245H384.487a.341.341,0,0,0,0-.681H281.971a.341.341,0,1,0,0,.681Z" transform="translate(-279.125 -541.289)"/><path class="f" d="M196.283,538.59h4.176l1.986-16.105h-6.163Z" transform="translate(-129.432 -344.535)"/><path class="g" d="M0,0H13.123V5.07H5.07A5.07,5.07,0,0,1,0,0Z" transform="translate(79.078 197.932) rotate(179.997)"/><path class="f" d="M107.329,527.521l3.8,1.735,8.5-13.824-5.606-2.56Z" transform="translate(-70.775 -338.196)"/><path class="g" d="M0,0H13.123V5.07H5.07A5.07,5.07,0,0,1,0,0H0Z" transform="translate(46.065 197.933) rotate(-155.452)"/><path class="f" d="M407.274,537.952a3.425,3.425,0,0,1-.273-5.245l-4.908-11.137,6.236,1.057,3.705,10.414a3.443,3.443,0,0,1-4.759,4.911Z" transform="translate(-358.56 -398.2)"/><path class="g" d="M414.508,596.881,410.5,561.895a1.192,1.192,0,0,0-2.351-.106l-1.986,9.568a1.523,1.523,0,0,1-.138.389L394.4,594.35a1.533,1.533,0,0,1-1.893.737l-4.042-1.489a1.532,1.532,0,0,1-.9-1.989l9.463-24.54a1.189,1.189,0,0,0,.08-.406l.483-25.624a1.533,1.533,0,0,1,1.384-1.5l25.113-2.45a1.533,1.533,0,0,1,1.677,1.636l-4.219,58.089a1.538,1.538,0,0,1-1.529,1.422h-3.989a1.532,1.532,0,0,1-1.523-1.359Z" transform="translate(-348.914 -408.431)"/><circle class="f" cx="8.365" cy="8.365" r="8.365" transform="translate(56.766 68.147)"/><path class="d" d="M440.316,418.469q-.343-.164-.682-.316h0a16.938,16.938,0,0,0-17.036,1.84,14.375,14.375,0,0,0-5.892,13.707c1.5,11.366-.217,26.785-.4,28.32,13.751,6.323,25.816-1.627,26.886-2.365Z" transform="translate(-367.936 -329.022)"/><path class="d" d="M398.714,480.552a1.529,1.529,0,0,1-1.154-.883l-7.019-15.553a3.9,3.9,0,0,1,.235-3.655l8.62-13.987a2.83,2.83,0,0,1,5.047,2.558l-6.376,13.391,4.191,14.184a1.54,1.54,0,0,1-.34,1.47l-1.83,2a1.528,1.528,0,0,1-1.128.5,1.555,1.555,0,0,1-.244-.02Z" transform="translate(-350.714 -347.7)"/><path class="h" d="M470.07,489.536l-1.3-25.953.337-.044,5.834,27.452H471.6A1.531,1.531,0,0,1,470.07,489.536Z" transform="translate(-402.53 -359.934)"/><path class="f" d="M482.928,531.074a3.425,3.425,0,0,1,.822-5.187l-2.489-11.913,5.88,2.328,1.462,10.956a3.443,3.443,0,0,1-5.675,3.816Z" transform="translate(-410.765 -393.191)"/><path class="d" d="M473.183,461.433l-4.914-32.762,0-.031.95-4.37a4.607,4.607,0,0,1,9.105.789l1.475,35.687a1.538,1.538,0,0,1-1.362,1.586l-3.564.4a1.6,1.6,0,0,1-.173.01A1.527,1.527,0,0,1,473.183,461.433Z" transform="translate(-402.194 -331.647)"/><path class="g" d="M442.426,368.591a6.025,6.025,0,0,1-5.408-3.477h0a12.269,12.269,0,0,1-1.281-3.884,13.886,13.886,0,0,1,3.107-8.64c2.067-2.376,5.338-2.707,8.5-3.028.864-.088,1.758-.178,2.6-.31a4.9,4.9,0,0,1,2.4.032,1.739,1.739,0,0,1,1,.945.6.6,0,0,0,.337.337.51.51,0,0,0,.409-.019.915.915,0,0,1,.829,0,.8.8,0,0,1,.433.589.844.844,0,0,0,.079.247.977.977,0,0,0,.638.483.863.863,0,0,1,.671.924c-.051.43-.073.893-.094,1.342-.079,1.688-.16,3.432-1.857,3.4a4.882,4.882,0,0,1-1.277-.225,1.9,1.9,0,0,0-1.754.1c-1.005.627-1.169,1.937-1.314,3.092l-.025.2c-.169,1.322-.868,2.913-2.28,3.046a3.284,3.284,0,0,1-1.312-.228,2.351,2.351,0,0,0-1.368-.164,1.884,1.884,0,0,0-1.117,1.949,7.587,7.587,0,0,0,.126.977,5.206,5.206,0,0,1,.108,1.558c-.04.317-.4.526-1.147.658A5.745,5.745,0,0,1,442.426,368.591Z" transform="translate(-380.733 -284.482)"/></g></svg>