<svg xmlns="http://www.w3.org/2000/svg" width="29.365" height="17.788" viewBox="0 0 29.365 17.788"><defs><style>.a{fill:#696f7b;}.b,.c{stroke:none;}.c{fill:#696f7b;}</style></defs><g transform="translate(0.2 0.2)"><g class="a" transform="translate(-5.013 -22.98)"><path class="b" d="M 32.02627182006836 40.46816635131836 C 30.89513397216797 40.46816635131836 29.97488403320312 39.55694580078125 29.97488403320312 38.43689727783203 C 29.97488403320312 37.47089004516602 30.65516471862793 36.64946746826172 31.60438346862793 36.45273590087891 L 31.60438346862793 28.73845291137695 L 18.68841361999512 23.74773788452148 L 6.493290901184082 28.45859336853027 L 18.67834854125977 33.15952682495117 L 29.16374397277832 29.10971641540527 C 29.2126636505127 29.09095573425293 29.26360321044922 29.08149528503418 29.31538391113281 29.08149528503418 C 29.48944282531738 29.08149528503418 29.64826393127441 29.19072532653809 29.7105827331543 29.35328674316406 C 29.79411315917969 29.5711669921875 29.6848030090332 29.81637573242188 29.46692276000977 29.8998966217041 L 27.23768424987793 30.76029777526855 L 27.23773384094238 36.002685546875 C 27.23649406433105 36.16857528686523 27.13817405700684 36.31865692138672 26.98726272583008 36.38576507568359 L 18.83758354187012 39.78652572631836 C 18.78606414794922 39.80736541748047 18.73283386230469 39.81771469116211 18.67836380004883 39.81771469116211 C 18.62389373779297 39.81771469116211 18.5706729888916 39.80736541748047 18.52017402648926 39.78694534301758 L 10.38161373138428 36.38665771484375 C 10.22605323791504 36.32377624511719 10.12255382537842 36.1737174987793 10.11900329589844 36.00478744506836 L 10.11898326873779 30.75025939941406 L 5.173783302307129 28.84366607666016 C 5.01404333114624 28.77652549743652 4.912643432617188 28.62387657165527 4.912643432617188 28.45362663269043 C 4.912643432617188 28.28337669372559 5.01404333114624 28.1307258605957 5.17098331451416 28.06471633911133 L 18.52457046508789 22.91629219055176 C 18.53911399841309 22.90810966491699 18.55422592163086 22.90074729919434 18.56960296630859 22.89436531066895 L 18.57865333557129 22.89060592651367 L 18.5882625579834 22.88867568969727 C 18.61555290222168 22.8831958770752 18.64350318908691 22.88041687011719 18.67134284973145 22.88041687011719 C 18.7292537689209 22.88041687011719 18.78558349609375 22.89206695556641 18.83874320983887 22.91504669189453 L 32.1829719543457 28.06359672546387 C 32.34646224975586 28.12972640991211 32.44995498657227 28.28496551513672 32.44814300537109 28.45968627929688 L 32.44815444946289 36.45273590087891 C 33.39737319946289 36.64946746826172 34.07765197753906 37.47089004516602 34.07765197753906 38.43689727783203 C 34.07765197753906 39.55694580078125 33.15740203857422 40.46816635131836 32.02627182006836 40.46816635131836 Z M 32.02627182006836 37.23931503295898 C 31.36038398742676 37.23931503295898 30.81863403320312 37.77654647827148 30.81863403320312 38.43689727783203 C 30.81863403320312 39.09169769287109 31.36038398742676 39.62441635131836 32.02627182006836 39.62441635131836 C 32.69780349731445 39.62441635131836 33.22384262084961 39.1027946472168 33.22384262084961 38.43689727783203 C 33.22384262084961 37.77654647827148 32.68661499023438 37.23931503295898 32.02627182006836 37.23931503295898 Z M 10.96274375915527 35.7148323059082 L 18.67836380004883 38.94208526611328 L 26.39398384094238 35.7148323059082 L 26.39398384094238 31.07883262634277 L 18.83505249023438 33.99371719360352 C 18.78644371032715 34.01243591308594 18.73543357849121 34.02191543579102 18.68339347839355 34.02191543579102 C 18.6313533782959 34.02191543579102 18.58035278320312 34.01243591308594 18.53178405761719 33.99373626708984 L 10.96274375915527 31.07876968383789 L 10.96274375915527 35.7148323059082 Z"/><path class="c" d="M 18.67134284973145 22.98041152954102 C 18.6501636505127 22.98041152954102 18.62893295288086 22.98250198364258 18.60795402526855 22.98671722412109 C 18.59408378601074 22.99247741699219 18.58064270019531 22.99919509887695 18.56771278381348 23.0068359375 L 5.209754943847656 28.15689468383789 C 5.090324401855469 28.20712661743164 5.012653350830078 28.32406616210938 5.012653350830078 28.4536247253418 C 5.012653350830078 28.58318710327148 5.090324401855469 28.70012664794922 5.209754943847656 28.7503547668457 L 10.2189826965332 30.68163681030273 C 10.21851348876953 30.69168472290039 10.21851348876953 30.70175552368164 10.2189826965332 30.71180725097656 L 10.2189826965332 36.002685546875 C 10.22168350219727 36.13139343261719 10.30080413818359 36.24613571166992 10.42016410827637 36.29438781738281 L 18.55766296386719 39.69423675537109 C 18.63508224487305 39.72554397583008 18.72164344787598 39.72554397583008 18.79906272888184 39.69423675537109 L 26.94662475585938 36.29439544677734 C 27.06203460693359 36.24306488037109 27.13678359985352 36.12899780273438 27.13773345947266 36.002685546875 L 27.13773345947266 30.71180725097656 C 27.13794326782227 30.70510482788086 27.13794326782227 30.69839477539062 27.13773345947266 30.69168472290039 L 29.43112373352051 29.80652618408203 C 29.59778213500977 29.74263763427734 29.68110275268555 29.55574798583984 29.61721420288086 29.38908767700195 C 29.55332183837891 29.2224235534668 29.36643218994141 29.13911437988281 29.19977378845215 29.20300674438477 L 18.67836380004883 33.26671600341797 L 6.215621948242188 28.45865631103516 L 18.68842315673828 23.64053726196289 L 31.70438385009766 28.66989517211914 L 31.70438385009766 36.53579711914062 C 30.7820930480957 36.68870544433594 30.07488250732422 37.48341369628906 30.07488250732422 38.43689727783203 C 30.07488250732422 39.49870681762695 30.95226287841797 40.3681640625 32.02626419067383 40.3681640625 C 33.10028457641602 40.3681640625 33.97765350341797 39.49870681762695 33.97765350341797 38.43689727783203 C 33.97765350341797 37.48341369628906 33.27044296264648 36.68870544433594 32.34814453125 36.53579711914062 L 32.34814453125 28.45865631103516 C 32.34952545166016 28.32626724243164 32.26970291137695 28.20654678344727 32.14697265625 28.15689468383789 L 18.79906272888184 23.0068359375 C 18.7585334777832 22.98931503295898 18.71505165100098 22.98041152954102 18.67134284973145 22.98041152954102 M 18.68339347839355 33.92192077636719 C 18.72261619567871 33.92192077636719 18.76183891296387 33.91474914550781 18.79906272888184 33.90041351318359 L 26.49398422241211 30.93309783935547 L 26.49398422241211 35.78139495849609 L 18.67836380004883 39.05047607421875 L 10.86274337768555 35.78139495849609 L 10.86274337768555 30.93309783935547 L 18.56772422790527 33.90041351318359 C 18.60494804382324 33.91474914550781 18.6441707611084 33.92192077636719 18.68339347839355 33.92192077636719 M 32.02626419067383 39.72440338134766 C 31.30216407775879 39.72440338134766 30.7186336517334 39.15278625488281 30.7186336517334 38.43689727783203 C 30.7186336517334 37.72100830078125 31.30216407775879 37.13931655883789 32.02626419067383 37.13931655883789 C 32.75037384033203 37.13931655883789 33.32384490966797 37.72100830078125 33.32384490966797 38.43689727783203 C 33.32384490966797 39.15278625488281 32.75037384033203 39.72440338134766 32.02626419067383 39.72440338134766 M 18.67134284973145 22.78041458129883 C 18.74153709411621 22.78041458129883 18.8098316192627 22.79424667358398 18.87441062927246 22.82154083251953 L 32.21896362304688 27.97030639648438 C 32.42236328125 28.05255508422852 32.55038452148438 28.24459457397461 32.54813385009766 28.46073532104492 L 32.54814147949219 36.37287139892578 C 33.50198745727539 36.60757446289062 34.17765426635742 37.45034027099609 34.17765426635742 38.43689727783203 C 34.17765426635742 39.61208343505859 33.21254348754883 40.56816864013672 32.02626419067383 40.56816864013672 C 30.83999252319336 40.56816864013672 29.8748836517334 39.61208343505859 29.8748836517334 38.43689727783203 C 29.8748836517334 37.45034027099609 30.5505485534668 36.60757446289062 31.5043830871582 36.37287139892578 L 31.5043830871582 28.80703353881836 L 18.68840408325195 23.85494232177734 L 6.770969390869141 28.45853042602539 L 18.67832565307617 33.05233001708984 L 29.12771224975586 29.01643753051758 C 29.18831253051758 28.99319458007812 29.25130462646484 28.98150634765625 29.31539344787598 28.98150634765625 C 29.53058242797852 28.98150634765625 29.7269229888916 29.11653518676758 29.80396270751953 29.31749725341797 C 29.85398483276367 29.4479866027832 29.85019302368164 29.59013748168945 29.79329299926758 29.71777725219727 C 29.73639297485352 29.84541702270508 29.63320350646973 29.94325637817383 29.50271224975586 29.9932746887207 L 27.33773422241211 30.8288688659668 L 27.33773422241211 36.002685546875 C 27.3361930847168 36.20846557617188 27.21457290649414 36.39410400390625 27.02790451049805 36.47713470458984 L 18.87608337402344 39.87880706787109 C 18.74704360961914 39.93100357055664 18.60762405395508 39.93015289306641 18.48270416259766 39.87965393066406 L 10.34306335449219 36.47892761230469 C 10.15144348144531 36.40148544311523 10.02341270446777 36.21584701538086 10.01902389526367 36.00687408447266 L 10.01898384094238 30.81887817382812 L 5.132213592529297 28.93471527099609 C 4.938095092773438 28.85306549072266 4.812652587890625 28.66422653198242 4.812652587890625 28.4536247253418 C 4.812652587890625 28.24302673339844 4.938095092773438 28.0541877746582 5.132213592529297 27.97253799438477 L 5.137802124023438 27.97028732299805 L 18.48215866088867 22.82546997070312 C 18.49810218811035 22.81680679321289 18.51454734802246 22.80894088745117 18.5312442779541 22.80200576782227 L 18.54936408996582 22.79448699951172 L 18.568603515625 22.79062652587891 C 18.60236358642578 22.78384780883789 18.63693428039551 22.78041458129883 18.67134284973145 22.78041458129883 Z M 18.68339347839355 34.12191772460938 C 18.61903381347656 34.12191772460938 18.55593299865723 34.11018371582031 18.49586296081543 34.08705902099609 L 11.062744140625 31.22444152832031 L 11.062744140625 35.64825820922852 L 18.67836380004883 38.83368301391602 L 26.29398345947266 35.64825820922852 L 26.29398345947266 31.22457885742188 L 18.87102317810059 34.08702850341797 C 18.81083297729492 34.11019897460938 18.74774360656738 34.12191772460938 18.68339347839355 34.12191772460938 Z M 32.02626419067383 39.52440643310547 C 32.6417350769043 39.52440643310547 33.12384414672852 39.04671478271484 33.12384414672852 38.43689727783203 C 33.12384414672852 37.83168792724609 32.63147354125977 37.33931732177734 32.02626419067383 37.33931732177734 C 31.41551399230957 37.33931732177734 30.91863250732422 37.83168792724609 30.91863250732422 38.43689727783203 C 30.91863250732422 39.03655624389648 31.41551399230957 39.52440643310547 32.02626419067383 39.52440643310547 Z"/></g></g></svg>