<svg xmlns="http://www.w3.org/2000/svg" width="40" height="40" viewBox="0 0 40 40"><defs><style>.a{fill:#fff;}.b{fill:#696f7b;}</style></defs><rect class="a" width="40" height="40" rx="4"/><g transform="translate(8 10.472)"><path class="b" d="M11.745,0a7.6,7.6,0,0,1,7.7,7.2,5.541,5.541,0,0,1,3.584,5.081,5.311,5.311,0,0,1-5.067,5.326h-3.57a.518.518,0,1,1,0-1.022h3.469a4.318,4.318,0,0,0,4.03-4.318,4.865,4.865,0,0,0-1.022-2.735,3.728,3.728,0,0,0-3.008-1.554h-.792a.518.518,0,0,1,0-1.036H18.35a6.491,6.491,0,0,0-6.607-5.9A6.074,6.074,0,0,0,6.866,3.174,7.2,7.2,0,0,0,5.311,7.737v.806a.5.5,0,1,1-.993,0V8.068A3.987,3.987,0,0,0,2.274,9.262,4.318,4.318,0,0,0,1.08,12.285a4.548,4.548,0,0,0,1.209,2.879A3.915,3.915,0,0,0,5.167,16.6h3.9a2.3,2.3,0,0,0,1.684-.489,2.274,2.274,0,0,0,.475-1.713V8.931L9.471,10.673a.518.518,0,0,1-.36.158.561.561,0,0,1-.36-.144h0a.518.518,0,0,1,0-.734h0l2.375-2.375h0a.892.892,0,0,1,.619-.374.892.892,0,0,1,.619.317L14.739,9.9a.509.509,0,0,1-.72.72L12.263,8.931V14.4a3.31,3.31,0,0,1-.748,2.432,3.282,3.282,0,0,1-2.418.777H5.067a4.894,4.894,0,0,1-3.627-1.77A5.556,5.556,0,0,1,0,12.285a5.383,5.383,0,0,1,4.318-5.3,7.916,7.916,0,0,1,2.029-4.75A7.11,7.11,0,0,1,11.745,0Z" transform="translate(0 0.994)"/></g></svg>