<svg xmlns="http://www.w3.org/2000/svg" width="24.523" height="24.616" viewBox="0 0 24.523 24.616"><defs><style>.a,.b{fill:#696f7b;}.b{stroke:#fff;}.c,.d{stroke:none;}.d{fill:#fff;}.e{fill:none;}</style></defs><g transform="translate(1 1)"><g class="a" transform="translate(-5.5 -5.19)"><path class="c" d="M 8.605690956115723 23.41612243652344 C 8.605668067932129 23.41612243652344 8.605677604675293 23.41612243652344 8.605655670166016 23.41612243652344 C 7.889035224914551 23.41611289978027 7.327685356140137 22.8570613861084 7.327685356140137 22.14340209960938 L 7.327685356140137 19.53974151611328 L 5.526315212249756 19.53974151611328 C 5.236105442047119 19.53974151611328 4.999995231628418 19.30363273620605 4.999995231628418 19.0134220123291 L 4.999995231628418 5.941182136535645 C 4.999995231628418 5.25128173828125 5.561275005340576 4.690001964569092 6.251185417175293 4.690001964569092 L 23.13500595092773 4.690001964569092 C 23.82491493225098 4.690001964569092 24.38619613647461 5.25128173828125 24.38619613647461 5.941182136535645 L 24.38619613647461 13.76348209381104 C 24.38619613647461 14.05369186401367 24.15009498596191 14.28979206085205 23.85988426208496 14.28979206085205 L 22.90046501159668 14.28979206085205 C 22.61025428771973 14.28979206085205 22.37415504455566 14.05369186401367 22.37415504455566 13.76348209381104 L 22.37415504455566 6.953221797943115 C 22.37415504455566 6.814722061157227 22.261474609375 6.702042102813721 22.12297439575195 6.702042102813721 L 7.263225078582764 6.702042102813721 C 7.124715328216553 6.702042102813721 7.012035369873047 6.814722061157227 7.012035369873047 6.953221797943115 L 7.012035369873047 17.52770233154297 L 8.81341552734375 17.52770233154297 C 9.103625297546387 17.52770233154297 9.339725494384766 17.76380157470703 9.339725494384766 18.05401229858398 L 9.339725494384766 20.1446590423584 L 11.43028545379639 17.71124267578125 C 11.53225517272949 17.59394264221191 11.67706489562988 17.52795219421387 11.82953548431396 17.52795219421387 L 13.76455497741699 17.52795219421387 C 14.05476474761963 17.52795219421387 14.29086494445801 17.76405143737793 14.29086494445801 18.05426216125488 L 14.29086494445801 19.01368141174316 C 14.29086494445801 19.30389213562012 14.05476474761963 19.53999137878418 13.76455497741699 19.53999137878418 L 12.5124683380127 19.53999137878418 L 9.562755584716797 22.97203254699707 C 9.316750526428223 23.25837516784668 8.976814270019531 23.41612243652344 8.605690956115723 23.41612243652344 Z"/><path class="d" d="M 6.251184463500977 5.19000244140625 C 5.836244583129883 5.19000244140625 5.499994277954102 5.526252746582031 5.499994277954102 5.941181182861328 L 5.499994277954102 19.0134220123291 C 5.499994277954102 19.02784156799316 5.511634826660156 19.03974151611328 5.526315689086914 19.03974151611328 L 7.801374435424805 19.03974151611328 C 7.8157958984375 19.03974151611328 7.82768440246582 19.05137252807617 7.82768440246582 19.0660514831543 L 7.82768440246582 22.14340209960938 C 7.82768440246582 22.85890960693359 8.717514038085938 23.18858337402344 9.183565139770508 22.64613151550293 L 12.27508544921875 19.04909133911133 C 12.2801456451416 19.04328155517578 12.2872257232666 19.03999328613281 12.29507446289062 19.03999328613281 L 13.76455497741699 19.03999328613281 C 13.77922534942627 19.03999328613281 13.79086494445801 19.02810287475586 13.79086494445801 19.0136833190918 L 13.79086494445801 18.05426216125488 C 13.79086494445801 18.03984069824219 13.77922534942627 18.02795219421387 13.76455497741699 18.02795219421387 L 11.82953453063965 18.02795219421387 C 11.82194519042969 18.02795219421387 11.81460571289062 18.03124237060547 11.80954551696777 18.03706169128418 L 8.886024475097656 21.44003295898438 C 8.870088577270508 21.45876121520996 8.839727401733398 21.44737243652344 8.839725494384766 21.42308235168457 L 8.839725494384766 18.05401229858398 C 8.839725494384766 18.03959274291992 8.827835083007812 18.02770233154297 8.81341552734375 18.02770233154297 L 6.538354873657227 18.02770233154297 C 6.523675918579102 18.02770233154297 6.512035369873047 18.01581192016602 6.512035369873047 18.00138092041016 L 6.512035369873047 6.953222274780273 C 6.512035369873047 6.538291931152344 6.848285675048828 6.202041625976562 7.263225555419922 6.202041625976562 L 22.12297439575195 6.202041625976562 C 22.53790473937988 6.202041625976562 22.87415504455566 6.538291931152344 22.87415504455566 6.953222274780273 L 22.87415504455566 13.76348209381104 C 22.87415504455566 13.7779016494751 22.88579559326172 13.78979206085205 22.90046501159668 13.78979206085205 L 23.8598747253418 13.78979206085205 C 23.87455558776855 13.78979206085205 23.88618469238281 13.7779016494751 23.88618469238281 13.76348209381104 L 23.88618469238281 5.941181182861328 C 23.88618469238281 5.526252746582031 23.54993438720703 5.19000244140625 23.13500595092773 5.19000244140625 L 6.251184463500977 5.19000244140625 M 6.251184463500977 4.19000244140625 L 23.13500595092773 4.19000244140625 C 24.10060501098633 4.19000244140625 24.88618469238281 4.975582122802734 24.88618469238281 5.941181182861328 L 24.88618469238281 13.76348209381104 C 24.88618469238281 14.32939147949219 24.42578506469727 14.78979206085205 23.8598747253418 14.78979206085205 L 22.90046501159668 14.78979206085205 C 22.33455467224121 14.78979206085205 21.87415504455566 14.32939147949219 21.87415504455566 13.76348209381104 L 21.87415504455566 7.202041625976562 L 7.512035369873047 7.202041625976562 L 7.512035369873047 17.02770233154297 L 8.81341552734375 17.02770233154297 C 9.379325866699219 17.02770233154297 9.839725494384766 17.48810195922852 9.839725494384766 18.05401229858398 L 9.839725494384766 18.79536819458008 L 11.05488586425781 17.38095092773438 C 11.24992561340332 17.15661239624023 11.53227615356445 17.02795219421387 11.82953453063965 17.02795219421387 L 13.76455497741699 17.02795219421387 C 14.33046531677246 17.02795219421387 14.79086494445801 17.48835182189941 14.79086494445801 18.05426216125488 L 14.79086494445801 19.0136833190918 C 14.79086494445801 19.57959175109863 14.33046531677246 20.03999328613281 13.76455497741699 20.03999328613281 L 12.74203109741211 20.03999328613281 L 9.94195556640625 23.29793167114258 C 9.604455947875977 23.69075202941895 9.117355346679688 23.91612243652344 8.60566520690918 23.91612243652344 C 7.625286102294922 23.91612243652344 6.82768440246582 23.12088203430176 6.82768440246582 22.14340209960938 L 6.82768440246582 20.03974151611328 L 5.526315689086914 20.03974151611328 C 4.960405349731445 20.03974151611328 4.499994277954102 19.57933235168457 4.499994277954102 19.0134220123291 L 4.499994277954102 5.941181182861328 C 4.499994277954102 4.975582122802734 5.285575866699219 4.19000244140625 6.251184463500977 4.19000244140625 Z"/></g><g transform="translate(9.303 9.612)"><g class="a" transform="translate(-42.27 -43.18)"><path class="c" d="M 53.30176162719727 56.6843147277832 C 52.99559020996094 56.6843147277832 52.71546173095703 56.55443572998047 52.51298141479492 56.31860733032227 L 50.2733039855957 53.71181488037109 L 42.27000045776367 53.71181488037109 L 41.77000045776367 53.71181488037109 L 41.77000045776367 53.21181488037109 L 41.77000045776367 43.17999649047852 L 41.77000045776367 42.67999649047852 L 42.27000045776367 42.67999649047852 L 55.20232009887695 42.67999649047852 C 55.63650131225586 42.67999649047852 55.98974227905273 43.03323745727539 55.98974227905273 43.46741485595703 L 55.98974227905273 53.21181488037109 L 55.98974227905273 53.71181488037109 L 55.48974227905273 53.71181488037109 L 54.3527717590332 53.71181488037109 L 54.3527717590332 55.63691711425781 C 54.3527717590332 56.21445465087891 53.88129043579102 56.6843147277832 53.30176162719727 56.6843147277832 Z M 43.78203964233398 51.69977569580078 L 50.96846008300781 51.69977569580078 L 51.19820022583008 51.69977569580078 L 51.34784317016602 51.87409591674805 L 52.34073257446289 53.03068161010742 L 52.34073257446289 52.19977569580078 L 52.34073257446289 51.69977569580078 L 52.84073257446289 51.69977569580078 L 53.97771072387695 51.69977569580078 L 53.97771072387695 44.69203567504883 L 43.78203964233398 44.69203567504883 L 43.78203964233398 51.69977569580078 Z"/><path class="d" d="M 42.27000045776367 43.17999649047852 L 42.27000045776367 53.21181488037109 L 50.50292205810547 53.21181488037109 L 52.89234161376953 55.99289703369141 C 53.22252655029297 56.37747573852539 53.8527717590332 56.1436882019043 53.8527717590332 55.63691711425781 L 53.8527717590332 53.21181488037109 L 55.48974227905273 53.21181488037109 L 55.48974227905273 43.46741485595703 C 55.48974227905273 43.30851745605469 55.3609619140625 43.17999649047852 55.20232009887695 43.17999649047852 L 42.27000045776367 43.17999649047852 M 54.47771072387695 52.19977569580078 L 52.84073257446289 52.19977569580078 L 52.84073257446289 54.3807258605957 L 50.96846008300781 52.19977569580078 L 43.28203964233398 52.19977569580078 L 43.28203964233398 44.19203567504883 L 54.19028091430664 44.19203567504883 C 54.34892272949219 44.19203567504883 54.47771072387695 44.320556640625 54.47771072387695 44.47945785522461 L 54.47771072387695 52.19977569580078 M 41.27000045776367 42.17999649047852 L 55.20232009887695 42.17999649047852 C 55.91221237182617 42.17999649047852 56.48974227905273 42.75752639770508 56.48974227905273 43.46741485595703 L 56.48974227905273 54.21181488037109 L 54.8527717590332 54.21181488037109 L 54.8527717590332 55.63691711425781 C 54.8527717590332 56.49015426635742 54.15699005126953 57.1843147277832 53.30176162719727 57.1843147277832 C 52.85403060913086 57.1843147277832 52.42826080322266 56.98749542236328 52.13362121582031 56.64430618286133 L 50.0436897277832 54.21181488037109 L 41.27000045776367 54.21181488037109 L 41.27000045776367 42.17999649047852 Z M 53.47771072387695 45.19203567504883 L 44.28203964233398 45.19203567504883 L 44.28203964233398 51.19977569580078 L 51.42793273925781 51.19977569580078 L 51.84073257446289 51.68062973022461 L 51.84073257446289 51.19977569580078 L 53.47771072387695 51.19977569580078 L 53.47771072387695 45.19203567504883 Z"/></g></g><g transform="translate(2.993 4.253)"><g class="b"><rect class="c" width="12.61" height="1.012"/><rect class="e" x="-0.5" y="-0.5" width="13.61" height="2.012"/></g></g><g transform="translate(2.993 6.323)"><g class="b"><rect class="c" width="8.747" height="1.012"/><rect class="e" x="-0.5" y="-0.5" width="9.747" height="2.012"/></g></g><g class="b" transform="translate(12.024 13.741)"><circle class="c" cx="0.862" cy="0.862" r="0.862"/><circle class="e" cx="0.862" cy="0.862" r="1.362"/></g><g class="b" transform="translate(15.078 13.741)"><circle class="c" cx="0.862" cy="0.862" r="0.862"/><circle class="e" cx="0.862" cy="0.862" r="1.362"/></g><g class="b" transform="translate(18.133 13.741)"><circle class="c" cx="0.862" cy="0.862" r="0.862"/><circle class="e" cx="0.862" cy="0.862" r="1.362"/></g></g></svg>