<svg xmlns="http://www.w3.org/2000/svg" width="26.648" height="24.696" viewBox="0 0 26.648 24.696"><defs><style>.a{fill:#696f7b;stroke:#fff;stroke-width:0.4px;}</style></defs><path class="a" d="M132.3,126.646h-2.474a.857.857,0,0,0-.15.009,9.1,9.1,0,0,0-18.111.009,1.3,1.3,0,0,0-.186-.009H108.94a1.44,1.44,0,0,0-1.44,1.44v6.617a1.44,1.44,0,0,0,1.44,1.44h2.438a.669.669,0,0,0,.133-.009v2.279a2.722,2.722,0,0,0,2.721,2.721H117.7a2.308,2.308,0,0,0,2.209,1.652h1.4a2.306,2.306,0,0,0,0-4.612h-1.4a2.3,2.3,0,0,0-2.209,1.643h-3.472a1.4,1.4,0,0,1-1.4-1.4V127.609a7.783,7.783,0,1,1,15.567,0v.3a1.3,1.3,0,0,0-.009.186v6.617a1.44,1.44,0,0,0,1.44,1.44h2.474a1.44,1.44,0,0,0,1.44-1.44v-6.626A1.454,1.454,0,0,0,132.3,126.646ZM119.922,139.5h1.4a.981.981,0,0,1,0,1.961h-1.4a.981.981,0,1,1,0-1.961Zm-8.428-4.788a.117.117,0,0,1-.115.115H108.94a.117.117,0,0,1-.115-.115v-6.626a.117.117,0,0,1,.115-.115h2.438a.117.117,0,0,1,.115.115Zm20.921,0a.117.117,0,0,1-.115.115h-2.474a.117.117,0,0,1-.115-.115v-1.361h.009v-5.3a.112.112,0,0,1,.106-.062H132.3a.117.117,0,0,1,.115.115Z" transform="translate(-107.3 -118.3)"/></svg>