<svg xmlns="http://www.w3.org/2000/svg" width="364.055" height="336.5" viewBox="0 0 364.055 336.5"><defs><style>.a{fill:#696f7b;}.a,.r{opacity:0.1;}.b{fill:#161616;}.c{fill:#191919;}.d{fill:#5222d0;}.e{fill:#444;}.f{fill:#ec615b;}.g{fill:#8c8c8c;}.h{fill:#a5a5a5;}.i{fill:#e8e8e8;}.j,.n,.p,.q,.r,.s,.t,.u{fill:#353535;}.k{fill:#fff;}.l{fill:#303030;}.m{fill:#777;}.n{opacity:0.09;}.o{fill:#595959;}.p{opacity:0.15;}.q{opacity:0.13;}.s{opacity:0.12;}.t{opacity:0.08;}.u{opacity:0.11;}.v{fill:#1e1e1e;}</style></defs><g transform="translate(-230.847 -39.075)"><path class="a" d="M306.745,99.656c-23.339-.9-45.567-9.269-66.793-18.426s-42.249-19.3-65.029-24.15c-14.652-3.12-31.409-3.565-43.212,5.151-11.363,8.412-15.034,22.893-17.007,36.34-1.486,10.118-2.358,20.77,1.709,30.243,2.827,6.577,7.84,12.105,11.309,18.406,12.07,21.919,3.538,48.95-9.538,70.352-6.13,10.038-13.253,19.628-17.987,30.3s-6.924,22.949-2.78,33.868c4.1,10.815,13.887,18.923,24.486,24.631,21.525,11.6,46.88,14.913,71.621,16.8,54.752,4.158,109.792,2.359,164.689.553,20.317-.665,40.72-1.342,60.706-4.831,11.1-1.939,22.556-5.015,30.616-12.442,10.227-9.425,12.762-25.384,5.907-37.2-11.5-19.828-43.274-24.751-51.319-46.026-4.421-11.713.119-24.755,6.549-35.615,13.79-23.3,36.9-43.742,38.117-70.372.837-18.29-10.274-36.608-27.453-45.264-18.005-9.073-42.978-7.931-56.256,7.086C351.393,94.5,327.354,100.453,306.745,99.656Z" transform="translate(135.621 49.868)"/><g transform="translate(274.705 331.061)"><g transform="translate(26.272)"><path class="b" d="M405.858,1028.941c14.926,0,28.8,6.273,43.422,8.321,14.21,1.971,28.266-1.28,42.245-3.482a104.266,104.266,0,0,1,21.3-1.613,58.7,58.7,0,0,1,20.917,5.351c6.068,2.714,12.008,5.863,18.434,7.681a41.413,41.413,0,0,0,18.664.717c14.7-2.586,28.214-10.6,43.4-10.523a.385.385,0,0,0,0-.768c-13.288-.077-25.4,5.991-37.995,9.294-6.554,1.715-13.39,2.637-20.1,1.408-6.785-1.229-13.032-4.352-19.228-7.22-6.145-2.842-12.366-5.325-19.125-6.247a78.6,78.6,0,0,0-20.943.384c-14.082,1.818-28.086,5.658-42.373,4.788-16.514-1.024-31.9-8.833-48.568-8.833a.372.372,0,1,0-.051.742Z" transform="translate(-405.499 -1028.198)"/></g><g transform="translate(5.582 0.609)"><g transform="translate(0 0)"><path class="b" d="M325.15,1033.784a45.743,45.743,0,0,1,9.4-2.458c.486-.077.282-.819-.2-.743a42.7,42.7,0,0,0-9.4,2.458c-.461.179-.256.922.2.743Z" transform="translate(-324.685 -1030.578)"/></g></g><g transform="translate(0 6.785)"><g transform="translate(0 0)"><path class="b" d="M303.452,1058.385c17.154-7.553,35.665.973,52.434,5.3a76.5,76.5,0,0,0,15.029,2.509c.486.026.486-.743,0-.768-18.485-1-35.281-11.316-54-10.7a37.157,37.157,0,0,0-13.826,3.021c-.461.179-.077.845.358.64Z" transform="translate(-302.884 -1054.697)"/></g></g><g transform="translate(79.498 15.703)"><path class="b" d="M613.88,1098.383a65.982,65.982,0,0,0,11.444-3.175,97.962,97.962,0,0,1,11.342-3.124,88.958,88.958,0,0,1,38.046.512c.486.1.691-.64.2-.742a90.309,90.309,0,0,0-48.031,2.023c-4.378,1.408-8.654,3.072-13.237,3.764-.461.077-.256.819.23.743Z" transform="translate(-613.391 -1089.532)"/></g><g transform="translate(171.531 12.568)"><path class="b" d="M973.046,1090.322c5.325,2.74,11.419,2.791,17.231,2a130.006,130.006,0,0,0,19.868-4.634c12.981-3.866,25.91-8.577,39.556-9.4a52.687,52.687,0,0,1,22.1,3.021c.461.179.666-.563.2-.742-25.782-9.883-51.9,5.249-76.936,10.164-7.092,1.383-14.952,2.33-21.609-1.1-.461-.2-.845.461-.41.691Z" transform="translate(-972.855 -1077.287)"/></g><g transform="translate(249.913 6.746)"><path class="b" d="M1279.384,1055.329a38.472,38.472,0,0,1,16.9,3.38c.435.2.845-.461.384-.666a39.357,39.357,0,0,0-17.282-3.482c-.512.026-.512.794,0,.768Z" transform="translate(-1279 -1054.548)"/></g></g><g transform="translate(262.902 47.909)"><ellipse class="c" cx="3.011" cy="2.952" rx="3.011" ry="2.952" transform="translate(80.795 128.972)"/><ellipse class="c" cx="2.303" cy="2.243" rx="2.303" ry="2.243" transform="translate(196.6 169.325)"/><ellipse class="c" cx="1.535" cy="1.506" rx="1.535" ry="1.506" transform="translate(249.647 9.181)"/><ellipse class="c" cx="2.214" cy="2.155" rx="2.214" ry="2.155" transform="translate(83.806 212.394)"/><circle class="d" cx="0.531" cy="0.531" r="0.531" transform="translate(276.451 113.798)"/><ellipse class="e" cx="2.922" cy="2.863" rx="2.922" ry="2.863" transform="translate(74.92 124.603)"/><ellipse class="f" cy="0.915" ry="0.915" transform="translate(80.765 120.676)"/><ellipse class="e" cx="1.004" cy="0.974" rx="1.004" ry="0.974" transform="translate(88.234 205.25)"/><ellipse class="e" cx="2.184" cy="2.125" rx="2.184" ry="2.125" transform="translate(33.209 43.276)"/><ellipse class="f" cy="0.354" ry="0.354" transform="translate(245.544 0)"/><ellipse class="e" cx="2.184" cy="2.125" rx="2.184" ry="2.125" transform="translate(256.319 91.541)"/><ellipse class="e" cx="1.83" cy="1.771" rx="1.83" ry="1.771" transform="translate(265.499 84.308)"/><g transform="translate(64.796 173.427)"><path class="g" d="M436.68,656.5c-2.716.059-3.867,3.838-2.981,6.081a1.931,1.931,0,0,0,2.362,1.122,6.56,6.56,0,0,1,1.092-.266c1.387.089,1.358.945.945,1.771a7.42,7.42,0,0,0-.768,1.712,1.7,1.7,0,0,0,.827,2.1c.472.207,1.033-.148,1.446,0,1.476.472.3,2.332.177,3.247a2.469,2.469,0,0,0,1.122,2.627,1.734,1.734,0,0,0,2.332-.708c.266-.5-.5-.945-.768-.443-1,.8-1.594.5-1.83-.945a3.945,3.945,0,0,1,.177-1.181,14.092,14.092,0,0,0,.5-1.919,1.645,1.645,0,0,0-.354-1.328c-.708-.649-2.421.3-2.8-.856-.236-.708.827-1.889,1.033-2.539.413-1.269-.089-2.539-1.594-2.509-1.24.029-2.716,1.3-3.159-.915-.325-1.535.413-4.162,2.3-4.192a.429.429,0,0,0-.059-.856Z" transform="translate(-433.405 -656.498)"/></g><g transform="translate(225.514 144.203)"><path class="g" d="M984.918,557.5a6.812,6.812,0,0,0-6.465,5.077c-.62,2.568.974,5.638,3.9,4.044a4.14,4.14,0,0,0,2.243-2.8,1.419,1.419,0,0,0-1.535-1.712c-1.446.118-2.775,1.83-3.542,2.893a7.1,7.1,0,0,0-1.653,4.457c.3,2.686,4.162,3.218,5.52,1.092.236-.354-.236-.886-.62-.62-2.037,1.565-4.162,4.133-3.365,6.908a4.2,4.2,0,0,0,5.2,2.982c.531-.177.3-1.033-.236-.856a3.36,3.36,0,0,1-4.221-2.982c-.177-2.155,1.446-4.044,3.07-5.284l-.62-.62a2.24,2.24,0,0,1-2.893.649c-1.387-.738-1-2.332-.472-3.513a9.992,9.992,0,0,1,1.83-2.716c.3-.325,1.063-1.21,1.476-1.269.384.089.8.207,1.181.3a2.165,2.165,0,0,1-.354,1.033c-.8,1.3-2.8,2.332-3.9.827-.738-.974-.266-2.8.236-3.779a5.938,5.938,0,0,1,5.166-3.218c.62-.029.62-.915.059-.886Z" transform="translate(-977.847 -557.498)"/></g><g transform="translate(0 97.927)"><path class="g" d="M214.639,402.289a1.736,1.736,0,0,1,3.041.561c.3.8.266,1.476,1,2.037,1.328,1,3.1.236,4.517-.059,3.69-.738,2.48,2.952,4.576,4.4a1.849,1.849,0,0,0,2.775-.59c.236-.5-.531-.974-.768-.443-.768,1.712-2.184-.5-2.421-1.181-.148-.413-.236-.827-.413-1.21a3.4,3.4,0,0,0-1.21-1.594c-1.653-1.033-3.483.236-5.166.266-1.8.059-1.624-1.181-2.243-2.391a2.426,2.426,0,0,0-1.269-1.151,2.621,2.621,0,0,0-3.041.738c-.384.443.266,1.063.62.62Z" transform="translate(-213.902 -400.735)"/></g><g transform="translate(3.155 105.856)"><path class="g" d="M225.332,429.575c1.86-2.007,4.546-1.063,5.638,1.122.679,1.358,1.151,2.834,2.627,3.513a4.428,4.428,0,0,0,5.933-2.45c.177-.531-.679-.767-.856-.236a3.5,3.5,0,0,1-4.28,2.037c-2.037-.59-2.184-2.922-3.306-4.4a4.21,4.21,0,0,0-6.376-.207c-.384.413.236,1.033.62.62Z" transform="translate(-224.591 -427.595)"/></g><g transform="translate(212.657 234.199)"><path class="h" d="M935.032,865.623a2.761,2.761,0,0,1,3.9-.354,1.545,1.545,0,0,0,1.446.384c.708-.266.827-1.21,1.328-1.683a2.949,2.949,0,0,1,3.808-.089c.443.354,1.063-.266.62-.62a3.842,3.842,0,0,0-5.491.561c-.118.177-.266.649-.413.738-.679.443-.945-.236-1.387-.413a4.871,4.871,0,0,0-1.417-.413A3.618,3.618,0,0,0,934.382,865c-.325.413.3,1.033.649.62Z" transform="translate(-934.291 -862.365)"/></g><g transform="translate(221.201 234.686)"><path class="h" d="M964.08,868.29c2.007-2.981,9.269,1.063,10.007-3.719.089-.561-.768-.8-.856-.236-.384,2.509-3.867,1.919-5.638,1.86-1.653-.029-3.306.207-4.28,1.653-.325.472.443.915.768.443Z" transform="translate(-963.234 -864.014)"/></g><g transform="translate(64.758 245.614)"><path class="h" d="M434.109,906.78a14.838,14.838,0,0,1,4.576-4.9c.472-.325.03-1.092-.443-.768a16.573,16.573,0,0,0-4.9,5.225c-.3.472.472.915.768.443Z" transform="translate(-433.275 -901.034)"/></g><g transform="translate(69.139 245.88)"><path class="h" d="M448.761,906c1.565-1.063,3.129-2.155,4.694-3.218.472-.325.03-1.092-.443-.768-1.565,1.063-3.129,2.155-4.694,3.218-.472.325-.03,1.092.443.768Z" transform="translate(-448.116 -901.934)"/></g></g><g transform="translate(285.688 39.075)"><g transform="translate(4.146 6.697)"><path class="i" d="M381.489,62.187A143.185,143.185,0,0,1,354.213,144.4c-.325.472.443.915.768.443a143.9,143.9,0,0,0,27.394-82.685c.03-.531-.856-.531-.886.03Z" transform="translate(-354.134 -61.762)"/></g><g transform="translate(34.988 7.279)"><path class="i" d="M458.818,64.55A66.284,66.284,0,0,0,507.5,72.4a63.19,63.19,0,0,0,13.461-4.664c.5-.236.059-1-.443-.768A65.582,65.582,0,0,1,472.161,69.8a62.506,62.506,0,0,1-12.9-5.992c-.472-.325-.915.443-.443.738Z" transform="translate(-458.616 -63.734)"/></g><g transform="translate(104.584 10.433)"><path class="i" d="M694.441,75.061a49.426,49.426,0,0,0,27.571,20.723c13.609,4.074,28.28,1.387,41.682-2.214a74.571,74.571,0,0,0,21.254-8.944c.472-.3.03-1.063-.443-.768A71.981,71.981,0,0,1,766,92a132.065,132.065,0,0,1-20.841,4.369,57.794,57.794,0,0,1-20.28-.738,49.265,49.265,0,0,1-15.793-6.878,47.638,47.638,0,0,1-13.874-14.14c-.3-.472-1.063-.03-.768.443Z" transform="translate(-694.375 -74.416)"/></g><g transform="translate(195.428 20.909)"><path class="i" d="M1005.329,110.23c-2.066,11.277-3.66,23.084-3.1,34.568.443,9.417,3.011,19.247,10.686,25.328,4.576,3.631,10.155,5.638,15.616,7.587.531.207.768-.649.236-.856-4.812-1.742-9.742-3.483-13.963-6.435a25.116,25.116,0,0,1-8.885-11.277c-3.631-8.915-3.159-19.04-2.421-28.457a203.222,203.222,0,0,1,2.657-20.251c.118-.531-.738-.768-.827-.207Z" transform="translate(-1002.115 -109.907)"/></g><g transform="translate(6.176 93.962)"><path class="i" d="M361.334,358.241a84.837,84.837,0,0,1,55.29,34.213A77.977,77.977,0,0,1,425.6,408.9c.207.531,1.063.3.856-.236-8.266-20.841-25.535-37.49-46.169-46.021a82.9,82.9,0,0,0-18.715-5.254c-.561-.089-.8.768-.236.856Z" transform="translate(-361.014 -357.378)"/></g><g transform="translate(75.686 136.463)"><path class="i" d="M597.256,511.109c10.42-8.088,24.236-10.1,37.018-8.206,13.638,2.007,26.007,8.561,37.165,16.413,6.731,4.723,13.077,9.948,19.424,15.173.443.354,1.063-.266.62-.62-11.454-9.446-23.084-19.011-36.575-25.416-12.044-5.727-25.623-8.59-38.907-6.317a43.72,43.72,0,0,0-19.365,8.325c-.443.384.177,1,.62.649Z" transform="translate(-596.484 -501.354)"/></g><g transform="translate(168.815 100.047)"><path class="i" d="M912.829,442.081c5.077-21.933,18.922-41.416,37.46-54.08a90.369,90.369,0,0,1,16.974-9.122c.531-.207.3-1.063-.236-.856a93.771,93.771,0,0,0-48.707,45.756,87.56,87.56,0,0,0-6.347,18.066c-.118.561.738.8.856.236Z" transform="translate(-911.962 -377.992)"/></g><g transform="translate(36.285 110.858)"><path class="b" d="M463.242,415.406c4.428,1.889,7.764,5.638,10.922,9.151a110.573,110.573,0,0,1,9.063,11.542,105.477,105.477,0,0,1,12.723,25.475c.177.531,1.033.3.856-.236a108.155,108.155,0,0,0-13.107-26.1,109.507,109.507,0,0,0-8.915-11.306c-3.218-3.542-6.612-7.38-11.1-9.269-.5-.266-.974.5-.443.738Z" transform="translate(-463.008 -414.613)"/></g><g transform="translate(103.639 15.143)"><path class="b" d="M691.241,91.03a38.373,38.373,0,0,0,21.313,16.324c.561.177.768-.679.236-.856a37.231,37.231,0,0,1-20.782-15.911c-.3-.5-1.063-.03-.768.443Z" transform="translate(-691.175 -90.372)"/></g><g transform="translate(31.83)"><path class="b" d="M448.118,39.909a41.126,41.126,0,0,0,32.472,5.815.444.444,0,0,0-.236-.856,40.205,40.205,0,0,1-31.793-5.727c-.472-.3-.915.472-.443.768Z" transform="translate(-447.916 -39.075)"/></g><g transform="translate(0 65.763)"><path class="b" d="M340.832,279.637a90.8,90.8,0,0,0,12.221-17.121c.266-.5-.5-.945-.767-.443a90.15,90.15,0,0,1-12.074,16.944c-.384.413.236,1.033.62.62Z" transform="translate(-340.091 -261.852)"/></g><g transform="translate(19.549 48.527)"><path class="b" d="M416.169,203.887c-.413,4.192-2.627,8.147-4.339,11.926-1.771,3.867-3.6,7.675-5.461,11.483-.266.5.5.945.768.443q3.1-6.2,5.963-12.546c1.653-3.631,3.6-7.321,3.985-11.336.029-.531-.856-.531-.915.03Z" transform="translate(-406.313 -203.462)"/></g><g transform="translate(165.96 116.666)"><path class="b" d="M903.18,466.234a81.265,81.265,0,0,1,21.667-31.2c.413-.384-.207-1-.62-.62A82.3,82.3,0,0,0,902.324,466c-.207.531.649.738.856.236Z" transform="translate(-902.292 -434.291)"/></g><g transform="translate(26.416 13.059)"><path class="g" d="M431.12,83.634c-.5,3.159-1.033,6.317-1.535,9.476-.089.561.768.8.856.236.5-3.159,1.033-6.317,1.535-9.476.089-.561-.768-.8-.856-.236Z" transform="translate(-429.578 -83.314)"/></g><g transform="translate(103.363 2.541)"><path class="g" d="M690.347,48.456a71.052,71.052,0,0,0,23.2,18.184c.5.236.945-.5.443-.768a70.345,70.345,0,0,1-23.025-18.037c-.354-.443-.974.177-.62.62Z" transform="translate(-690.242 -47.684)"/></g><g transform="translate(155.317 32.612)"><g transform="translate(0 0)"><path class="g" d="M866.669,154.641a45.334,45.334,0,0,0,21.579-4.28c.5-.236.059-1-.443-.768a44.606,44.606,0,0,1-21.136,4.162c-.59-.03-.561.856,0,.886Z" transform="translate(-866.237 -149.549)"/></g></g><g transform="translate(181.446 11.148)"><path class="g" d="M955.416,89.875a58.792,58.792,0,0,0,16.8-12.28c.384-.413-.236-1.033-.62-.62a58.058,58.058,0,0,1-16.62,12.133c-.5.236-.059,1,.443.768Z" transform="translate(-954.752 -76.838)"/></g><g transform="translate(77.503 129.643)"><path class="g" d="M603.395,489.158a33.071,33.071,0,0,1,29.4-9.535c.561.089.8-.768.236-.856a33.9,33.9,0,0,0-30.258,9.771c-.413.384.207,1.033.62.62Z" transform="translate(-602.638 -478.251)"/></g><g transform="translate(12.139 90.267)"><path class="j" d="M381.534,345.729a71.867,71.867,0,0,1,17.977,6.288c.5.266.945-.5.443-.768a72.379,72.379,0,0,0-18.184-6.376c-.561-.118-.8.738-.236.856Z" transform="translate(-381.214 -344.862)"/></g><g transform="translate(35.689 18.774)"><path class="j" d="M460.993,103.1a64.314,64.314,0,0,1,.207,10.391c-.03.561.856.561.886,0a67.8,67.8,0,0,0-.207-10.391c-.059-.561-.945-.561-.886,0Z" transform="translate(-460.99 -102.675)"/></g><g transform="translate(150.173 121.702)"><path class="j" d="M849.636,467.688a35.2,35.2,0,0,1,15.97-15.527c.5-.236.059-1-.443-.767a35.893,35.893,0,0,0-16.295,15.852c-.266.5.5.974.768.443Z" transform="translate(-848.813 -451.349)"/></g><g transform="translate(131.872 71.039)"><path class="g" d="M787.461,283.083a13.822,13.822,0,0,1,8.767-2.45c.561.03.561-.856,0-.886a14.607,14.607,0,0,0-9.21,2.6c-.472.3-.029,1.063.443.738Z" transform="translate(-786.816 -279.725)"/></g><g transform="translate(139.369 65.559)"><path class="g" d="M812.534,262.029A43.533,43.533,0,0,1,820,264.273c.531.207.768-.649.236-.856a43.537,43.537,0,0,0-7.468-2.243c-.561-.118-.8.738-.236.856Z" transform="translate(-812.214 -261.162)"/></g><g transform="translate(74.464 32.107)"><path class="g" d="M593.215,159.4a21.776,21.776,0,0,1,6.022-10.8.438.438,0,1,0-.62-.62,22.4,22.4,0,0,0-6.258,11.188.444.444,0,0,0,.856.236Z" transform="translate(-592.342 -147.838)"/></g><g transform="translate(81.059 36.086)"><path class="g" d="M615.456,169.844a45.973,45.973,0,0,1,14.7-7.646c.531-.177.325-1.033-.236-.856a46.886,46.886,0,0,0-15.085,7.852c-.443.384.177,1,.62.649Z" transform="translate(-614.684 -161.319)"/></g><g transform="translate(72.914 102.466)"><path class="j" d="M587.124,386.721a13.546,13.546,0,0,1,.384,8.708.444.444,0,0,0,.856.236,14.384,14.384,0,0,0-.384-9.181c-.207-.531-1.063-.3-.856.236Z" transform="translate(-587.092 -386.185)"/></g><g transform="translate(80.397 103.19)"><path class="j" d="M612.547,389.425a17.64,17.64,0,0,0,5.7,4.517c.5.266.945-.5.443-.768a16.346,16.346,0,0,1-5.52-4.4c-.354-.413-.974.207-.62.649Z" transform="translate(-612.442 -388.64)"/></g><g transform="translate(176.646 97.388)"><path class="j" d="M938.612,369.756a6.384,6.384,0,0,1,1.594,5.373c-.089.561.767.8.856.236a7.283,7.283,0,0,0-1.83-6.229c-.384-.443-1,.177-.62.62Z" transform="translate(-938.491 -368.984)"/></g><g transform="translate(184.011 96.03)"><path class="j" d="M963.547,365.156c1.092,1.24,2.155,2.45,3.247,3.69.384.443,1-.207.62-.62-1.092-1.24-2.155-2.45-3.247-3.69-.354-.443-.974.177-.62.62Z" transform="translate(-963.442 -364.384)"/></g><g transform="translate(140.461 97.361)"><path class="j" d="M816.736,378.9a30.115,30.115,0,0,1,8-9.151c.443-.354,0-1.122-.443-.767a31.622,31.622,0,0,0-8.325,9.476c-.266.5.5.945.768.443Z" transform="translate(-815.913 -368.891)"/></g><ellipse class="e" cx="4.31" cy="4.192" rx="4.31" ry="4.192" transform="translate(244.071 35.165)"/><ellipse class="f" cy="0.295" ry="0.295" transform="translate(259.953 48.361)"/><ellipse class="c" cx="3.631" cy="3.513" rx="3.631" ry="3.513" transform="translate(252.691 45.999)"/><g transform="translate(37.651 44.279)"><path class="k" d="M470.6,252.158c.413,2.155.915,4.428,1.565,6.79a80.23,80.23,0,0,0,8.266,19.276,31.051,31.051,0,0,0,3.719.679,23.1,23.1,0,0,0,9.564-.413c.945-.266.531-.236,4.694-1.948s4.4-1.653,5.992-2.362c2.716-1.181,5.166-2.893,9.978-6.229,1.387-.974,3.306-2.332,5.55-4.015a23.027,23.027,0,0,0,.3-4.015,26.712,26.712,0,0,0-1.417-7.35c-1.269-4.339-2.155-7.291-2.716-9.151a33.4,33.4,0,0,0-3.719-2.066A37.058,37.058,0,0,0,500.12,237.9a42.344,42.344,0,0,0-7.97,1.387,48.154,48.154,0,0,0-16.974,9A49.806,49.806,0,0,0,470.6,252.158Z" transform="translate(-469.725 -223.487)"/><path class="k" d="M868.391,249.5a73.391,73.391,0,0,0-7.262,9.151c-1.181,1.771-2.214,3.483-3.129,5.136,1.8,2.686,3.6,5.373,5.432,8.029,4.044,1.565,8.088,3.129,12.133,4.723,3.838-4.015,7.7-8.029,11.542-12.074-1-3.247-2.007-6.465-2.981-9.712a56.8,56.8,0,0,0-6.849-2.922A62.524,62.524,0,0,0,868.391,249.5Z" transform="translate(-742.766 -231.662)"/><g transform="translate(0.577 28.505)"><path class="b" d="M469.593,286.069c1,9.505,5.2,18.155,9.742,26.45.266.5,1.033.059.767-.443-4.457-8.118-8.649-16.649-9.623-26.007-.059-.561-.945-.59-.886,0Z" transform="translate(-469.59 -285.637)"/></g><g transform="translate(0.651 13.909)"><path class="b" d="M470.6,251.455a45.879,45.879,0,0,1,27.749-14.376c.561-.059.561-.945,0-.886a46.9,46.9,0,0,0-28.4,14.612c-.354.443.266,1.063.649.649Z" transform="translate(-469.843 -236.19)"/></g><g transform="translate(29.135 14.034)"><path class="b" d="M566.413,237.261c4.812,7.232,7.055,15.645,9.21,23.94a.444.444,0,0,0,.856-.236c-2.184-8.384-4.457-16.856-9.3-24.147-.325-.472-1.092-.03-.768.443Z" transform="translate(-566.334 -236.616)"/></g><g transform="translate(10.825 38.635)"><path class="b" d="M504.836,336.674a82.388,82.388,0,0,0,15.557-6.465,76.86,76.86,0,0,0,7.114-4.4c2.066-1.417,4.221-2.893,5.343-5.2.266-.5-.5-.945-.768-.443-1.21,2.45-3.69,3.985-5.874,5.461-2.155,1.446-4.4,2.8-6.7,4.044a82.679,82.679,0,0,1-14.878,6.14c-.561.177-.325,1.033.207.856Z" transform="translate(-504.307 -319.952)"/></g><g transform="translate(29.265 13.852)"><path class="b" d="M567.2,236.884a29.152,29.152,0,0,1,16.177,5.668c.472.325.915-.443.443-.768A29.837,29.837,0,0,0,567.2,236c-.561-.03-.561.856,0,.886Z" transform="translate(-566.775 -235.998)"/></g><g transform="translate(45.767 19.339)"><path class="b" d="M622.714,255.27a49.378,49.378,0,0,1,4.133,19.542.443.443,0,0,0,.886,0,50.621,50.621,0,0,0-4.28-19.985c-.207-.531-.945-.089-.738.443Z" transform="translate(-622.678 -254.587)"/></g><g transform="translate(38.606 38.553)"><path class="b" d="M598.62,320.509c3.66,2.362,8,1.712,11.985.649a.444.444,0,0,0-.236-.856c-3.749,1-7.823,1.653-11.277-.561a.451.451,0,0,0-.472.768Z" transform="translate(-598.419 -319.675)"/></g><g transform="translate(10.561 53.436)"><path class="b" d="M503.734,372.161a26.793,26.793,0,0,0,15.734-1.181c.531-.207.3-1.063-.236-.856A25.709,25.709,0,0,1,503.97,371.3c-.561-.118-.8.738-.236.856Z" transform="translate(-503.414 -370.092)"/></g><g transform="translate(26.323 39.384)"><path class="b" d="M557.336,337.372a81.347,81.347,0,0,0,24.059-14.14c.443-.384-.207-1-.62-.62a80.236,80.236,0,0,1-23.645,13.9c-.561.207-.325,1.063.207.856Z" transform="translate(-556.807 -322.491)"/></g><g transform="translate(114.636 17.601)"><path class="b" d="M866.285,248.846a121.716,121.716,0,0,0-10.243,14.022c-.3.472.472.915.768.443a125.728,125.728,0,0,1,10.1-13.845c.384-.413-.236-1.063-.62-.62Z" transform="translate(-855.975 -248.697)"/></g><g transform="translate(125.036 17.654)"><path class="b" d="M891.53,249.741A50.65,50.65,0,0,1,906.7,254.73c.5.266.945-.5.443-.768a51.408,51.408,0,0,0-15.409-5.077c-.531-.089-.768.768-.207.856Z" transform="translate(-891.207 -248.878)"/></g><g transform="translate(114.492 31.903)"><path class="b" d="M855.727,297.961q6.908,3.144,13.668,6.583c.5.266.945-.5.443-.768q-6.775-3.41-13.668-6.583c-.531-.236-.974.531-.443.768Z" transform="translate(-855.487 -297.149)"/></g><g transform="translate(128.208 22.909)"><path class="b" d="M914.512,266.864Q908.579,274.79,903,282.982a4.723,4.723,0,0,1,.62-.148c-.325-.177-.649-.384-1-.561a.443.443,0,0,0-.443.768c.325.177.649.384,1,.561a.506.506,0,0,0,.62-.148c3.69-5.461,7.528-10.863,11.513-16.118.3-.472-.472-.915-.8-.472Z" transform="translate(-901.952 -266.681)"/></g><g transform="translate(140.645 22.93)"><path class="b" d="M944.116,267.416a47.462,47.462,0,0,1,2.952,9.594c.118.561.974.325.856-.236a47.707,47.707,0,0,0-3.041-9.8c-.207-.5-.974-.059-.768.443Z" transform="translate(-944.081 -266.752)"/></g><g transform="translate(129.472 39.263)"><path class="b" d="M906.313,322.7a34.184,34.184,0,0,1,3.041,4.841c.266.5,1.033.059.768-.443a34.2,34.2,0,0,0-3.041-4.841c-.325-.443-1.092,0-.768.443Z" transform="translate(-906.234 -322.079)"/></g><g transform="translate(132.603 32.711)"><path class="b" d="M917.594,311.844a143.884,143.884,0,0,0,10.863-11.188c.384-.443-.266-1.063-.62-.62a138.814,138.814,0,0,1-10.863,11.188c-.413.384.207,1,.62.62Z" transform="translate(-916.838 -299.884)"/></g><g transform="translate(114.729 32.32)"><path class="b" d="M856.382,299.192c1.889,2.45,3.779,4.93,5.668,7.38.354.443,1.122,0,.767-.443-1.889-2.45-3.779-4.93-5.668-7.38-.354-.443-1.122-.03-.768.443Z" transform="translate(-856.291 -298.56)"/></g><g transform="translate(120.366 39.768)"><path class="b" d="M875.685,324.68l11.867,4.517c.531.207.768-.649.236-.856l-11.867-4.517c-.531-.207-.767.649-.236.856Z" transform="translate(-875.385 -323.792)"/></g><path class="l" d="M501.2,250.656q5.624,14.878,11.277,29.785c2.8.8,5.638,1.565,8.443,2.362,2.1-.945,4.192-1.919,6.288-2.863l-7.173-3.1q-5.756-15.055-11.513-30.14c-1.063.472-2.184,1-3.336,1.624A37.47,37.47,0,0,0,501.2,250.656Z" transform="translate(-491.292 -229.689)"/><path class="l" d="M540.967,240.3a52.8,52.8,0,0,1,6.14,18.066,49.577,49.577,0,0,1,.5,6.967,114.409,114.409,0,0,1-17.3,10.952,119.8,119.8,0,0,1-11.011,4.989h5.756a121.66,121.66,0,0,0,13.461-6.612,116.827,116.827,0,0,0,13.461-8.974c-.708-3.542-1.476-7.173-2.3-10.834-.915-4.044-1.86-7.97-2.8-11.837a9.444,9.444,0,0,0-2.686-1.86A9.669,9.669,0,0,0,540.967,240.3Z" transform="translate(-504.049 -225.178)"/><path class="l" d="M512.8,240.45c-.649-.531.207-3.719,2.568-4.723a5.236,5.236,0,0,1,5.756,1.624,37.711,37.711,0,0,0-3.956,1.358C514.215,239.919,513.241,240.8,512.8,240.45Z" transform="translate(-499.319 -221.727)"/><path class="l" d="M527.2,204.7a18.535,18.535,0,0,0,5.136-4.871,17.572,17.572,0,0,0,3.188-10.332c.5-.148,3.483-1.063,5.136.384,2.243,1.948.177,6.612-.266,7.587a12.229,12.229,0,0,1-4.1,4.989A13.632,13.632,0,0,1,527.2,204.7Z" transform="translate(-509.617 -189.074)"/><path class="l" d="M470.106,215.365c1.476-.236,2.3,2.391,5.373,4.989a19.031,19.031,0,0,0,8.206,3.867,11.386,11.386,0,0,1-5.52,2.362c-3.808.472-9-.974-10.243-4.605C467.006,219.232,468.453,215.6,470.106,215.365Z" transform="translate(-467.637 -207.593)"/><path class="m" d="M884.254,253.3c-3.808,5.077-7.646,10.155-11.454,15.232,1.358,2.48,2.716,4.959,4.1,7.439,1.181.472,2.362.974,3.542,1.446-.856-2.066-1.712-4.162-2.6-6.229,3.395-5.579,6.819-11.129,10.214-16.708C886.792,254.1,885.523,253.713,884.254,253.3Z" transform="translate(-753.197 -234.341)"/><path class="m" d="M890.257,281.1c-3.9,4.339-7.823,8.649-11.719,12.989L864.9,290.1l2.3,2.922c4.28,1.417,8.531,2.834,12.812,4.251,3.69-4.162,7.35-8.3,11.04-12.457Q890.7,282.96,890.257,281.1Z" transform="translate(-747.629 -253.934)"/><path class="m" d="M924.483,255.134c.148-.62,2.332-1.24,3.808-.118.945.708,1.505,2.1,1.092,2.509C928.616,258.293,924.276,256.079,924.483,255.134Z" transform="translate(-789.618 -235.112)"/><path class="m" d="M915.767,224.437c.649-.354,1.948.768,2.3,1.063s1.594,1.417,2.45,4.635c.443,1.624,1.092,4.044.413,4.369-.767.384-3.1-2.037-4.369-4.635C915.59,227.8,914.911,224.909,915.767,224.437Z" transform="translate(-783.205 -213.949)"/><path class="m" d="M947.283,255.991c.059-.708-1.535-1.269-1.978-1.417-.413-.148-1.978-.649-5.314.089-1.683.384-4.162.945-4.192,1.653-.029.827,3.218,1.624,6.14,1.476C944.272,257.674,947.194,256.906,947.283,255.991Z" transform="translate(-797.599 -235.025)"/><path class="n" d="M505.3,287.113c1.742-.62,4.31-1.535,7.38-2.834,5.225-2.184,8.915-3.719,13.018-6.494a46.871,46.871,0,0,0,7.7-6.612,38.773,38.773,0,0,0,4.015-21.372c1.063.62,2.1,1.24,3.159,1.83a62.482,62.482,0,0,1,4.1,20.28,86.55,86.55,0,0,1-8.147,6.288c-10.243,7-17.3,8.649-18.863,9a28.122,28.122,0,0,1-5.107.649A27.079,27.079,0,0,1,505.3,287.113Z" transform="translate(-494.182 -231.874)"/><path class="n" d="M858.3,276.874c1.889,2.686,3.749,5.373,5.638,8.029,3.926,1.535,7.882,3.041,11.808,4.576,3.749-4.074,7.5-8.118,11.247-12.192-.915-3.129-1.86-6.258-2.775-9.387l-11.513,15.586Q865.488,280.21,858.3,276.874Z" transform="translate(-742.978 -244.631)"/></g></g><g transform="translate(364.357 150.962)"><g transform="translate(0 95.273)"><path d="M632.422,1055.648c1.181-1.476,1.889-2.155,2.155-1.978q1.018.62-7.291,17.918-20.413.974-20.693-1-.221-1.727,15.144-5.727l6.731-14.258C629.795,1052.282,631.094,1053.965,632.422,1055.648Z" transform="translate(-606.589 -959.161)"/><path class="o" d="M672.534,743.221c-1.122,7.941-2.421,16.029-3.838,24.236-4.192,24.088-9.3,46.907-15,68.368a13.8,13.8,0,0,0,6.524,3.985,14.889,14.889,0,0,0,9.21-.531q10.007-34.981,19.985-69.991c8.767-9.564,7.085-21.933.384-26.42C685.375,739.915,678.526,740.328,672.534,743.221Z" transform="translate(-639.793 -740.843)"/><path class="p" d="M673.311,750.6c.856.089.325,13.343-.354,25.269a302.857,302.857,0,0,1-12.575,70.641,11.989,11.989,0,0,1-2.184-.827,12.194,12.194,0,0,1-3.9-3.07c1.8-6.435,4.4-16.118,7.085-27.985C669.8,777.462,672.1,750.511,673.311,750.6Z" transform="translate(-640.216 -747.719)"/><path class="q" d="M668.6,855.5c-.649,7.793-1.594,16-2.922,24.56a355.046,355.046,0,0,1-8.177,38.73,3.88,3.88,0,0,1-1.476-.59,3.755,3.755,0,0,1-1.328-1.535q3.542-14.745,6.967-29.756Q665.253,871.057,668.6,855.5Z" transform="translate(-640.498 -821.654)"/></g><g transform="translate(43.803 93.411)"><path d="M879.6,1052.648c-1.3-1.476-2.1-2.155-2.391-1.978q-1.107.62,8,17.918c14.966.649,22.523.325,22.73-1q.266-1.727-16.649-5.727c-2.48-4.753-4.93-9.505-7.409-14.258C882.467,1049.282,881.05,1050.965,879.6,1052.648Z" transform="translate(-841.044 -955.185)"/><path class="o" d="M755.249,745.853a15.271,15.271,0,0,0,2.3,11.04q14.612,39.054,29.2,78.139a19.329,19.329,0,0,0,9.033-.915,18.184,18.184,0,0,0,8.059-5.609,244.676,244.676,0,0,1-11.719-29.844c-5.874-18.45-13.786-36.28-19.394-54.818-.945-3.1-2.539-8.531-6.14-9.21C762.393,733.868,756.518,739.654,755.249,745.853Z" transform="translate(-754.976 -734.558)"/><path class="r" d="M785.5,734.792c-2.037,1.476,1.742,9.358,3.542,13.284,4.339,9.476,6.583,19.778,10.745,29.343,4.487,10.3,11.07,26.981,20.369,54.966a11.911,11.911,0,0,0,2.3-1.446,11.369,11.369,0,0,0,2.3-2.509c-2.332-5.048-5.7-12.693-9.24-22.228-1.269-3.395-1.417-4.015-2.8-8.266-1.476-4.516-3.779-11.365-4.251-12.752-2.214-6.376-2.214-5.52-6.376-16.826-.886-2.391-2.1-5.7-3.542-10.007-.708-2.1-1.24-3.779-1.624-4.989-.059-.177-2.007-6.229-4.753-13.4-.708-1.889-1.476-3.749-3.395-4.723C788.658,735.146,786.5,734.054,785.5,734.792Z" transform="translate(-776.075 -734.538)"/><path class="s" d="M835.687,828.5c-.177.059,3.779,12.369,22.7,68.515.768-.738,1.535-1.476,2.3-2.243-1.151-2.568-2.952-6.642-5.018-11.719-4.753-11.6-6.79-18.361-12.1-33.269C840.616,841.488,835.864,828.44,835.687,828.5Z" transform="translate(-811.857 -800.762)"/></g><g transform="translate(54.044)"><path class="k" d="M811.61,430.441c-.679.059-1.151-1.948-1.889-1.919-.59.03-1,1.358-1.033,1.535-.354,1.21-.177,2.45,1.033,5.7.354.945.827,2.155,1.446,3.542a70.023,70.023,0,0,1-1.978,9.24,58.076,58.076,0,0,1-9.505,20.1,53.386,53.386,0,0,1-8.561,8.944,17.805,17.805,0,0,0-1.446,7.5c.029.974.148,5.373,1.771,5.786,1.092.266,2.391-1.328,3.041-2.125,6.612-8.354,9.948-12.516,11.276-14.937,3.1-5.55,5.609-10.066,7.734-16.856a71.886,71.886,0,0,0,2.716-12.487c.679-1.122,1.624-2.716,2.716-4.664,2.982-5.314,4.044-7.7,4.694-10.361.679-2.745.8-5.107.118-5.373-.5-.177-1.122.738-1.683.5-.827-.354.059-2.8-.827-3.336-.325-.207-.974-.177-2.3.708-.915-1.919-1.505-2.273-1.889-2.243-.8.118-1.181,2.3-1.358,4.782-.236-1.21-.827-3.749-1.565-3.749-.62,0-1.269,1.86-1.446,3.336-.266,2.037.325,3.513-.413,5.579C812.112,429.939,811.905,430.382,811.61,430.441Z" transform="translate(-789.667 -419.224)"/><g transform="translate(2.046 19.273)"><path class="b" d="M815.461,483.8c-.089,3.9-1.328,7.646-2.509,11.336a84.851,84.851,0,0,1-4.044,10.243,48.108,48.108,0,0,1-12.162,16.147c-.443.354.207,1,.62.62a48.768,48.768,0,0,0,12.516-16.8,84.12,84.12,0,0,0,3.985-10.214c1.181-3.66,2.391-7.409,2.45-11.306.059-.59-.827-.59-.856-.03Z" transform="translate(-796.597 -483.387)"/></g><g transform="translate(1.804 24.405)"><path class="b" d="M820.139,501.2c-.8,9.328-4.871,18.1-9,26.361-3.779,7.557-8.354,14.907-15.173,20.073-.443.354,0,1.122.443.767,6.967-5.284,11.66-12.693,15.5-20.4,4.221-8.413,8.295-17.328,9.122-26.8.03-.561-.856-.561-.886,0Z" transform="translate(-795.779 -500.775)"/></g><g transform="translate(18.575 8.877)"><path class="b" d="M855.664,458.513a20.5,20.5,0,0,1-2.1-7.055c-.03-.325-.089-1.712.148-1.889.738-.5.945.354,1.122.708a2.931,2.931,0,0,0,1.181,1.417.443.443,0,0,0,.443-.768c-1.033-.59-.945-2.214-2.125-2.657-1-.384-1.358.443-1.565,1.3-.708,3.041.827,6.671,2.066,9.387a.47.47,0,0,0,.827-.443Z" transform="translate(-852.592 -448.173)"/></g><g transform="translate(21.869 1.042)"><path class="b" d="M864.531,432.72c1-2.3.768-4.664.856-7.114.029-.561-.089-1.86.236-2.3.59-.738,1.033.827,1.181,1.328a14.7,14.7,0,0,1,.384,4.812c-.059.561.827.561.886,0,.089-1.122-.03-8.944-2.539-7.675-1.033.531-.974,2.627-1,3.542-.089,2.332.236,4.723-.738,6.937-.236.531.531,1,.738.472Z" transform="translate(-863.749 -421.63)"/></g><g transform="translate(25.42)"><path class="b" d="M876.641,427.015c.177-1.063.325-2.125.413-3.218a15.574,15.574,0,0,1,.3-3.719c.325-1.063.5-1.269.945-.325a6.641,6.641,0,0,1,.531,2.1,10.546,10.546,0,0,1-.148,4.192c-.177.561.679.768.856.236a11.78,11.78,0,0,0,.089-5.077c-.148-.856-.62-3.1-1.771-3.1-1,0-1.417,1.683-1.505,2.391-.3,2.066-.236,4.192-.561,6.258-.089.59.768.827.856.266Z" transform="translate(-875.778 -418.1)"/></g><g transform="translate(28.611 1.269)"><path class="b" d="M887.479,429.277a21.813,21.813,0,0,0,.118-2.775c.03-.8-.03-2.922.974-2.834.738.059.679.679.738,1.328.029.443.029.915.029,1.358a17.216,17.216,0,0,1-.266,3.247c-.118.561.738.8.856.236.3-1.446,1.3-7.38-1.358-7.439-2.45-.059-1.8,5.55-1.978,6.908-.059.531.827.531.886-.03Z" transform="translate(-886.59 -422.398)"/></g><g transform="translate(26.227 3.989)"><path class="b" d="M884.945,433.173l1.033-.089a6.849,6.849,0,0,1,.148.827,13.887,13.887,0,0,1,.089,1.565,11.573,11.573,0,0,1-.443,2.834,23.912,23.912,0,0,1-2.155,5.166c-1.624,3.07-3.365,6.111-5.048,9.151-.266.5.5.945.768.443,1.417-2.568,2.863-5.136,4.28-7.7a27.5,27.5,0,0,0,3.218-7.616c.3-1.476.915-4.871-.62-5.9a1.4,1.4,0,0,0-2.125,1.358c.029.531.915.531.856-.03Z" transform="translate(-878.513 -431.612)"/></g><path class="t" d="M825.213,425.6c-.443.03-.561,1.86-.856,4.044-.472,3.838-1,8.147-2.834,11.749a18.169,18.169,0,0,1-3.572,4.812,75.056,75.056,0,0,1-1.8,8.649c-1.653,6.2-4.074,15-10.922,23.232a46.866,46.866,0,0,1-8.944,8.266c-.118,2.893-.236,5.756-.384,8.649a47.966,47.966,0,0,0,7.232-6.76c3.6-4.162,5.933-8.885,10.45-18.155,3.6-7.409,4.576-10.273,5.166-12.339a58.838,58.838,0,0,0,1.978-9.417,72.736,72.736,0,0,0,4.516-8.177c1.8-3.838,4.694-10.037,2.922-11.572a2.293,2.293,0,0,0-1.8-.3C826.1,427.045,825.626,425.569,825.213,425.6Z" transform="translate(-794.06 -423.385)"/><path class="r" d="M854.4,484.2c-1.565,1.653-3.129,3.336-4.694,4.989a43.489,43.489,0,0,1-1.033,6.022,44.662,44.662,0,0,1-3.572,9.417,90.851,90.851,0,0,0-6.2,16.738,142.452,142.452,0,0,0,9.033-18.332,40.7,40.7,0,0,0,2.155-6.878c.59-2.863.443-4.192,1.21-6.494A17.068,17.068,0,0,1,854.4,484.2Z" transform="translate(-824.367 -464.688)"/></g><g transform="translate(0.689 0.088)"><path class="k" d="M611.468,424.357c-.945.266-.974,2.834-.827,4.28a13.811,13.811,0,0,0,1.683,5.314c1.889,3.483,3.719,6.76,5.579,9.919a65.083,65.083,0,0,0,1.476,8.384c1.446,5.9,3.306,9.919,5.874,15.439,4.074,8.708,6.494,13.7,11.66,19.011a51.056,51.056,0,0,0,4.93,4.4,10.658,10.658,0,0,0,2.627-8.088,10.438,10.438,0,0,0-3.365-6.435,42.45,42.45,0,0,1-5.786-5.815c-4.664-5.786-6.612-11.572-9.446-20.25-.768-2.362-1.8-5.7-2.834-9.8.561-1.83,1.033-3.277,1.358-4.192.974-2.8,1.594-4.221,1.151-6.022-.118-.472-.354-1.358-.945-1.535-.679-.177-1.712.649-2.509,2.155a49.292,49.292,0,0,1-.738-5.933c-.118-2.184-.059-3.779-.531-3.9-.5-.118-1.269,1.653-1.358,1.83a7.992,7.992,0,0,0-.62,4.192c.236-5.491-.384-6.878-1.063-7.055-.561-.148-1.269.59-1.476.827a3.932,3.932,0,0,0-.62,3.779c-.62-3.277-1.269-3.483-1.476-3.483-.531-.03-1.063,1.151-1.269,1.83a3.848,3.848,0,0,0,0,1.948C612.472,424.711,611.911,424.239,611.468,424.357Z" transform="translate(-610.087 -419.693)"/><g transform="translate(12.686 19.236)"><path class="b" d="M651.9,483.987a40.667,40.667,0,0,0,2.3,11.04,87.8,87.8,0,0,0,3.956,10.479,49.12,49.12,0,0,0,12.162,16.8c.443.384,1.063-.266.62-.62a48.093,48.093,0,0,1-11.808-16.147,79.622,79.622,0,0,1-3.926-10.243c-1.181-3.69-2.362-7.439-2.45-11.336a.429.429,0,0,0-.856.03Z" transform="translate(-651.898 -483.562)"/></g><g transform="translate(7.607 24.409)"><path class="b" d="M634.693,501.5c.768,9.328,4.664,18.1,8.679,26.45,3.719,7.764,8.295,15.321,15.144,20.693.443.354,1.063-.266.62-.62-6.7-5.225-11.129-12.546-14.819-20.073-4.044-8.325-8-17.121-8.767-26.42-.03-.59-.915-.59-.856-.03Z" transform="translate(-634.69 -501.087)"/></g><g transform="translate(11.787 8.902)"><path class="b" d="M650.667,459.312c1.24-2.775,2.8-6.524,1.948-9.623-.207-.768-.59-1.387-1.476-1.033-1.151.443-1.033,2.066-2.066,2.657a.443.443,0,0,0,.443.768,2.567,2.567,0,0,0,1-1.092c.118-.236.236-.768.443-.945,1.151-.856.945,1,.945,1.535a19.958,19.958,0,0,1-2.037,7.321c-.207.472.561.915.8.413Z" transform="translate(-648.852 -448.554)"/></g><g transform="translate(8.359 1.043)"><path class="b" d="M641.478,432.549c-.915-2.125-.649-4.428-.708-6.671-.03-.945.089-3.247-1-3.808-2.45-1.269-2.6,6.583-2.509,7.675.059.561.945.561.886,0a14.9,14.9,0,0,1,.3-4.576c.089-.384.413-2.155,1.151-1.83.325.148.3,2.184.3,2.539.059,2.45-.148,4.812.827,7.114.236.531,1,.089.768-.443Z" transform="translate(-637.239 -421.931)"/></g><g transform="translate(5.14)"><path class="b" d="M630.368,427.049c-.325-2.066-.266-4.162-.561-6.2-.089-.738-.472-2.421-1.505-2.45-1.063-.03-1.535,2.1-1.683,2.863a11.956,11.956,0,0,0,.029,5.314.444.444,0,0,0,.856-.236,10.8,10.8,0,0,1-.177-3.779,8.193,8.193,0,0,1,.443-2.214c.443-1.122.62-1.358,1.033,0a17.158,17.158,0,0,1,.266,3.483,34.524,34.524,0,0,0,.443,3.454c.089.561.945.325.856-.236Z" transform="translate(-626.334 -418.399)"/></g><g transform="translate(2.385 1.21)"><path class="b" d="M620.69,429.405c-.177-1.328.472-7-1.948-6.908-2.6.089-1.594,6.022-1.328,7.439.118.561.974.325.856-.236a17.023,17.023,0,0,1-.266-3.247c0-.8-.236-2.6.708-2.686.974-.089.915,2.066.945,2.834.03.945,0,1.86.118,2.775.089.59,1,.62.915.03Z" transform="translate(-617 -422.496)"/></g><g transform="translate(0 3.934)"><path class="b" d="M611.956,433.312a1.37,1.37,0,0,0-2.066-1.358c-1.446,1-.915,4.221-.649,5.638A25.363,25.363,0,0,0,612.163,445c1.446,2.745,2.952,5.461,4.4,8.177.266.5,1.033.059.768-.443-1.683-3.129-3.424-6.229-5.048-9.387a22.275,22.275,0,0,1-1.948-4.93,12.877,12.877,0,0,1-.413-2.834c0-.354,0-.708.03-1.092a4.672,4.672,0,0,1,.148-1.122c.029-.443.384-.472,1-.089-.089.59.8.59.856.03Z" transform="translate(-608.922 -431.725)"/></g><path class="n" d="M614.457,424.948c.827.3.236,3.838.089,5.166-.325,3.04.354,7.646,5.166,14.2a88.955,88.955,0,0,0,8.649,24.265,87.633,87.633,0,0,0,12.9,18.243c.3,2.6.561,5.2.856,7.823a36.472,36.472,0,0,1-6.878-6.2,41.867,41.867,0,0,1-5.373-8.384c-4.871-9.24-7.321-13.874-9.033-19.483a73.705,73.705,0,0,1-2.716-12.989,47.969,47.969,0,0,1-4.989-7.911c-2.066-4.1-2.6-6.7-2.539-9.033.059-2.657.531-3.011.738-3.1.443-.177,1.033.177,1.417.472a2.864,2.864,0,0,1,.561-2.45C613.453,425.45,614.044,424.8,614.457,424.948Z" transform="translate(-610.094 -423)"/><path class="n" d="M615.61,460.685c.3-.148,2.1,2.391,3.395,4.517a43.319,43.319,0,0,1,4.605,10.539c1.948,6.76,4.457,12.487,9.505,23.911,1.535,3.454,3.867,8.472,7.144,14.406a43.331,43.331,0,0,1-3.749-3.956c-1.269-1.506-5.432-6.612-9.771-18.332a112.6,112.6,0,0,1-5.077-18.332c-1-1.712-2.391-4.162-3.867-7.232C617.145,464.818,615.285,460.862,615.61,460.685Z" transform="translate(-613.609 -448.198)"/></g><g transform="translate(28.311 54.059)"><path class="k" d="M719.7,602.1a27.334,27.334,0,0,0-5.255,0c-2.775.3-5.255.531-7.114,2.155-1.387,1.21-1.8,2.716-2.568,5.7a25.807,25.807,0,0,0-.974,7.291c.118,5.9,2.362,6.671,3.542,13.815a48.371,48.371,0,0,1,.5,9.358,70.19,70.19,0,0,1-.974,10.716,23.483,23.483,0,0,0,5.874,3.424,22.138,22.138,0,0,0,12.133,1.358,21.072,21.072,0,0,0,11.276-5.815,31.878,31.878,0,0,1-2.1-13.107c.236-3.69,1-4.487,2.1-12.428a51.346,51.346,0,0,0,.738-9.682c-.207-5.314-.325-8-2.1-9.8C733.044,603.306,728.587,602.893,719.7,602.1Z" transform="translate(-703.404 -601.75)"/><g transform="translate(0 0.077)"><path class="b" d="M717.314,601.553a26.839,26.839,0,0,0-6.524.354c-1.83.325-3.719.649-4.93,2.155a17.241,17.241,0,0,0-3.336,9.889c-.443,8.738,3.9,16.708,5.373,25.151.089.561.945.325.856-.236-1.328-7.616-4.989-14.73-5.343-22.524a18.843,18.843,0,0,1,2.214-10.361,5.123,5.123,0,0,1,2.509-2.539,19.654,19.654,0,0,1,2.6-.649,27.091,27.091,0,0,1,6.553-.384c.59.059.59-.827.03-.856Z" transform="translate(-702.493 -601.492)"/></g><g transform="translate(3.066 28.765)"><path class="b" d="M713.18,699.1a66.51,66.51,0,0,1-.3,19.513c-.089.561.768.8.856.236a66.114,66.114,0,0,0,.325-19.749c-.089-.561-.974-.561-.886,0Z" transform="translate(-712.878 -698.675)"/></g><g transform="translate(18.009)"><path class="b" d="M763.943,602.166c3.956-.236,8.826.236,12.192,2.6,2.037,1.446,2.125,3.867,2.332,6.14a35.507,35.507,0,0,1,.148,6.14c-.59,8.059-3.838,15.7-3.808,23.852a.443.443,0,0,0,.886,0c-.03-9.181,4.162-17.83,3.867-27.04-.118-3.513,0-8.029-3.365-10.1-3.513-2.155-8.206-2.716-12.251-2.48-.59.03-.59.915,0,.886Z" transform="translate(-763.5 -601.23)"/></g><g transform="translate(30.227 30.389)"><path class="b" d="M804.892,704.6a66.969,66.969,0,0,0,2.066,17.121.444.444,0,0,0,.856-.236,66.438,66.438,0,0,1-2.037-16.885.443.443,0,0,0-.886,0Z" transform="translate(-804.888 -704.175)"/></g><g transform="translate(2.979 47.663)"><path class="b" d="M712.737,764.553a22.9,22.9,0,0,0,14.376,5.373c5.933.03,10.893-2.863,15.468-6.376.443-.354,0-1.122-.443-.768-4.339,3.306-8.974,6.14-14.553,6.229a21.893,21.893,0,0,1-14.2-5.107c-.472-.354-1.092.266-.649.649Z" transform="translate(-712.585 -762.691)"/></g><path class="u" d="M764.343,603.7a40.1,40.1,0,0,1,2.686,9.712c1.151,8.354-.8,14.76-3.129,22.169a100.4,100.4,0,0,1-9.8,21.667,21.61,21.61,0,0,0,5.874-.266,22.984,22.984,0,0,0,11.483-5.874c-.207-1.476-.561-3.779-1.063-6.553-.8-4.339-1.063-4.664-1.151-6.229-.118-1.919.207-1.683,1.948-9.8a70.923,70.923,0,0,0,1.476-9.86c.03-.325.03-.649.059-.974.148-4.871.207-7.852-1.86-10.391A11.087,11.087,0,0,0,764.343,603.7Z" transform="translate(-738.866 -602.971)"/><path class="t" d="M788.733,651.6c-.207-.059-1.24,1.565-3.66,8.029a188.621,188.621,0,0,0-8.472,30.612,18.579,18.579,0,0,0,5.077-1.446,16.9,16.9,0,0,0,5.432-3.926,47.465,47.465,0,0,1-1.86-13.313C785.279,660.511,789.2,651.744,788.733,651.6Z" transform="translate(-754.724 -636.727)"/></g><g transform="translate(25.19 23.728)"><path class="k" d="M713.941,516.463a8.965,8.965,0,0,0-.561,5.874,2.784,2.784,0,0,0-2.243.945,2.7,2.7,0,0,0,.089,2.893,1.819,1.819,0,0,0,1.033,1,2.02,2.02,0,0,0,1.771-.561,15.8,15.8,0,0,0,2.332,3.985,16.963,16.963,0,0,0,5.077,4.31c.059,1.417.118,2.8.148,4.221a4.044,4.044,0,0,0,2.007,1,4.5,4.5,0,0,0,3.69-1.092q-.044-2.657-.089-5.314a14.309,14.309,0,0,0,2.509-2.509,13.561,13.561,0,0,0,2.568-5.874,4.626,4.626,0,0,0,1.535.236c.649,0,1.476-.03,1.86-.561.413-.59-.03-1.446-.472-2.362-.443-.856-.767-.974-.886-1a1.447,1.447,0,0,0-1.122.236,10.056,10.056,0,0,0-.561-4.694,10.168,10.168,0,0,0-4.251-5.166C723.682,509.5,716.3,511.652,713.941,516.463Z" transform="translate(-705.18 -507.277)"/><g transform="translate(7.741 8.925)"><path class="b" d="M718.633,529.034c-1.742,7.646,1.092,17.505,9.771,19.158.561.118.8-.738.236-.856-8.206-1.565-10.775-10.863-9.151-18.066.118-.561-.738-.8-.856-.236Z" transform="translate(-718.144 -528.714)"/></g><g transform="translate(17.798 12.692)"><path class="b" d="M752.534,557.157c1.21.354,2.863-.8,3.838-1.446a12.919,12.919,0,0,0,3.365-3.218,15.251,15.251,0,0,0,2.775-10.6c-.059-.561-.945-.561-.886,0a14.457,14.457,0,0,1-2.007,9.24,13.438,13.438,0,0,1-2.716,3.07c-.856.708-2.952,2.421-4.133,2.1a.444.444,0,0,0-.236.856Z" transform="translate(-752.214 -541.475)"/></g><g transform="translate(15.497 27.122)"><path class="b" d="M744.443,590.9a7.37,7.37,0,0,1,.354,3.749c-.089.561.768.8.856.236a8.219,8.219,0,0,0-.354-4.221c-.177-.531-1.033-.325-.856.236Z" transform="translate(-744.419 -590.357)"/></g><g transform="translate(21.57 26.242)"><path class="b" d="M765.053,587.8a12.628,12.628,0,0,0,.354,4.457.444.444,0,0,0,.856-.236,12.715,12.715,0,0,1-.325-4.221c.059-.561-.827-.561-.886,0Z" transform="translate(-764.992 -587.375)"/></g><g transform="translate(15.784 30.179)"><path class="b" d="M745.512,602.51c2.037,2.273,6.288,2.214,7.026-1.24.118-.561-.738-.8-.856-.236-.62,2.8-3.926,2.627-5.55.856-.384-.413-1,.207-.62.62Z" transform="translate(-745.391 -600.714)"/></g><g transform="translate(15.945 26.707)"><path class="b" d="M746.075,590.5a3.473,3.473,0,0,0,5.491-.886c.266-.5-.5-.945-.767-.443a2.581,2.581,0,0,1-4.1.708c-.413-.384-1.033.236-.62.62Z" transform="translate(-745.938 -588.952)"/></g><g transform="translate(17.432 28.013)"><path class="b" d="M751.4,594.268a3.162,3.162,0,0,1,1.181.118.444.444,0,0,0,.236-.856,4.636,4.636,0,0,0-1.417-.148c-.561.03-.561.915,0,.886Z" transform="translate(-750.975 -593.375)"/></g><g transform="translate(5.025 15.041)"><path class="b" d="M712.237,553.82c-1.21.974-2.273-.384-2.391-1.535-.148-1.122.827-2.509,2.066-1.742.472.3.915-.472.443-.768-1.83-1.151-3.6.8-3.395,2.627.236,1.948,2.155,3.454,3.9,2.037.443-.354-.177-.974-.62-.62Z" transform="translate(-708.944 -549.431)"/></g><g transform="translate(27.233 14.007)"><path class="b" d="M785.186,547.043c.945-.886,1.86.8,1.83,1.565a1.448,1.448,0,0,1-.649,1.21c-.325.207-1.092.472-1.358.059-.3-.472-1.063-.03-.768.443a1.753,1.753,0,0,0,2.184.472,2.311,2.311,0,0,0,1.446-2.066c.089-1.624-1.771-3.779-3.336-2.3-.384.384.236,1.033.649.62Z" transform="translate(-784.175 -545.93)"/></g><g transform="translate(16.276 8.736)"><path class="b" d="M747.159,528.5a27.929,27.929,0,0,1-.089,6.081c-.118,1.387.62,1.978,1.712,2.863.443.354,1.063-.266.62-.62-.767-.649-1.446-1.092-1.417-2.273a17.5,17.5,0,0,1,.207-1.742,20.994,20.994,0,0,0-.118-4.31c-.089-.561-.974-.561-.915,0Z" transform="translate(-747.058 -528.075)"/></g><g transform="translate(10.531 11.432)"><path class="b" d="M728.514,539.124c-.029-.649.915-1.063,1.447-1.033.62,0,.945.5,1.269.974s1.092.03.768-.443c-.59-.856-1.269-1.565-2.391-1.387-.945.177-2.037.856-2.007,1.919a.459.459,0,0,0,.915-.03Z" transform="translate(-727.598 -537.207)"/></g><g transform="translate(20.759 10.667)"><path class="b" d="M763.058,536.5a1.774,1.774,0,0,1,3.336.413c.118.561.974.325.856-.236a2.672,2.672,0,0,0-4.959-.649c-.236.5.5.974.768.472Z" transform="translate(-762.244 -534.614)"/></g><g transform="translate(9.745 7.944)"><path class="b" d="M725.78,527.666a3.215,3.215,0,0,1,2.273-1.387c.561-.059.561-.945,0-.886a4.113,4.113,0,0,0-3.041,1.83c-.325.472.443.915.768.443Z" transform="translate(-724.934 -525.39)"/></g><g transform="translate(21.126 7.676)"><path class="b" d="M763.934,525.373a3.728,3.728,0,0,1,2.8.974c.413.384,1.063-.236.62-.62a4.759,4.759,0,0,0-3.454-1.24.443.443,0,0,0,.03.886Z" transform="translate(-763.487 -524.482)"/></g><g transform="translate(10.798 15.12)"><path class="b" d="M729.386,550.2v-.059a.443.443,0,0,0-.886,0v.059a.454.454,0,0,0,.443.443.435.435,0,0,0,.443-.443Z" transform="translate(-728.5 -549.7)"/></g><g transform="translate(12.598 14.53)"><path class="b" d="M735.043,548.586h.059a.443.443,0,0,0,0-.886h-.059a.454.454,0,0,0-.443.443.476.476,0,0,0,.443.443Z" transform="translate(-734.6 -547.7)"/></g><g transform="translate(12.539 16.478)"><path class="b" d="M734.843,555.186h.059a.443.443,0,0,0,0-.886h-.059a.443.443,0,0,0,0,.886Z" transform="translate(-734.4 -554.3)"/></g><g transform="translate(22.104 13.88)"><path class="b" d="M767.243,546.386h.059a.443.443,0,0,0,0-.886h-.059a.454.454,0,0,0-.443.443.476.476,0,0,0,.443.443Z" transform="translate(-766.8 -545.5)"/></g><g transform="translate(24.724 13.821)"><path class="b" d="M776.1,546.186a.443.443,0,0,0,0-.886.443.443,0,0,0,0,.886Z" transform="translate(-775.675 -545.3)"/></g><g transform="translate(23.727 15.238)"><path class="b" d="M772.743,550.986a.443.443,0,0,0,0-.886.443.443,0,0,0,0,.886Z" transform="translate(-772.3 -550.1)"/></g><g transform="translate(14.344 18.717)"><path class="b" d="M740.568,563.159a4.191,4.191,0,0,0,7.675-.738c.177-.531-.679-.768-.856-.236a3.291,3.291,0,0,1-6.052.531c-.266-.5-1.033-.059-.768.443Z" transform="translate(-740.513 -561.885)"/></g><path class="v" d="M696.15,511.238a20.8,20.8,0,0,0-3.277,8.177c-.443,2.686-1.21,7.38,1.742,11.1.8,1,3.719,4.28,7.734,3.749,2.686-.354,5.55-2.362,6.081-5.166a5.368,5.368,0,0,0-.3-3.07,13.775,13.775,0,0,1-5.314-4.457,12.166,12.166,0,0,1-1.712-3.395,1.93,1.93,0,0,1-1.269.443,1.891,1.891,0,0,1-1.358-.708c-.915-1.033-.827-3.159.384-3.867a2.387,2.387,0,0,1,1.712-.148,9.679,9.679,0,0,1,.886-5.874c.827-1.653,2.1-2.863,5.018-4.694,2.421-1.506,3.483-1.387,3.867-1.328a4.277,4.277,0,0,1,2.509,1.8c1.86,2.362,4.28,5.4,7.173,9.151a2.106,2.106,0,0,1,1.712-.089,2.175,2.175,0,0,1,1,1.151,2.123,2.123,0,0,1,.266,1.358,2.083,2.083,0,0,1-1.447,1.594,2.149,2.149,0,0,1-1.83-.3,14.117,14.117,0,0,1-1.83,4.605,14.552,14.552,0,0,1-3.395,3.749,6.574,6.574,0,0,0,.3,3.483,7.386,7.386,0,0,0,5.314,4.428c3.985.856,7.2-2.125,8.029-2.922a10.507,10.507,0,0,0-1.358-16.944,43.821,43.821,0,0,0-3.277-6.2c-2.657-4.162-4.487-6.967-7.823-8a9.8,9.8,0,0,0-5.136-.089,10.009,10.009,0,0,0-4.635,0C701.021,499.991,697.3,504.892,696.15,511.238Z" transform="translate(-692.289 -498.48)"/><path class="t" d="M757.46,530.6c-.236.089.236,1.624.472,3.159a16.9,16.9,0,0,1-.886,7.646,14.5,14.5,0,0,1-6.347,7.085c.915.207,1.86.413,2.775.649.266,1.594.5,3.218.768,4.812.59-.708,1.21-1.417,1.8-2.125a7.256,7.256,0,0,0,1.476,1.919,7.745,7.745,0,0,0,4.487,1.978,8.851,8.851,0,0,0,6.111-2.125,11.069,11.069,0,0,0,3.926-13.372,15.811,15.811,0,0,1-2.893,5.845c-.413.531-4.133,5.166-6.435,4.369-1.978-.679-2.657-5.343-1.683-11.454a1.426,1.426,0,0,0,2.509-.384,2.257,2.257,0,0,0-.59-2.391,2.646,2.646,0,0,0-1.8-.827,17.875,17.875,0,0,1-1.535-1.742C758.2,531.894,757.667,530.536,757.46,530.6Z" transform="translate(-733.349 -521.114)"/><path class="n" d="M749.259,552.12a1.308,1.308,0,0,1,1.919.325,1.181,1.181,0,0,1-.5,1.535C750.027,554.156,748.934,552.622,749.259,552.12Z" transform="translate(-732.292 -536.085)"/><path class="n" d="M702.07,577.191a3.578,3.578,0,0,1-3.1,1.919c-.738-.059-1.565-.5-4.428-5.077-.945-1.505-1.683-2.8-2.184-3.66a11.718,11.718,0,0,0,.886,8.59,10.252,10.252,0,0,0,4.192,4.487,7.565,7.565,0,0,0,3.779,1.092,7.429,7.429,0,0,0,5.2-2.391,5.335,5.335,0,0,0,1.8-3.336,4.725,4.725,0,0,0-.768-3.011c-.886-1.358-1.83-1.21-3.336-2.509-1.919-1.653-2.45-3.69-2.686-3.6C701.067,569.9,703.753,574.3,702.07,577.191Z" transform="translate(-691.922 -548.669)"/><path class="q" d="M763.663,553c-.177-.059-.708,1.8-2.244,4.31a25.558,25.558,0,0,1-6.819,7.321,12.375,12.375,0,0,0,5.786-3.454C763.574,557.749,763.928,553.085,763.663,553Z" transform="translate(-736.098 -536.903)"/></g></g></g></svg>