<svg xmlns="http://www.w3.org/2000/svg" width="137.752" height="43.072" viewBox="0 0 137.752 43.072"><defs><style>.a{fill:#250c80;}</style></defs><path class="a" d="M99.642,60.922l.95-2.129-1.921-4h1.05l1.34,2.95,1.309-2.95h.86l-2.67,6.13Zm5.126-2.145a1.857,1.857,0,0,1-.751-.745,2.619,2.619,0,0,1,.01-2.354,2.019,2.019,0,0,1,.77-.78,2.137,2.137,0,0,1,1.075-.275,1.783,1.783,0,0,1,.921.23,1.881,1.881,0,0,1,.63.6l.069-.661h.86v4.14h-.93v-.68a2.131,2.131,0,0,1-.641.535,1.845,1.845,0,0,1-.95.245A2.211,2.211,0,0,1,104.767,58.777Zm.6-3.2a1.32,1.32,0,0,0-.5.5,1.461,1.461,0,0,0-.185.735,1.436,1.436,0,0,0,.19.73,1.455,1.455,0,0,0,.51.525,1.315,1.315,0,0,0,.7.2,1.382,1.382,0,0,0,.875-.285,1.274,1.274,0,0,0,.465-.775v-.82a1.276,1.276,0,0,0-.5-.715,1.446,1.446,0,0,0-.87-.275A1.362,1.362,0,0,0,105.367,55.572ZM94,58.752a1.939,1.939,0,0,1-.734-.785A2.461,2.461,0,0,1,93,56.8a2.332,2.332,0,0,1,.28-1.166,1.9,1.9,0,0,1,.77-.755,2.337,2.337,0,0,1,1.11-.26,2.2,2.2,0,0,1,.905.2,1.686,1.686,0,0,1,.685.536V51.182h.93v7.75h-.94v-.65a2.124,2.124,0,0,1-.735.55,2.26,2.26,0,0,1-.955.2A2.009,2.009,0,0,1,94,58.752Zm.641-3.2a1.381,1.381,0,0,0-.51.51,1.508,1.508,0,0,0,0,1.465,1.406,1.406,0,0,0,.51.519,1.343,1.343,0,0,0,.7.191,1.452,1.452,0,0,0,.915-.291,1.317,1.317,0,0,0,.485-.779v-.78a1.308,1.308,0,0,0-.51-.735,1.469,1.469,0,0,0-.89-.284A1.372,1.372,0,0,0,94.642,55.547Zm28.45,3.385V51.7h.969v7.23Zm-2.78,0v-2.74a.839.839,0,0,0-.211-.55.781.781,0,0,0-.57-.211,1.113,1.113,0,0,0-.65.2,1.34,1.34,0,0,0-.455.56,1.9,1.9,0,0,0-.165.8v1.94h-.93v-7.75h.91v4.361a1.725,1.725,0,0,1,.665-.661,1.959,1.959,0,0,1,.994-.249,1.373,1.373,0,0,1,.96.345,1.183,1.183,0,0,1,.39.895v3.06Zm-6.18,0V55.543h-.76V54.8h.76v-1.83h.94V54.8h1.13v.741h-1.13v3.389Zm-4.16,0v-4.14h.83l.07.98a1.827,1.827,0,0,1,.454-.6,2.31,2.31,0,0,1,.626-.4,1.7,1.7,0,0,1,.58-.15l-.04.931a1.525,1.525,0,0,0-.815.18,1.449,1.449,0,0,0-.57.554,1.486,1.486,0,0,0-.205.755v1.89Zm-19.43,0V51.7h.97v7.23ZM74.474,57.78h-.009a2.463,2.463,0,0,1-1.663-.658A80.584,80.584,0,0,0,45.126,45.748C28.539,42.423,7.019,44.216,7.019,44.216a2.532,2.532,0,0,1-.8-3.931L20.865,19.772c1.087-1.256,1.7-2.526,5.021-1.609A67.769,67.769,0,0,1,52.707,28.835C62.072,35.373,70.661,45.96,74.476,51c1.246-1.645,3-3.879,5.108-6.357,4-4.7,10.136-11.251,16.661-15.8a60.245,60.245,0,0,1,9.519-5.387,70.864,70.864,0,0,1,8.627-3.255,59.7,59.7,0,0,1,8.674-2.029,7.447,7.447,0,0,1,1.956-.313,3.208,3.208,0,0,1,2.758,1.556c.1.119.2.242.308.366l14.648,20.514a2.531,2.531,0,0,1-.8,3.93c-.057-.005-5.854-.483-13.686-.483a126.985,126.985,0,0,0-24.42,2.015A77.182,77.182,0,0,0,92.354,49.01c0-.026,0-.054,0-.088A1.51,1.51,0,1,0,89.789,50,83.165,83.165,0,0,0,79.4,55.094c-1.536.9-2.655,1.624-3.272,2.04a2.583,2.583,0,0,1-.542.375l-.007.005-.062.029a2.4,2.4,0,0,1-1.035.236ZM122.2,46.922a1.51,1.51,0,1,1,1.51,1.516A1.513,1.513,0,0,1,122.2,46.922Z" transform="translate(-5.599 -17.85)"/></svg>