<svg xmlns="http://www.w3.org/2000/svg" width="220.753" height="99.33" viewBox="0 0 220.753 99.33"><defs><style>.a{fill:#696f7b;}</style></defs><path class="a" d="M110.331,99.33a2.814,2.814,0,0,1-1.7-.638l-.032-.024,0,0a4.666,4.666,0,0,1-.88-.945c-3.993-4.185-21.174-21.1-44.376-28.322-26.582-8.27-61.067-3.81-61.067-3.81-2.39-1.8-3.028-6.655-1.285-9.778L24.463,4.782c1.742-3.124,2.721-6.284,8.047-4,0,0,22.74,4.615,42.981,26.548,15.01,16.264,28.774,42.6,34.886,55.131,2-4.094,4.806-9.653,8.185-15.813,4.078-7.434,8.178-14.28,12.188-20.348a150.866,150.866,0,0,1,14.511-18.969,96.875,96.875,0,0,1,15.255-13.4,93.423,93.423,0,0,1,13.827-8.1,68.031,68.031,0,0,1,13.9-5.048A8.124,8.124,0,0,1,191.378,0c2.354,0,3.311,1.794,4.419,3.87.159.3.323.606.493.911l23.472,51.029c1.745,3.127,1.108,7.97-1.285,9.778a190.908,190.908,0,0,0-21.932-1.2A172.448,172.448,0,0,0,177.376,65.4a108.469,108.469,0,0,0-19.966,4,91.83,91.83,0,0,0-17.23,7.468c.008-.092.014-.19.014-.291a3,3,0,1,0-6,0,3.065,3.065,0,0,0,1.748,2.774A122.787,122.787,0,0,0,118.562,92.39c-2.615,2.351-4.506,4.262-5.531,5.335a4.681,4.681,0,0,1-.871.935l-.009.01-.078.057a2.787,2.787,0,0,1-1.681.6Zm37.308-4.447,1.235-2.769-2.5-5.2h1.365l1.742,3.835,1.7-3.835h1.119l-3.471,7.969Zm6.663-2.789a2.406,2.406,0,0,1-.976-.968,3.4,3.4,0,0,1,.014-3.061,2.613,2.613,0,0,1,1-1.014,2.783,2.783,0,0,1,1.4-.357,2.309,2.309,0,0,1,1.2.3,2.429,2.429,0,0,1,.819.78l.091-.859h1.118V92.3h-1.209v-.884a2.792,2.792,0,0,1-.832.7,2.4,2.4,0,0,1-1.235.319A2.874,2.874,0,0,1,154.3,92.094Zm.779-4.166a1.717,1.717,0,0,0-.65.656,1.9,1.9,0,0,0-.24.956,1.889,1.889,0,0,0,.91,1.632,1.714,1.714,0,0,0,.91.254,1.8,1.8,0,0,0,1.138-.371,1.648,1.648,0,0,0,.6-1.008V88.981a1.664,1.664,0,0,0-.65-.93,1.879,1.879,0,0,0-1.131-.357A1.771,1.771,0,0,0,155.081,87.928Zm-14.774,4.134a2.52,2.52,0,0,1-.955-1.021,3.212,3.212,0,0,1-.345-1.514,3.031,3.031,0,0,1,.364-1.515,2.458,2.458,0,0,1,1-.982,3.031,3.031,0,0,1,1.443-.337,2.854,2.854,0,0,1,1.176.253,2.195,2.195,0,0,1,.891.7V82.221h1.209V92.3h-1.222v-.845a2.765,2.765,0,0,1-.956.715,2.939,2.939,0,0,1-1.241.26A2.614,2.614,0,0,1,140.306,92.062Zm.833-4.166a1.8,1.8,0,0,0-.663.663,1.9,1.9,0,0,0,.663,2.58,1.749,1.749,0,0,0,.91.247,1.885,1.885,0,0,0,1.19-.377,1.712,1.712,0,0,0,.63-1.013V88.981a1.7,1.7,0,0,0-.663-.956,1.911,1.911,0,0,0-1.157-.37A1.786,1.786,0,0,0,141.139,87.9Zm36.985,4.4V82.9h1.261v9.4Zm-3.613,0V88.735a1.1,1.1,0,0,0-.274-.715,1.01,1.01,0,0,0-.741-.273,1.451,1.451,0,0,0-.845.26,1.738,1.738,0,0,0-.591.728,2.46,2.46,0,0,0-.214,1.039V92.3h-1.21V82.221h1.184V87.89a2.25,2.25,0,0,1,.864-.859,2.556,2.556,0,0,1,1.293-.325,1.783,1.783,0,0,1,1.248.449,1.536,1.536,0,0,1,.507,1.163V92.3Zm-8.034,0V87.89h-.988v-.962h.988v-2.38H167.7v2.38h1.469v.962H167.7V92.3Zm-5.408,0V86.914h1.079l.091,1.274a2.39,2.39,0,0,1,.591-.78,3.012,3.012,0,0,1,.813-.52,2.205,2.205,0,0,1,.754-.194l-.052,1.209a1.977,1.977,0,0,0-1.059.234,1.88,1.88,0,0,0-.741.722,1.926,1.926,0,0,0-.267.981V92.3Zm-25.258,0V82.9h1.261v9.4ZM176.27,75.67a3,3,0,1,1,3,3.052A3.027,3.027,0,0,1,176.27,75.67Z" transform="translate(-0.001 -0.001)"/></svg>