<svg xmlns="http://www.w3.org/2000/svg" xmlns:xlink="http://www.w3.org/1999/xlink" width="367.6" height="316.421" viewBox="0 0 367.6 316.421"><defs><style>.a,.j,.n{fill:#696f7b;}.a,.d,.g,.k,.l,.m{opacity:0.1;}.b{fill:url(#a);}.c{fill:#efb7b9;}.e{fill:#dce6f2;}.f{fill:#965d7b;}.h{fill:#444053;}.i{fill:#a36468;}.k{fill:#38435a;}.l{fill:#250c80;}.m{fill:#2d3956;}.n{opacity:0.59;}.o{opacity:0.2;}</style><linearGradient id="a" y1="0.5" x2="1" y2="0.5" gradientUnits="objectBoundingBox"><stop offset="0" stop-color="gray" stop-opacity="0.251"/><stop offset="0.54" stop-color="gray" stop-opacity="0.122"/><stop offset="1" stop-color="gray" stop-opacity="0.102"/></linearGradient></defs><g transform="translate(-34.37 -0.003)"><ellipse class="a" cx="70.54" cy="13.363" rx="70.54" ry="13.363" transform="translate(79.161 283.57)"/><path class="a" d="M306.745,99.656c-23.339-.9-45.567-9.269-66.793-18.426s-42.249-19.3-65.029-24.15c-14.652-3.12-31.409-3.565-43.212,5.151-11.363,8.412-15.034,22.893-17.007,36.34-1.486,10.118-2.358,20.77,1.709,30.243,2.827,6.577,7.84,12.105,11.309,18.406,12.07,21.919,3.538,48.95-9.538,70.352-6.13,10.038-13.253,19.628-17.987,30.3s-6.924,22.949-2.78,33.868c4.1,10.815,13.887,18.923,24.486,24.631,21.525,11.6,46.88,14.913,71.621,16.8,54.752,4.158,109.792,2.359,164.689.553,20.317-.665,40.72-1.342,60.706-4.831,11.1-1.939,22.556-5.015,30.616-12.442,10.227-9.425,12.762-25.384,5.907-37.2-11.5-19.828-43.274-24.751-51.319-46.026-4.421-11.713.119-24.755,6.549-35.615,13.79-23.3,36.9-43.742,38.117-70.372.837-18.29-10.274-36.608-27.453-45.264-18.005-9.073-42.978-7.931-56.256,7.086C351.393,94.5,327.354,100.453,306.745,99.656Z" transform="translate(-57.311 -55.03)"/><path class="b" d="M443.172,257.546,430.9,249.274h0l6.189-9.213-32.406-2.584-11.645,9-14.577-8.172-12.157,1.462-.144-3.2a90.442,90.442,0,0,0-1.005-9.974c.052-1,.088-2.151.084-3.4,0-5.268-.713-12.249-3.845-16.9l.721-6.481-5.848-6.91a44.206,44.206,0,0,1,3.2-5.392c.2-.288.4-.569.617-.841a14.544,14.544,0,0,0,13.579-14.421,9.218,9.218,0,0,0-.04-1.053,3.815,3.815,0,0,0-.044-.425c.741.4,1.49.8,2.239,1.2.14.2.3.4.477.637h0l.036.044.224.276.072.084c.08.1.164.188.248.284l.056.064c.212.236.437.477.677.713a.716.716,0,0,1,.08.076l.3.28.084.076c.256.228.529.449.8.657l.088.064.344.236.112.072c.132.08.268.164.4.24l.048.028c.156.084.316.164.477.24l.08.032q.2.088.4.168l.124.044c.14.048.276.092.421.132l.088.024c.176.044.353.08.533.108h.02a4.357,4.357,0,0,0,.513.052h.116a4.4,4.4,0,0,0,.461,0h.1a4.746,4.746,0,0,0,.573-.068,6.321,6.321,0,0,0,2.524-.905,2.2,2.2,0,0,0,.513-.477,1.888,1.888,0,0,0-.08-2.2h0c-.312-.745-2.339-1.27-2.339-1.27s-6.409-2.676-6.409-4.807-1.6-13.187-18.142-15.714c0,0-10.759-.6-13.784,5.155l-.064.673c-.889.557-1.626,1.674-2.5,2a4.089,4.089,0,0,0-1.086.4v-.076h0a1.033,1.033,0,0,0-.244.316,3.2,3.2,0,0,0-.332,1.2,4.526,4.526,0,0,1-.525,1.454,3.238,3.238,0,0,1-.24.369h0l-.068.108a2.924,2.924,0,0,0,1.362-.22,6.781,6.781,0,0,1-.4,1.6,1.33,1.33,0,0,0,1.234-.737v-.032l.052-.072a3.383,3.383,0,0,0,.248-.581l-.044.048c.08-.26.152-.525.24-.781a1.226,1.226,0,0,1,.2-.4.97.97,0,0,1,.829-.276l-.164,3.473h.072a4.734,4.734,0,0,1-.353.729c-.569.921-1.6,1.55-1.983,2.56a3.766,3.766,0,0,0-.184,1.514c0,.3.036.6.06.905v-.024a3.378,3.378,0,0,1-.361,2.207c-.3.441-.773.773-.937,1.274a1.241,1.241,0,0,0-.06.433,4.86,4.86,0,0,0,.272,1.286.056.056,0,0,0,0-.024,1.955,1.955,0,0,1,.068.945c-.18.8-1.154,1.47-1.106,2.235a.861.861,0,0,0,.044.3,1.623,1.623,0,0,0,.905.8,3.525,3.525,0,0,0,2.035.449,2.676,2.676,0,0,0,.761-.26c-.28.645-.569,1.282-.861,1.887-.044.1-.092.192-.14.288,0,0-2.475-1.654-3.882,1.718a7.483,7.483,0,0,0-.869,2.259,5.375,5.375,0,0,1-.3.929,5.98,5.98,0,0,1-2.676,2.4c-2.868,1.314-14.453,15.762-14.657,19.5a21.827,21.827,0,0,1-.737,4.318,25.7,25.7,0,0,0-.689,10.211,19.535,19.535,0,0,0,.709,3.257,72.964,72.964,0,0,1,2.051,10.711l1.33,12.105a34.447,34.447,0,0,0,.216,5c-1.358,1.55-6.81,8.011-4.727,9.77,1.6,1.386,4.406,1.158,5.981.873-1.326,3.281-3.413,8.985-3.689,12.9-.4,5.8.685,13.475,2.4,16.423S330.7,305.19,330.7,305.19s-.268,10.375,1.779,14.144,2.872,11.589,2.872,11.589,1.911,6.6.953,9.029,1.775,4.446-1.094,6.061-6.537,38-6.537,38-1.478,23.846,0,25.06a1.5,1.5,0,0,0,.252.148v8.011s-1.025,1.682,3.144,2.023c2.856.228,10.952.745,15.754,1.045l3.721.232s8.813,1.754,12.706,0,10.8-1.714,9.77-6.349a13.183,13.183,0,0,0-.545-1.855c-1.126-2.876-3.036-3.2-6.557-4.006-.2-.044-.4-.084-.581-.116-3.709-.645-4.927,1.082-7.006-1.166-1.807-1.943-7.559-4.118-9.518-4.807.048-.144.108-.284.156-.433a2.932,2.932,0,0,1-1.486-.725l5.308.337,3.16.2s7.491,1.494,10.815,0,9.173-1.454,8.3-5.392a11.294,11.294,0,0,0-.461-1.578c-.957-2.443-2.584-2.712-5.576-3.389-.172-.036-.332-.072-.493-.1-3.152-.549-4.186.917-5.952-.989-1.514-1.626-6.293-3.449-8.011-4.07,0-.889-1.2-2.155-1.959-3.425-.889-1.482.753-6.669.753-6.669l.937-21.523a4.157,4.157,0,0,1,1.122-.32s4.238-4.046,3.281-8.356a27.694,27.694,0,0,1-.3-3.938,20.231,20.231,0,0,0,3.857-4.382c.889-1.919,0-11.216,0-11.216V290.709l7.09.717,6.433.661,1.959.2,6.433.649,14.785,1.494,13.323-2.524,5.764-1.09,11.853-2.243v-29Zm-97.583-96.1-.825-.088C345.036,161.369,345.324,161.421,345.589,161.445Z" transform="translate(-220.971 -112.642)"/><path class="c" d="M512.068,442.063c-4.006,5.732-18.406,2.7-18.406,2.7L482.5,434.316,481,432.9l2.52-5.352s.8.22,2.175.613C492.909,430.258,515.449,437.244,512.068,442.063Z" transform="translate(-318.624 -278.328)"/><path class="d" d="M485.687,428.163a23.5,23.5,0,0,1-3.185,6.153L481,432.9l2.52-5.352S484.329,427.77,485.687,428.163Z" transform="translate(-318.624 -278.328)"/><path class="e" d="M382.485,278.168s-10.287,4.563-9.782,15.766a184.71,184.71,0,0,0,2.355,21.535s-2.1,16.86,6.653,21.206,16.86,7.919,16.86,7.919,13.7,1.474,15.4,2.083,7.022-8.7,6.041-10.15-13.555-4.49-15.158-6.91-5.308-3.914-5.308-3.914-3.825-2.315-4.086-4.406.749-3.649,1.005-4.566.905-9.774.905-9.774S401.692,275.432,382.485,278.168Z" transform="translate(-253.697 -188.683)"/><path class="d" d="M394.887,370.39s-14.112,2.363-12.746,7.3A29.918,29.918,0,0,1,394.887,370.39Z" transform="translate(-259.309 -244.064)"/><path class="d" d="M404.736,375.38s-7.759,6.333-6.241,6.657S404.736,375.38,404.736,375.38Z" transform="translate(-269.05 -247.055)"/><path class="d" d="M421.86,380.89s-2.079,4.258-.8,3.97S421.86,380.89,421.86,380.89Z" transform="translate(-282.445 -250.358)"/><path class="d" d="M422.054,339.642l-.857-.244a2.449,2.449,0,0,0,.112-1.751c-.981-1.45-13.547-4.486-15.146-6.91s-5.308-3.914-5.308-3.914-3.825-2.315-4.086-4.406.749-3.649,1.005-4.566.905-9.778.905-9.778,4.306-31.521-14.9-28.785c0,0-10.287,4.567-9.786,15.77a184.21,184.21,0,0,0,2.359,21.535s-2.1,16.86,6.653,21.206,16.86,7.919,16.86,7.919,13.7,1.47,15.4,2.083c.645.232,1.811-.965,2.952-2.612l.649.6,11.16,10.439s14.4,3.04,18.406-2.692C451.82,348.719,429.284,341.733,422.054,339.642Z" transform="translate(-254.471 -189.354)"/><path class="f" d="M378.761,169.992a3.406,3.406,0,0,0-1.11.429c-.4.332-.4.9-.5,1.4a4.6,4.6,0,0,1-.8,1.915,2.88,2.88,0,0,0,1.334-.22,6.865,6.865,0,0,1-.4,1.6,1.3,1.3,0,0,0,1.2-.733,7.717,7.717,0,0,0,.5-1.406,1.158,1.158,0,0,1,.192-.4c.369-.437,1.053-.24,1.622-.184a2.664,2.664,0,0,0,2.435-1.17c.6-.917.641-3.265-.8-3.513C380.929,167.461,379.991,169.536,378.761,169.992Z" transform="translate(-255.894 -122.559)"/><g class="g" transform="translate(120.516 47.758)"><path d="M378.553,174.847c.036-.2.06-.4.1-.6h0a2.35,2.35,0,0,0-.5,1.4,4.405,4.405,0,0,1-.236.845,4.59,4.59,0,0,0,.633-1.646Z" transform="translate(-377.351 -174.25)"/><path d="M377.83,181.6a6.661,6.661,0,0,0,.4-1.6,2.868,2.868,0,0,1-1.27.22,4.633,4.633,0,0,1-.461.8,2.852,2.852,0,0,0,1.33-.216,6.661,6.661,0,0,1-.4,1.6,1.3,1.3,0,0,0,1.2-.733,2.99,2.99,0,0,0,.24-.573,1.2,1.2,0,0,1-1.041.5Z" transform="translate(-376.5 -177.697)"/><path d="M385.735,175.731c-.569-.056-1.258-.252-1.626.184a1.238,1.238,0,0,0-.192.4c-.036.1-.068.212-.1.32.381-.3,1-.14,1.514-.088a2.676,2.676,0,0,0,2.435-1.17,2.219,2.219,0,0,0,.268-.629A2.668,2.668,0,0,1,385.735,175.731Z" transform="translate(-380.888 -174.55)"/></g><path class="e" d="M314.141,201l6.109,7.346-.8,7.415L312.07,204.2Z" transform="translate(-179.216 -120.483)"/><path class="d" d="M320.246,208.346l-.749,6.974-.048.441-6.661-10.431-.717-1.126.208-.324,1.859-2.88.413.5Z" transform="translate(-179.216 -120.483)"/><path class="c" d="M397.764,215.045c-2.067.593-4.042,2.628-5.76,5.1a43.513,43.513,0,0,0-3.108,5.344c-.565,1.13-1.061,2.215-1.474,3.161l-.288.673c-.7,1.646-1.086,2.748-1.086,2.748s-15.823-11.9-13.319-12.7c.841-.268,1.947-2.071,3.04-4.342l.136-.288c.693-1.458,1.374-3.084,1.979-4.615,1.238-3.144,2.155-5.876,2.155-5.876S404.073,213.243,397.764,215.045Z" transform="translate(-253.562 -144.475)"/><path class="h" d="M459.26,202.58s3.653,6.609,8.56,5.708,2.888-3.549,2.888-3.549Z" transform="translate(-305.593 -143.474)"/><path class="i" d="M397.556,750.388c-3.237,1.478-10.555,0-10.555,0l-3.084-.192c-4.006-.256-10.711-.689-13.083-.881-3.461-.284-2.612-1.7-2.612-1.7v-8.568l16.792-4.254s6.637,2.271,8.456,4.254c1.727,1.891,2.736.437,5.816.981.152.028.312.06.481.1,2.924.669,4.51.933,5.448,3.357a11.258,11.258,0,0,1,.453,1.562C406.533,748.946,400.789,748.918,397.556,750.388Z" transform="translate(-250.967 -462.496)"/><path class="d" d="M405.215,751.317a12.547,12.547,0,0,1-1.891.969c-2.2,1.005-4.3,2.231-6.525,3.181a15.261,15.261,0,0,1-7.038,1.446,10.494,10.494,0,0,0-3.757-.04,8.673,8.673,0,0,0-2.087,1.158c-4.006-.256-10.711-.689-13.083-.881-3.461-.284-2.612-1.7-2.612-1.7v-1c.124,0,.264-.036.425-.048a7.562,7.562,0,0,1,2.443.365c1.738.473,3.469.937,5.207,1.4a4.114,4.114,0,0,1,2-2.556,6.385,6.385,0,0,1,3.229-.741c2.7.036,5.247,1.314,7.939,1.442a4.374,4.374,0,0,0,2.2-.369c.369-.184.693-.453,1.053-.657a7.69,7.69,0,0,1,1.815-.613A39.956,39.956,0,0,0,399.723,751c.481-.188,1.042-.529.977-1.041-.084-.681-1.154-.761-1.434-1.386a.8.8,0,0,1,.032-.709c.152.028.312.06.481.1C402.691,748.629,404.278,748.893,405.215,751.317Z" transform="translate(-250.967 -470.331)"/><path class="i" d="M381.246,793.058c-3.805,1.739-12.418,0-12.418,0l-3.625-.212c-4.695-.3-12.6-.8-15.394-1.038-4.074-.336-3.072-2-3.072-2v-10.1L366.5,774.7s7.811,2.672,9.95,5.007c2.031,2.223,3.2.513,6.846,1.154.18.032.369.072.565.116,3.441.8,5.308,1.1,6.409,3.954a12.853,12.853,0,0,1,.533,1.839C391.793,791.36,385.052,791.324,381.246,793.058Z" transform="translate(-238.078 -486.42)"/><path class="d" d="M390.259,794.18a14.912,14.912,0,0,1-2.223,1.142c-2.592,1.182-5.059,2.624-7.679,3.741a18,18,0,0,1-8.284,1.7c-1.482-.108-3-.481-4.406-.048A10.216,10.216,0,0,0,365.2,802.1c-4.695-.3-12.6-.8-15.394-1.037-4.074-.336-3.072-2-3.072-2v-1.178a5.031,5.031,0,0,1,.5-.056,8.789,8.789,0,0,1,2.876.429l6.125,1.65a4.847,4.847,0,0,1,2.375-3.008,7.474,7.474,0,0,1,3.8-.873c3.173.044,6.173,1.546,9.341,1.7a5.171,5.171,0,0,0,2.58-.429c.437-.22.8-.537,1.242-.773a8.712,8.712,0,0,1,2.135-.721,47.938,47.938,0,0,0,6.073-1.971c.565-.224,1.226-.625,1.15-1.226-.1-.8-1.358-.9-1.69-1.634a.966.966,0,0,1,.04-.833c.18.032.369.072.565.116C387.291,791.015,389.158,791.328,390.259,794.18Z" transform="translate(-238.078 -495.669)"/><path class="j" d="M391.907,647.54l-1.07,25.168s-1.6,5.139-.733,6.609,2.335,2.936,1.8,3.805-6.942,10.267-9.013,6.661-4.114-19.227-4.114-19.227l1.911-19.3Z" transform="translate(-257.351 -410.196)"/><path class="j" d="M414.139,491l2.972,3.974v34.561s.869,9.213,0,11.116-5.276,5.708-5.276,5.708l-3.705-19.027.8-20.129Z" transform="translate(-274.944 -316.361)"/><path class="a" d="M391.907,647.54l-1.07,25.168s-1.6,5.139-.733,6.609,2.335,2.936,1.8,3.805-6.942,10.267-9.013,6.661-4.114-19.227-4.114-19.227l1.911-19.3Z" transform="translate(-257.351 -410.196)"/><path class="a" d="M414.139,491l2.972,3.974v34.561s.869,9.213,0,11.116-5.276,5.708-5.276,5.708l-3.705-19.027.8-20.129Z" transform="translate(-274.944 -316.361)"/><path class="j" d="M368.479,439.814v18.695l-3.337,14.553s-1.069,35.118-.136,39.388-3.2,8.28-3.2,8.28-2.4.268-2.4,2.135-4.006,7.21-4.006,7.21l.132,10.415s1.738,19.5-.933,23.233.933,4.274.933,4.274c-3.337,10.948-19.36,8.412-20.806,7.21s0-24.835,0-24.835,3.581-36.051,6.385-37.654.136-3.605,1.07-6.009-.933-8.945-.933-8.945-.8-7.747-2.8-11.484-1.738-14.02-1.738-14.02-5.608-7.479-7.274-10.415-2.74-10.547-2.339-16.291c.272-3.882,2.311-9.534,3.605-12.786.621-1.558,1.07-2.568,1.07-2.568l.381.1,21.879,5.728Z" transform="translate(-226.312 -279.916)"/><path class="d" d="M405.874,215c-2.067.593-4.042,2.628-5.76,5.1h-.449a14.308,14.308,0,0,1-12.418-7.182,14.089,14.089,0,0,1-1.258-2.864c1.238-3.144,2.155-5.876,2.155-5.876S412.183,213.2,405.874,215Z" transform="translate(-261.672 -144.433)"/><path class="c" d="M413.021,184.754a14.32,14.32,0,1,1-26.79-7.018,13.993,13.993,0,0,1,1.514-2.187,14.493,14.493,0,0,1,3.293-2.892A14.32,14.32,0,0,1,413,183.7C413.009,184.057,413.021,184.406,413.021,184.754Z" transform="translate(-260.707 -124.198)"/><path class="d" d="M393.842,255.011l-.048.441-6.661-10.415c-.7,1.646-1.086,2.748-1.086,2.748s-15.823-11.913-13.319-12.714c.841-.268,1.947-2.071,3.04-4.342l.136-.288c1.162,3.461,7.911,10.379,10.719,13.151.324.32.593.585.8.777l.429.4.224.224C389.1,246.046,393.41,250.693,393.842,255.011Z" transform="translate(-253.562 -160.174)"/><path class="e" d="M367.667,290.175l-.729,23.461-.128,4.178s-8.636-.8-16.7-1.682c-6.489-.709-12.606-1.474-13.547-1.923a25.5,25.5,0,0,0-5.808-1.278c-1.57-.212-2.8-.324-2.8-.324s-.461.136-1.17.264c-1.546.28-4.262.509-5.844-.865-2.023-1.758,3.293-8.148,4.619-9.682l.292-.332-.5-4.627-1.3-12a73.2,73.2,0,0,0-2-10.615,19.578,19.578,0,0,1-.693-3.225,25.828,25.828,0,0,1,.673-10.118,22.07,22.07,0,0,0,.721-4.282c.2-3.705,11.516-18.026,14.32-19.328a5.944,5.944,0,0,0,2.868-2.86,5.464,5.464,0,0,0,.437-1.246c1.2-5.207,4.242-3.14,4.242-3.14.733,4.074,12.081,14.857,12.081,14.857l.224.224c1.126,1.154,6.141,6.569,5.784,11.192a13.567,13.567,0,0,0,.757,5.063,85.622,85.622,0,0,1,3.946,22.432Z" transform="translate(-222.408 -160)"/><path class="d" d="M390.258,310.45s-2.8,6.81-4.907,7.911S391.26,320.685,390.258,310.45Z" transform="translate(-261.078 -208.134)"/><path class="d" d="M393.789,342.2s-6.409.8-6.409,2S393.789,342.2,393.789,342.2Z" transform="translate(-262.506 -227.166)"/><path class="d" d="M401.829,361.7s-9.313,19.828-11.917,20.429S401.829,361.7,401.829,361.7Z" transform="translate(-263.836 -238.855)"/><path class="d" d="M385,247.586l-7.7,3.349L368,236.891a5.463,5.463,0,0,0,.437-1.246c1.2-5.207,4.242-3.141,4.242-3.141.733,4.074,12.081,14.857,12.081,14.857Z" transform="translate(-250.889 -161.169)"/><path class="e" d="M386,245.586l-7.7,3.349L369,234.891a5.463,5.463,0,0,0,.437-1.246c1.2-5.207,4.242-3.141,4.242-3.141.733,4.074,12.081,14.857,12.081,14.857Z" transform="translate(-251.488 -159.97)"/><path class="d" d="M373.038,354.789s-8.636-.8-16.7-1.682l14.461,3.785V361.3c-.633.573-1.182.869-1.538.717-1.666-.7-15.266-2.9-15.266-2.9s-7.9-4.006-16.423-8.813a6.587,6.587,0,0,1-.6-.377,9.469,9.469,0,0,1-2.524-2.528,17.939,17.939,0,0,1-2.676-8.08,34.937,34.937,0,0,1-.208-4.959,40.654,40.654,0,0,1,.513-5.6,184.285,184.285,0,0,1-1.2-21.631c.1-11.216,10.615-15.222,10.615-15.222,19.328-1.7,13.335,29.542,13.335,29.542s-1.118,8.813-1.422,9.714-1.4,2.4-1.25,4.506S356,340.28,356,340.28s3.605,1.69,5.091,4.194c1.082,1.847,8.108,4.35,12.077,6.137Z" transform="translate(-228.636 -196.974)"/><path class="d" d="M411.54,173.072a4.535,4.535,0,0,1-.4,1.915,11.832,11.832,0,0,1-.713,1.426,6.569,6.569,0,0,1-1.754,2.179,8.976,8.976,0,0,1-3.2,1.114,4.637,4.637,0,0,0-2.9,1.642,5.744,5.744,0,0,0-.677,1.963,4.222,4.222,0,0,1-.8,1.9,1.574,1.574,0,0,1-1.875.449,1.9,1.9,0,0,1-.725-.933,13.388,13.388,0,0,1-.757-3.281,6.98,6.98,0,0,0-1.126-3.144,2.816,2.816,0,0,0-2.956-1.134,2.848,2.848,0,0,0-1.6,1.554,8.91,8.91,0,0,0-.6,2.211q-.745,4.078-1.759,8.108a.745.745,0,0,1-.132.3.577.577,0,0,1-.4.168c-.9.12-1.758-.509-2.664-.441a1.531,1.531,0,0,0-.276.044,14.312,14.312,0,0,1,1.446-16.343l.072-.02a4.318,4.318,0,0,0,1.6-1.009,16.91,16.91,0,0,0,1.6-1.855l.32-.4a18.27,18.27,0,0,1,3.124-2.968,3.2,3.2,0,0,1,1.066-.577,3.156,3.156,0,0,1,1.009-.032,25.466,25.466,0,0,0,4.17.156,26.75,26.75,0,0,1,2.928-.3c2.536.072,4.7,1.863,6.3,3.825A5.925,5.925,0,0,1,411.54,173.072Z" transform="translate(-260.665 -121.409)"/><path class="f" d="M378.145,174.746c-.557.913-1.562,1.534-1.939,2.536-.553,1.454.381,3.265-.477,4.563-.284.437-.753.761-.913,1.262-.272.845.473,1.746.28,2.616s-1.338,1.6-1.034,2.451a1.6,1.6,0,0,0,.881.8,3.445,3.445,0,0,0,2,.445c1.094-.18,1.907-1.254,3.016-1.334.9-.064,1.763.561,2.66.445a.6.6,0,0,0,.4-.172.692.692,0,0,0,.132-.3q1.01-4.026,1.763-8.108a8.731,8.731,0,0,1,.6-2.211,2.872,2.872,0,0,1,1.6-1.554,2.825,2.825,0,0,1,2.956,1.134,6.938,6.938,0,0,1,1.13,3.144,13.562,13.562,0,0,0,.753,3.281,1.915,1.915,0,0,0,.729.937,1.569,1.569,0,0,0,1.871-.449,4.178,4.178,0,0,0,.8-1.9,5.72,5.72,0,0,1,.677-1.959,4.648,4.648,0,0,1,2.9-1.642,9.063,9.063,0,0,0,3.2-1.118,6.592,6.592,0,0,0,1.755-2.175,6.4,6.4,0,0,0,1.1-3.345,6.14,6.14,0,0,0-1.642-3.465c-1.6-1.963-3.769-3.753-6.3-3.821a24.916,24.916,0,0,0-2.928.3,25.064,25.064,0,0,1-4.17-.16,3.277,3.277,0,0,0-1.009.036,3.02,3.02,0,0,0-1.062.577,18.279,18.279,0,0,0-3.128,2.964,22.958,22.958,0,0,1-1.931,2.243,4.346,4.346,0,0,1-1.6,1.013c-.4.112-.8.032-1.182.156C378.85,172.3,378.694,173.841,378.145,174.746Z" transform="translate(-254.493 -120.827)"/><path class="d" d="M467.82,208.284c-3.2.589-5.86-2-7.33-3.894a15.7,15.7,0,0,1-1.23-1.811l11,2.075.445.084S472.727,207.387,467.82,208.284Z" transform="translate(-305.593 -143.474)"/><g class="g" transform="translate(119.5 50.862)"><path d="M376.209,211.868a3.336,3.336,0,0,0-.232-1.538c0,.04-.036.08-.048.12a2.981,2.981,0,0,0,.208,1.65A1.2,1.2,0,0,0,376.209,211.868Z" transform="translate(-375.105 -198.982)"/><path d="M379.063,197.8a8.9,8.9,0,0,0,.032,1.662A8.927,8.927,0,0,0,379.063,197.8Z" transform="translate(-377.006 -191.471)"/><path d="M403.841,184.584a6.569,6.569,0,0,1-1.754,2.179,8.949,8.949,0,0,1-3.2,1.114,4.627,4.627,0,0,0-2.9,1.642,5.771,5.771,0,0,0-.677,1.963,4.194,4.194,0,0,1-.8,1.9,1.563,1.563,0,0,1-1.871.449,1.915,1.915,0,0,1-.729-.937,13.338,13.338,0,0,1-.753-3.281,6.921,6.921,0,0,0-1.13-3.144,2.816,2.816,0,0,0-2.956-1.134,2.86,2.86,0,0,0-1.6,1.554,8.73,8.73,0,0,0-.6,2.211q-.749,4.082-1.763,8.108a.693.693,0,0,1-.132.3.6.6,0,0,1-.4.172c-.9.116-1.759-.509-2.66-.445-1.11.08-1.923,1.154-3.016,1.33a3.385,3.385,0,0,1-2-.445,2.143,2.143,0,0,1-.733-.521,1.082,1.082,0,0,0-.148.933,1.562,1.562,0,0,0,.881.8,3.385,3.385,0,0,0,2,.445c1.094-.176,1.907-1.25,3.016-1.33.9-.064,1.762.561,2.66.445a.6.6,0,0,0,.4-.172.693.693,0,0,0,.132-.3q1.009-4.006,1.762-8.108a8.732,8.732,0,0,1,.6-2.211,2.86,2.86,0,0,1,1.6-1.554,2.818,2.818,0,0,1,2.956,1.134,6.938,6.938,0,0,1,1.13,3.144,13.563,13.563,0,0,0,.753,3.281,1.915,1.915,0,0,0,.729.937,1.569,1.569,0,0,0,1.871-.449,4.194,4.194,0,0,0,.8-1.9,5.772,5.772,0,0,1,.677-1.963,4.666,4.666,0,0,1,2.9-1.642,9.136,9.136,0,0,0,3.2-1.114,6.57,6.57,0,0,0,1.755-2.179,6.378,6.378,0,0,0,1.1-3.341,4.292,4.292,0,0,0-.048-.457,7.87,7.87,0,0,1-1.049,2.584Z" transform="translate(-373.964 -182)"/></g><path class="d" d="M413.95,177.769a14.152,14.152,0,0,1,1.783,5.948c-3.569-2-6.926-4.2-8.62-4.967-2.952-1.334-13.992-1.134-18.142-1.009a13.989,13.989,0,0,1,1.514-2.187,14.492,14.492,0,0,1,3.3-2.892,14.328,14.328,0,0,1,20.181,5.1Z" transform="translate(-263.459 -124.203)"/><path class="d" d="M468.822,206.586c-1.927.593-5.071-.553-8.332-2.2a15.7,15.7,0,0,1-1.23-1.811l11,2.075C470.989,205.152,471.173,205.861,468.822,206.586Z" transform="translate(-305.593 -143.474)"/><path class="j" d="M399.949,154.053s-10.515-.6-13.471,5.107L386,164.219l-.8-.088-.16,3.441s16.071-.7,19.728.949,15.021,9.966,19.576,8.564-.4-2.7-.4-2.7-6.269-2.656-6.269-4.739S416.12,156.556,399.949,154.053Z" transform="translate(-261.103 -114.374)"/><path class="d" d="M371.63,622.28s6.71,6.509,9.614,6.009C381.244,628.289,373.032,627.588,371.63,622.28Z" transform="translate(-253.065 -395.054)"/><path class="d" d="M368.13,629.81s.6,3.349,2.2,3.02S368.13,629.81,368.13,629.81Z" transform="translate(-250.967 -399.568)"/><path class="d" d="M382.256,769.53s-9.526,7.411-7.919,7.611S382.256,769.53,382.256,769.53Z" transform="translate(-254.578 -483.32)"/><path class="j" d="M330.96,339.819,361.8,334.8V364L332.5,362.467Z" transform="translate(-190.539 -200.687)"/><path class="j" d="M407.96,334.8l36.989,2.768L442.9,362.98,407.96,364Z" transform="translate(-236.696 -200.687)"/><path class="j" d="M419.332,312.55l-11.372,8.913,36.989,2.768,6.045-9.121Z" transform="translate(-236.696 -187.35)"/><path class="j" d="M303.08,317.971l27.768-3.381,14.244,8.1L314.248,327.7Z" transform="translate(-173.827 -188.573)"/><path class="j" d="M368.566,349.894v39.925l-14.449-1.482-6.285-.641-1.915-.2-6.281-.645-8.676-.889V347.33l30.84,2.1Z" transform="translate(-190.539 -208.198)"/><path class="j" d="M455.067,341.71v38.935l-11.58,2.223-5.632,1.082-13.015,2.5V346.525Z" transform="translate(-246.814 -204.829)"/><path class="j" d="M303.08,355.734l11.168-8.4,37.606,2.564-5.536,9.325Z" transform="translate(-173.827 -208.198)"/><path class="j" d="M455.067,341.71l-30.227,4.815,9.838,8.813,32.378-5.432Z" transform="translate(-246.814 -204.829)"/><path class="k" d="M462.962,431.638l-5.632,1.082V424.4l5.276-1.33Z" transform="translate(-266.289 -253.599)"/><path class="k" d="M379.365,435.96v5.5l-6.285-.641V435.96Z" transform="translate(-215.787 -261.325)"/><path class="k" d="M358.9,440.29v2.928l-6.281-.645V440.29Z" transform="translate(-203.523 -263.921)"/><path class="d" d="M464.948,459.723c-4.306,5.508-18.526,1.7-18.526,1.7L435.854,450.4l-1.434-1.494,2.8-5.207s.8.264,2.139.729C446.445,446.9,468.573,455.088,464.948,459.723Z" transform="translate(-290.703 -288.008)"/><path class="c" d="M463.947,457.723c-4.306,5.508-18.526,1.7-18.526,1.7L434.854,448.4l-1.434-1.494,2.8-5.207s.8.264,2.139.729C445.445,444.9,467.573,453.088,463.947,457.723Z" transform="translate(-290.103 -286.809)"/><path class="d" d="M438.323,442.429a23.682,23.682,0,0,1-3.509,5.973l-1.434-1.494,2.8-5.207S436.989,441.964,438.323,442.429Z" transform="translate(-290.079 -286.809)"/><path class="e" d="M342.494,287.9s-10.515,4.006-10.615,15.222a184.293,184.293,0,0,0,1.2,21.631s-3,16.724,5.508,21.531,16.423,8.813,16.423,8.813,13.6,2.2,15.27,2.9,7.475-8.312,6.573-9.814-13.283-5.207-14.753-7.711-5.091-4.19-5.091-4.19-3.693-2.52-3.841-4.623.941-3.605,1.25-4.506,1.426-9.714,1.426-9.714S361.821,286.175,342.494,287.9Z" transform="translate(-229.236 -194.574)"/><path class="d" d="M350.658,380.7s-14.22,1.6-13.119,6.609A29.916,29.916,0,0,1,350.658,380.7Z" transform="translate(-232.593 -250.244)"/><path class="d" d="M360.247,385.7s-8.071,5.908-6.589,6.309S360.247,385.7,360.247,385.7Z" transform="translate(-242.183 -253.241)"/><path class="d" d="M377.285,391.7s-2.3,4.142-1,3.926S377.285,391.7,377.285,391.7Z" transform="translate(-255.615 -256.838)"/><path class="j" d="M728.667,167.391s-15.222-.917-13.443,9.762a2.605,2.605,0,0,0,1.354,2.744s.028-.8,1.562-.525a7.012,7.012,0,0,0,1.654.08,3.433,3.433,0,0,0,2.027-.837h0s4.282-1.767,5.948-8.769c0,0,1.234-1.53,1.2-1.923l-2.572,1.1a4.608,4.608,0,0,1,.184,3.4s-.08-3.329-.577-3.253c-.1,0-1.334.645-1.334.645s1.51,3.229.369,5.58c0,0,.433-3.982-.841-5.348L722.39,171.1s1.766,3.337.569,6.061c0,0,.308-4.178-.949-5.8l-1.642,1.278s1.662,3.293.649,5.552c0,0-.132-4.863-1.005-5.231a9.9,9.9,0,0,0-1.65,1.787s1.134,2.4.429,3.649c0,0-.433-3.241-.8-3.257a10.783,10.783,0,0,0-1.578,3.605,7.8,7.8,0,0,1,1.23-3.821,4.29,4.29,0,0,0-2.187,1.134s.22-1.518,2.54-1.65a10.958,10.958,0,0,1,1.5-1.73,9.392,9.392,0,0,0-3.705.429s1.23-1.43,4.13-.8l1.6-1.322a13.821,13.821,0,0,0-4.326.044s1.482-1.266,4.763-.344l1.763-1.054a15.825,15.825,0,0,0-4.13-.357s1.626-.877,4.647.072l1.262-.565s-1.9-.373-2.451-.433-.585-.212-.585-.212a6.554,6.554,0,0,1,3.561.4A15.718,15.718,0,0,0,728.667,167.391Z" transform="translate(-458.938 -122.368)"/><path class="l" d="M844.127,300.73s-15.222-.917-13.443,9.762a2.605,2.605,0,0,0,1.354,2.744s.028-.8,1.566-.525a7.012,7.012,0,0,0,1.654.08,3.429,3.429,0,0,0,2-.833h0s4.286-1.771,5.952-8.773c0,0,1.23-1.526,1.182-1.919l-2.572,1.1a4.622,4.622,0,0,1,.188,3.4s-.084-3.329-.577-3.253c-.1,0-1.338.645-1.338.645s1.514,3.233.373,5.58c0,0,.433-3.982-.845-5.348l-1.791,1.045s1.767,3.337.569,6.061c0,0,.308-4.178-.949-5.8l-1.638,1.282s1.658,3.289.649,5.548c0,0-.132-4.863-1.005-5.231a10.048,10.048,0,0,0-1.654,1.787s1.138,2.4.433,3.649c0,0-.433-3.241-.8-3.257a10.781,10.781,0,0,0-1.578,3.605,7.819,7.819,0,0,1,1.234-3.821,4.31,4.31,0,0,0-2.191,1.134s.224-1.518,2.544-1.65a10,10,0,0,1,1.5-1.73,9.392,9.392,0,0,0-3.705.429s1.23-1.43,4.126-.781l1.6-1.322a13.825,13.825,0,0,0-4.326.044s1.482-1.266,4.763-.344l1.762-1.053a16.052,16.052,0,0,0-4.134-.357s1.63-.877,4.651.072l1.262-.565s-1.9-.373-2.456-.433-.585-.212-.585-.212a6.566,6.566,0,0,1,3.565.4A16.161,16.161,0,0,0,844.127,300.73Z" transform="translate(-528.148 -202.296)"/><path class="l" d="M618.063,254.56s3.505-14.857-7.326-14.909a2.6,2.6,0,0,0-2.932.865s.773.164.248,1.63a7.124,7.124,0,0,0-.36,1.6,3.44,3.44,0,0,0,.477,2.135h0s1.013,4.526,7.611,7.362c0,0,1.3,1.474,1.69,1.49l-.641-2.72a4.6,4.6,0,0,1-3.381-.4s3.3.485,3.3,0c0-.1-.4-1.426-.4-1.426s-3.441.937-5.564-.589c0,0,3.849,1.106,5.416.084l-.721-1.971s-3.605,1.174-6.073-.473c0,0,4.066,1.017,5.884.056l-.981-1.835s-3.525,1.074-5.58-.308c0,0,4.807.7,5.328-.1a9.95,9.95,0,0,0-1.478-1.935s-2.548.713-3.669-.2c0,0,3.265.124,3.341-.22a10.8,10.8,0,0,0-3.3-2.175,7.851,7.851,0,0,1,3.561,1.867,4.322,4.322,0,0,0-.745-2.351s1.458.481,1.2,2.8a9.979,9.979,0,0,1,1.446,1.771,9.419,9.419,0,0,0,.208-3.725s1.2,1.458.068,4.2l1.026,1.823s.929-2.924.693-4.27c0,0,1,1.674-.473,4.751l.741,1.919a16.042,16.042,0,0,0,1.054-4.006s.589,1.755-.865,4.571l.344,1.338s.689-1.807.841-2.343.308-.541.308-.541a6.561,6.561,0,0,1-1,3.445A15.914,15.914,0,0,0,618.063,254.56Z" transform="translate(-394.556 -165.607)"/><path class="l" d="M524.475,283.972s-12.225-9.145-16.6.761a2.607,2.607,0,0,0-.377,3.036s.457-.645,1.6.425a7.014,7.014,0,0,0,1.338.977,3.437,3.437,0,0,0,2.151.4h0s4.551.877,9.79-4.054c0,0,1.871-.6,2.047-.953l-2.76-.485a4.628,4.628,0,0,1-1.71,2.94s1.758-2.828,1.3-3.032c-.092-.044-1.47-.2-1.47-.2s-.513,3.533-2.756,4.867c0,0,2.552-3.088,2.235-4.931l-2.095-.112s-.357,3.761-2.856,5.38c0,0,2.552-3.321,2.4-5.372l-2.075.168s-.421,3.657-2.508,4.987c0,0,2.56-4.134,2.035-4.919a10.069,10.069,0,0,0-2.363.581s-.365,2.62-1.646,3.285c0,0,1.422-2.944,1.134-3.148a10.768,10.768,0,0,0-3.309,2.151,7.823,7.823,0,0,1,3.132-2.516,4.314,4.314,0,0,0-2.451-.256s1.017-1.146,3.028.02a10.114,10.114,0,0,1,2.2-.621,9.374,9.374,0,0,0-3.333-1.678s1.819-.521,3.881,1.6l2.079-.212a13.72,13.72,0,0,0-3.637-2.339s1.935-.244,4.166,2.327l2.051.092a15.991,15.991,0,0,0-3.253-2.572s1.839.16,3.841,2.616l1.366.22s-1.382-1.354-1.815-1.706-.373-.5-.373-.5a6.582,6.582,0,0,1,2.76,2.291A16.2,16.2,0,0,0,524.475,283.972Z" transform="translate(-334.303 -189.956)"/><path class="l" d="M626.085,71.859s-12.225-9.149-16.6.761a2.607,2.607,0,0,0-.377,3.036s.457-.645,1.6.425a7.126,7.126,0,0,0,1.342.973,3.433,3.433,0,0,0,2.151.4h0s4.55.877,9.79-4.058c0,0,1.871-.6,2.043-.953l-2.76-.477a4.608,4.608,0,0,1-1.71,2.94s1.763-2.828,1.306-3.032c-.092-.044-1.47-.2-1.47-.2s-.529,3.541-2.772,4.867c0,0,2.548-3.088,2.235-4.931l-2.095-.112s-.361,3.761-2.856,5.376c0,0,2.552-3.321,2.4-5.372l-2.071.168s-.425,3.661-2.512,4.991c0,0,2.564-4.134,2.039-4.919a10.07,10.07,0,0,0-2.363.581s-.365,2.62-1.646,3.285c0,0,1.422-2.944,1.134-3.152a10.808,10.808,0,0,0-3.309,2.155,7.786,7.786,0,0,1,3.133-2.516,4.286,4.286,0,0,0-2.456-.256s1.021-1.146,3.032.02a9.893,9.893,0,0,1,2.2-.621,9.426,9.426,0,0,0-3.333-1.682s1.815-.517,3.878,1.6l2.079-.212a13.735,13.735,0,0,0-3.637-2.343s1.935-.24,4.17,2.331l2.051.088a15.827,15.827,0,0,0-3.257-2.568s1.843.16,3.845,2.616l1.362.22s-1.386-1.338-1.819-1.682-.373-.5-.373-.5a6.569,6.569,0,0,1,2.76,2.291A17.293,17.293,0,0,0,626.085,71.859Z" transform="translate(-395.211 -62.808)"/><path class="l" d="M744.475,91.43s-4.887-14.465-14.1-8.781a2.633,2.633,0,0,0-2.031,2.287s.741-.272,1.07,1.25a7.208,7.208,0,0,0,.549,1.566,3.469,3.469,0,0,0,1.538,1.558h0s3.253,3.3,10.367,2.211c0,0,1.879.569,2.223.373l-2-1.967a4.608,4.608,0,0,1-3.076,1.45s3.056-1.33,2.8-1.758c-.052-.084-1.1-.993-1.1-.993s-2.427,2.616-5.031,2.443c0,0,3.85-1.1,4.635-2.8l-1.658-1.278s-2.427,2.892-5.4,2.8c0,0,4.006-1.286,5.019-3.064l-1.8-1.037s-2.4,2.776-4.895,2.688c0,0,4.454-1.951,4.466-2.9a10.015,10.015,0,0,0-2.275-.861s-1.787,1.951-3.2,1.775c0,0,2.836-1.622,2.716-1.955a10.747,10.747,0,0,0-3.946-.1,7.807,7.807,0,0,1,4.006-.3,4.322,4.322,0,0,0-1.879-1.6s1.49-.365,2.488,1.734a10.087,10.087,0,0,1,2.163.737,9.415,9.415,0,0,0-1.791-3.273s1.791.6,2.279,3.533l1.835,1a13.521,13.521,0,0,0-1.67-4.006s1.734.9,2.111,4.282l1.642,1.238a15.923,15.923,0,0,0-1.226-3.966s1.426,1.178,1.682,4.338l1,.953s-.369-1.9-.521-2.435-.028-.573-.028-.573a6.6,6.6,0,0,1,.973,3.453A15.963,15.963,0,0,0,744.475,91.43Z" transform="translate(-466.887 -70.791)"/><path class="l" d="M668.048,108.186s-15.182-1.69-13.928,9.081a2.6,2.6,0,0,0,1.2,2.8s.068-.8,1.6-.441a7.371,7.371,0,0,0,1.65.164,3.445,3.445,0,0,0,2.063-.733h0s4.37-1.55,6.409-8.46c0,0,1.306-1.462,1.278-1.859l-2.624.969a4.467,4.467,0,0,1,0,3.4s.084-3.329-.4-3.277c-.1,0-1.366.577-1.366.577s1.346,3.3.088,5.608c0,0,.633-3.958-.573-5.384l-1.863.961s1.6,3.425.26,6.085c0,0,.521-4.158-.653-5.844l-1.7,1.2s1.49,3.369.365,5.576c0,0,.116-4.863-.737-5.276a10.42,10.42,0,0,0-1.742,1.7s1.013,2.443.248,3.665c0,0-.268-3.257-.621-3.289a10.772,10.772,0,0,0-1.763,3.533,7.8,7.8,0,0,1,1.426-3.757,4.31,4.31,0,0,0-2.243,1.021s.3-1.5,2.62-1.518c0,0,1.262-1.566,1.6-1.65a9.418,9.418,0,0,0-3.725.24s1.3-1.37,4.162-.573l1.686-1.238s-3.048-.617-4.338-.216c0,0,1.546-1.2,4.775-.1l1.815-.965a15.948,15.948,0,0,0-4.11-.565s1.67-.8,4.639.308l1.29-.5s-1.879-.469-2.432-.557-.573-.24-.573-.24a6.589,6.589,0,0,1,3.541.577A16.385,16.385,0,0,0,668.048,108.186Z" transform="translate(-422.353 -86.833)"/><path class="l" d="M999.66,402.355s-15.174-1.69-13.92,9.069a2.6,2.6,0,0,0,1.2,2.8s.068-.8,1.6-.445a6.932,6.932,0,0,0,1.65.164,3.417,3.417,0,0,0,2.063-.733h0s4.37-1.55,6.389-8.456c0,0,1.306-1.466,1.278-1.859l-2.624.965a4.479,4.479,0,0,1,0,3.4s.084-3.333-.4-3.277c-.1,0-1.366.573-1.366.573s1.346,3.3.088,5.608c0,0,.633-3.954-.573-5.384l-1.863.965s1.6,3.425.264,6.085c0,0,.517-4.158-.657-5.848l-1.7,1.2s1.49,3.369.364,5.572c0,0,.116-4.863-.737-5.271a10.574,10.574,0,0,0-1.742,1.7s1.017,2.443.248,3.665c0,0-.268-3.257-.621-3.289a10.772,10.772,0,0,0-1.763,3.533,7.8,7.8,0,0,1,1.426-3.757,4.274,4.274,0,0,0-2.243,1.021s.3-1.506,2.62-1.522c0,0,1.266-1.566,1.6-1.646a9.385,9.385,0,0,0-3.725.236s1.3-1.366,4.166-.569l1.682-1.238s-3.012-.569-4.322-.176c0,0,1.546-1.2,4.775-.1l1.815-.961a15.949,15.949,0,0,0-4.11-.565s1.67-.8,4.639.308l1.29-.5s-1.879-.469-2.432-.553-.573-.24-.573-.24a6.565,6.565,0,0,1,3.541.573A15.69,15.69,0,0,0,999.66,402.355Z" transform="translate(-621.136 -263.167)"/><path class="l" d="M1057.57,437.736s-15.174-1.686-13.92,9.069a2.607,2.607,0,0,0,1.2,2.8s.068-.8,1.6-.441a7.068,7.068,0,0,0,1.646.16,3.461,3.461,0,0,0,2.055-.729h0s4.366-1.55,6.385-8.46c0,0,1.31-1.462,1.278-1.859l-2.624.965a4.479,4.479,0,0,1,0,3.4s.084-3.329-.4-3.277c-.1,0-1.366.573-1.366.573s1.346,3.3.088,5.608c0,0,.633-3.954-.573-5.38l-1.863.961s1.6,3.425.264,6.085c0,0,.517-4.158-.657-5.844l-1.7,1.2s1.49,3.369.369,5.576c0,0,.112-4.867-.741-5.276a10.579,10.579,0,0,0-1.742,1.7s1.017,2.443.248,3.665c0,0-.268-3.257-.621-3.289a10.712,10.712,0,0,0-1.759,3.533,7.817,7.817,0,0,1,1.422-3.757,4.311,4.311,0,0,0-2.243,1.021s.3-1.506,2.624-1.518c0,0,1.262-1.566,1.6-1.65a9.418,9.418,0,0,0-3.725.24s1.3-1.37,4.166-.573l1.682-1.238s-3.012-.569-4.322-.176c0,0,1.546-1.2,4.775-.1l1.815-.965a15.95,15.95,0,0,0-4.11-.565s1.67-.8,4.639.308l1.29-.5s-1.879-.469-2.427-.557-.577-.24-.577-.24a6.59,6.59,0,0,1,3.541.577A15.854,15.854,0,0,0,1057.57,437.736Z" transform="translate(-655.849 -284.376)"/><path class="l" d="M924.025,134.112s-12.225-9.145-16.6.761a2.607,2.607,0,0,0-.377,3.036s.457-.645,1.6.425a7.015,7.015,0,0,0,1.338.977,3.441,3.441,0,0,0,2.151.4h0s4.55.877,9.794-4.054c0,0,1.867-.6,2.043-.953l-2.752-.5a4.628,4.628,0,0,1-1.71,2.94s1.758-2.828,1.3-3.032c-.092-.044-1.466-.2-1.466-.2s-.517,3.533-2.76,4.867c0,0,2.552-3.088,2.235-4.931l-2.095-.112s-.357,3.761-2.856,5.38c0,0,2.556-3.321,2.4-5.372l-2.075.168s-.4,3.657-2.508,4.987c0,0,2.564-4.134,2.035-4.919a10.07,10.07,0,0,0-2.363.581s-.361,2.62-1.642,3.285c0,0,1.418-2.944,1.13-3.148a10.768,10.768,0,0,0-3.309,2.151,7.824,7.824,0,0,1,3.133-2.516,4.314,4.314,0,0,0-2.451-.256s1.021-1.146,3.032.02a10.071,10.071,0,0,1,2.2-.621,9.374,9.374,0,0,0-3.333-1.678s1.819-.521,3.882,1.6l2.079-.212a13.649,13.649,0,0,0-3.637-2.339s1.935-.244,4.166,2.327l2.055.092a16.061,16.061,0,0,0-3.257-2.572s1.843.16,3.841,2.616l1.366.22s-1.382-1.354-1.815-1.706-.369-.469-.369-.469a6.585,6.585,0,0,1,2.756,2.291A16.088,16.088,0,0,0,924.025,134.112Z" transform="translate(-573.805 -100.125)"/><path class="l" d="M949.837,288.907s-4.214-14.673-13.692-9.405a2.6,2.6,0,0,0-2.135,2.191s.753-.236,1.014,1.3a7.1,7.1,0,0,0,.481,1.6,3.441,3.441,0,0,0,1.466,1.634h0s3.1,3.445,10.255,2.676c0,0,1.851.649,2.2.473l-1.895-2.059a4.606,4.606,0,0,1-3.136,1.314s3.108-1.2,2.868-1.63c-.048-.088-1.049-1.045-1.049-1.045s-2.54,2.508-5.135,2.215c0,0,3.9-.921,4.755-2.58l-1.6-1.354s-2.556,2.78-5.524,2.564c0,0,4.038-1.11,5.151-2.836l-1.755-1.118s-2.544,2.664-5.011,2.464c0,0,4.538-1.75,4.595-2.692a10,10,0,0,0-2.239-.961s-1.871,1.867-3.293,1.626c0,0,2.908-1.494,2.8-1.831a10.818,10.818,0,0,0-3.938-.28,7.815,7.815,0,0,1,4.006-.116,4.3,4.3,0,0,0-1.8-1.682s1.506-.3,2.4,1.843a10,10,0,0,1,2.127.833,9.366,9.366,0,0,0-1.642-3.349s1.763.681,2.119,3.629l1.786,1.086s-.625-3-1.49-4.062c0,0,1.69.973,1.919,4.37l1.6,1.31a15.888,15.888,0,0,0-1.045-4.006s1.374,1.242,1.486,4.406l.953,1s-.28-1.915-.4-2.459,0-.621,0-.621a6.566,6.566,0,0,1,.821,3.493A15.891,15.891,0,0,0,949.837,288.907Z" transform="translate(-590.172 -188.899)"/><path class="l" d="M713.283,375.8s-8.184-12.89-15.782-5.175a2.591,2.591,0,0,0-1.434,2.7s.661-.441,1.342.961a6.859,6.859,0,0,0,.905,1.386,3.421,3.421,0,0,0,1.863,1.154h0s3.946,2.435,10.6-.32c0,0,1.959.1,2.247-.164l-2.4-1.442a4.6,4.6,0,0,1-2.644,2.143s2.652-2,2.3-2.371c-.068-.072-1.3-.7-1.3-.7s-1.734,3.116-4.306,3.569c0,0,3.481-1.983,3.842-3.817l-1.919-.845s-1.67,3.385-4.579,4.006c0,0,3.565-2.2,4.146-4.17l-2-.577s-1.69,3.273-4.114,3.773c0,0,3.862-2.956,3.649-3.878a9.951,9.951,0,0,0-2.4-.292s-1.27,2.319-2.7,2.488c0,0,2.371-2.251,2.175-2.548a10.793,10.793,0,0,0-3.858.841,7.8,7.8,0,0,1,3.821-1.242,4.3,4.3,0,0,0-2.2-1.11s1.358-.709,2.8,1.094a9.9,9.9,0,0,1,2.279.2,9.221,9.221,0,0,0-2.52-2.752s1.883.16,3.052,2.888l2.023.537s-1.446-2.7-2.572-3.477c0,0,1.895.457,3.068,3.657l1.891.8a15.968,15.968,0,0,0-2.135-3.557s1.666.8,2.664,3.809l1.2.693s-.8-1.759-1.086-2.243-.172-.6-.172-.6a6.569,6.569,0,0,1,1.766,3.12A16.288,16.288,0,0,0,713.283,375.8Z" transform="translate(-447.52 -242.731)"/><path class="j" d="M847.691,210.9s-7.783-13.135-15.622-5.66a2.6,2.6,0,0,0-1.514,2.66s.669-.425,1.31,1a6.919,6.919,0,0,0,.861,1.418,3.4,3.4,0,0,0,1.827,1.2h0s3.866,2.556,10.6,0c0,0,1.955.164,2.251-.1l-2.351-1.514a4.606,4.606,0,0,1-2.708,2.059s2.712-1.935,2.371-2.3c-.072-.076-1.282-.749-1.282-.749s-1.831,3.064-4.406,3.437c0,0,3.541-1.875,3.954-3.693l-1.891-.889s-1.775,3.337-4.7,3.87c0,0,3.633-2.087,4.274-4.038l-1.979-.641s-1.795,3.2-4.23,3.645c0,0,3.95-2.836,3.765-3.761a9.894,9.894,0,0,0-2.4-.369s-1.342,2.279-2.78,2.4c0,0,2.439-2.171,2.255-2.476a10.783,10.783,0,0,0-3.882.721A7.819,7.819,0,0,1,835.265,206a4.306,4.306,0,0,0-2.167-1.178s1.382-.669,2.8,1.178a10.146,10.146,0,0,1,2.271.272,9.581,9.581,0,0,0-2.431-2.828s1.875.216,2.96,2.98l2,.6s-1.358-2.748-2.464-3.557c0,0,1.883.517,2.956,3.749l1.863.869a16.094,16.094,0,0,0-2-3.605s1.638.853,2.548,3.89l1.174.729s-.753-1.783-1.017-2.275-.152-.6-.152-.6a6.583,6.583,0,0,1,1.67,3.173A15.5,15.5,0,0,0,847.691,210.9Z" transform="translate(-528.143 -143.688)"/><path class="j" d="M731.132,271.83s.4-15.262-10.2-13.111a2.61,2.61,0,0,0-2.7,1.446s.8,0,.577,1.542a7.031,7.031,0,0,0-.024,1.658,3.425,3.425,0,0,0,.9,2h0s1.911,4.222,8.965,5.656c0,0,1.566,1.182,1.959,1.118l-1.2-2.532a4.623,4.623,0,0,1-3.389.3s3.325-.2,3.233-.685c0-.1-.689-1.318-.689-1.318s-3.181,1.622-5.564.557c0,0,4.006.3,5.316-1.017l-1.118-1.775s-3.277,1.875-6.041.769c0,0,4.186.168,5.772-1.142l-1.334-1.6s-3.233,1.771-5.524.833c0,0,4.855-.292,5.207-1.178a10.388,10.388,0,0,0-1.843-1.6s-2.347,1.2-3.629.553c0,0,3.2-.537,3.225-.893a10.749,10.749,0,0,0-3.669-1.458,7.8,7.8,0,0,1,3.866,1.106,4.306,4.306,0,0,0-1.2-2.151s1.526.172,1.734,2.484a9.96,9.96,0,0,1,1.779,1.442,9.368,9.368,0,0,0-.553-3.689s1.474,1.182.921,4.1l1.374,1.578s.312-3.052-.188-4.322c0,0,1.314,1.438.5,4.747l1.11,1.726a15.969,15.969,0,0,0,.22-4.142s.929,1.6.08,4.651l.609,1.242s.308-1.911.349-2.468.192-.593.192-.593a6.577,6.577,0,0,1-.276,3.577A15.267,15.267,0,0,0,731.132,271.83Z" transform="translate(-460.827 -177.001)"/><ellipse class="m" cx="10.787" cy="1.823" rx="10.787" ry="1.823" transform="translate(277.047 285.108)"/><ellipse class="m" cx="10.787" cy="1.823" rx="10.787" ry="1.823" transform="translate(237.723 312.779)"/><ellipse class="m" cx="10.787" cy="1.823" rx="10.787" ry="1.823" transform="translate(34.37 298.603)"/><ellipse class="m" cx="10.787" cy="1.823" rx="10.787" ry="1.823" transform="translate(319.544 310.957)"/><ellipse class="j" cx="16.107" cy="2.724" rx="16.107" ry="2.724" transform="translate(325.456 286.931)"/><path class="j" d="M922.7,755.9a4.651,4.651,0,0,0,1.534-2.315,2.058,2.058,0,0,0-1.069-2.359c-.985-.377-2.039.3-2.84.993s-1.71,1.478-2.756,1.334a4.206,4.206,0,0,0,1.3-3.93,1.646,1.646,0,0,0-.36-.8c-.549-.585-1.538-.333-2.2.128-2.083,1.466-2.664,4.294-2.676,6.842a12.857,12.857,0,0,1-.036-2.8,2.877,2.877,0,0,0-1.062-2.492,3.169,3.169,0,0,0-1.6-.4,3.346,3.346,0,0,0-2.62.745,2.582,2.582,0,0,0,.1,3.2,10.359,10.359,0,0,0,2.712,2.171,6.06,6.06,0,0,1,1.939,1.847,1.884,1.884,0,0,1,.14.328h5.872A16.2,16.2,0,0,0,922.7,755.9Z" transform="translate(-574.464 -470.702)"/><path class="n" d="M170.29,778.9s6.149-.188,8.011-1.51,9.465-2.9,9.926-.777,9.245,10.531,2.3,10.587-16.139-1.082-17.99-2.211S170.29,778.9,170.29,778.9Z" transform="translate(-132.375 -486.942)"/><path class="o" d="M190.643,791.421c-6.946.056-16.139-1.082-17.99-2.211-1.41-.857-1.971-3.938-2.159-5.36h-.2s.4,4.963,2.239,6.089,11.044,2.267,17.99,2.211c2,0,2.7-.729,2.66-1.786C192.9,791.008,192.133,791.409,190.643,791.421Z" transform="translate(-132.375 -491.904)"/></g></svg>