<svg xmlns="http://www.w3.org/2000/svg" width="19.418" height="24.773" viewBox="0 0 19.418 24.773"><defs><style>.a{fill:#696f7b;stroke:#fff;stroke-width:0.2px;}</style></defs><g transform="translate(-11.13 -5.9)"><path class="a" d="M11.742,30.573H29.936a.512.512,0,0,0,.512-.512V6.512A.512.512,0,0,0,29.936,6H16.242c-.011,0-.021.006-.032.006a.5.5,0,0,0-.131.026.49.49,0,0,0-.049.017.505.505,0,0,0-.147.1l0,0-4.5,4.5a.541.541,0,0,0-.144.33c0,.011-.006.021-.006.032V30.061A.512.512,0,0,0,11.742,30.573Zm17.682-1.024H12.254V11.524h3.988a.512.512,0,0,0,.512-.512V7.024h12.67ZM15.73,7.748V10.5H12.978Z" transform="translate(0 0)"/><path class="a" d="M29.022,33.533a.512.512,0,0,0-.2-.04H26.651a.512.512,0,1,0,0,1.024h.94l-3.855,3.855L21.45,36.087a.512.512,0,0,0-.724,0L16.653,40.16a.512.512,0,1,0,.724.724l3.711-3.711,2.285,2.285a.512.512,0,0,0,.724,0l4.217-4.217v.939a.512.512,0,1,0,1.024,0V34.005a.514.514,0,0,0-.316-.472Z" transform="translate(-2.574 -13.419)"/><path class="a" d="M25.909,13.5h8.565a.512.512,0,0,0,0-1.024H25.909a.512.512,0,0,0,0,1.024Z" transform="translate(-6.914 -3.161)"/><path class="a" d="M34.474,18.007H25.909a.512.512,0,0,0,0,1.024h8.565a.512.512,0,0,0,0-1.024Z" transform="translate(-6.914 -5.86)"/><path class="a" d="M28.217,23.538H16.325a.516.516,0,0,0,0,1.024H28.217a.516.516,0,0,0,0-1.024Z" transform="translate(-0.598 -8.56)"/></g></svg>