<svg xmlns="http://www.w3.org/2000/svg" width="20" height="20" viewBox="0 0 20 20"><defs><style>.a{fill:none;}.b{fill:#fff;stroke-linecap:round;stroke-linejoin:round;}.c,.d{stroke:none;}.d{fill:#000;}</style></defs><rect class="a" width="20" height="20"/><g class="b" transform="translate(5962 2716.5)"><path class="c" d="M -5949.1181640625 -2700.399169921875 L -5954.88232421875 -2700.399169921875 C -5955.44140625 -2700.399169921875 -5955.951171875 -2700.684326171875 -5956.24560546875 -2701.162109375 L -5959.013671875 -2705.662109375 C -5959.3330078125 -2706.178955078125 -5959.3330078125 -2706.82080078125 -5959.01416015625 -2707.338134765625 L -5956.2451171875 -2711.839111328125 C -5955.95068359375 -2712.315185546875 -5955.44140625 -2712.60009765625 -5954.88232421875 -2712.60009765625 L -5949.1181640625 -2712.60009765625 C -5948.55810546875 -2712.60009765625 -5948.04833984375 -2712.3154296875 -5947.75537109375 -2711.8388671875 L -5944.9853515625 -2707.33837890625 C -5944.66748046875 -2706.821044921875 -5944.6669921875 -2706.1787109375 -5944.9853515625 -2705.662353515625 L -5947.75537109375 -2701.161865234375 C -5948.04833984375 -2700.68408203125 -5948.5576171875 -2700.399169921875 -5949.1181640625 -2700.399169921875 Z M -5952.00048828125 -2708.8994140625 C -5953.32373046875 -2708.8994140625 -5954.39990234375 -2707.822998046875 -5954.39990234375 -2706.499755859375 C -5954.39990234375 -2705.176513671875 -5953.32373046875 -2704.10009765625 -5952.00048828125 -2704.10009765625 C -5950.67724609375 -2704.10009765625 -5949.6005859375 -2705.176513671875 -5949.6005859375 -2706.499755859375 C -5949.6005859375 -2707.822998046875 -5950.67724609375 -2708.8994140625 -5952.00048828125 -2708.8994140625 Z"/><path class="d" d="M -5949.1181640625 -2700.79931640625 C -5948.69775390625 -2700.79931640625 -5948.31591796875 -2701.012939453125 -5948.095703125 -2701.37158203125 L -5945.32568359375 -2705.8720703125 C -5945.08740234375 -2706.25927734375 -5945.08740234375 -2706.740966796875 -5945.32568359375 -2707.128662109375 L -5948.095703125 -2711.629150390625 C -5948.31591796875 -2711.986572265625 -5948.6982421875 -2712.199951171875 -5949.1181640625 -2712.199951171875 L -5954.88232421875 -2712.199951171875 C -5955.3017578125 -2712.199951171875 -5955.68408203125 -2711.986083984375 -5955.90478515625 -2711.62939453125 L -5958.67333984375 -2707.128173828125 C -5958.91259765625 -2706.740478515625 -5958.91259765625 -2706.259521484375 -5958.67333984375 -2705.871826171875 L -5955.90478515625 -2701.371826171875 C -5955.68408203125 -2701.013427734375 -5955.3017578125 -2700.79931640625 -5954.88232421875 -2700.79931640625 L -5949.1181640625 -2700.79931640625 M -5952.00048828125 -2709.299560546875 C -5950.45654296875 -2709.299560546875 -5949.20068359375 -2708.04345703125 -5949.20068359375 -2706.499755859375 C -5949.20068359375 -2704.9560546875 -5950.45654296875 -2703.699951171875 -5952.00048828125 -2703.699951171875 C -5953.5439453125 -2703.699951171875 -5954.7998046875 -2704.9560546875 -5954.7998046875 -2706.499755859375 C -5954.7998046875 -2708.04345703125 -5953.5439453125 -2709.299560546875 -5952.00048828125 -2709.299560546875 M -5949.1181640625 -2699.999267578125 L -5954.88232421875 -2699.999267578125 C -5955.58154296875 -2699.999267578125 -5956.21826171875 -2700.35546875 -5956.5859375 -2700.9521484375 L -5959.3544921875 -2705.45263671875 C -5959.75341796875 -2706.09814453125 -5959.75341796875 -2706.901123046875 -5959.3544921875 -2707.548095703125 L -5956.5859375 -2712.048583984375 C -5956.2177734375 -2712.644287109375 -5955.5810546875 -2713 -5954.88232421875 -2713 L -5949.1181640625 -2713 C -5948.41796875 -2713 -5947.78125 -2712.644287109375 -5947.41455078125 -2712.048583984375 L -5944.64453125 -2707.548095703125 C -5944.2470703125 -2706.901123046875 -5944.2470703125 -2706.09814453125 -5944.64453125 -2705.45263671875 L -5947.41455078125 -2700.9521484375 C -5947.78076171875 -2700.35546875 -5948.41748046875 -2699.999267578125 -5949.1181640625 -2699.999267578125 Z M -5952.00048828125 -2708.49951171875 C -5953.10302734375 -2708.49951171875 -5954 -2707.602294921875 -5954 -2706.499755859375 C -5954 -2705.397216796875 -5953.10302734375 -2704.5 -5952.00048828125 -2704.5 C -5950.8974609375 -2704.5 -5950.00048828125 -2705.397216796875 -5950.00048828125 -2706.499755859375 C -5950.00048828125 -2707.602294921875 -5950.8974609375 -2708.49951171875 -5952.00048828125 -2708.49951171875 Z"/></g></svg>