<svg xmlns="http://www.w3.org/2000/svg" width="22" height="24.333" viewBox="0 0 22 24.333"><defs><style>.a{fill:#696f7b;stroke:#fff;}</style></defs><path class="a" d="M10.028,14.947a4.1,4.1,0,0,1,0-1.894L8.87,12.385l1.167-2.021,1.157.668a4.079,4.079,0,0,1,1.639-.947V8.75h2.333v1.336a4.074,4.074,0,0,1,1.639.947l1.157-.668,1.167,2.021-1.157.668a4.1,4.1,0,0,1,0,1.892l1.157.668-1.167,2.021-1.157-.669a4.079,4.079,0,0,1-1.639.947V19.25H12.833V17.914a4.079,4.079,0,0,1-1.639-.947l-1.157.669L8.87,15.615l1.157-.667Zm3.972.8A1.75,1.75,0,1,0,12.25,14,1.75,1.75,0,0,0,14,15.75ZM17.5,4.667H5.833V23.333H22.167v-14H17.5ZM3.5,3.491A1.161,1.161,0,0,1,4.666,2.333h14L24.5,8.167V24.492a1.167,1.167,0,0,1-1.159,1.175H4.659A1.167,1.167,0,0,1,3.5,24.509Z" transform="translate(-3 -1.833)"/></svg>